{"glyphs":{"0":{"ha":611,"x_min":90,"x_max":521,"o":"m 451 726 q 306 876 451 876 q 160 726 160 876 l 160 199 q 306 49 160 49 q 451 199 451 49 l 451 726 m 90 726 q 143 881 90 822 q 306 939 196 939 q 468 881 415 939 q 521 726 521 822 l 521 199 q 468 44 521 103 q 306 -14 415 -14 q 143 44 196 -14 q 90 199 90 103 l 90 726 z "},"1":{"ha":369,"x_min":14,"x_max":265,"o":"m 265 925 l 265 0 l 196 0 l 196 864 l 14 732 l 14 813 l 171 925 l 265 925 z "},"2":{"ha":542,"x_min":63,"x_max":479,"o":"m 242 932 q 472 744 472 932 l 472 665 q 448 538 471 583 q 363 451 425 493 l 260 383 q 159 299 186 336 q 132 196 132 263 l 132 67 l 479 67 l 479 0 l 63 0 l 63 194 q 100 335 63 285 q 221 439 138 385 l 324 507 q 386 572 369 536 q 403 665 403 607 l 403 744 q 369 838 403 807 q 246 868 336 868 q 76 842 156 868 l 76 910 q 242 932 146 932 z "},"3":{"ha":535,"x_min":36,"x_max":444,"o":"m 210 932 q 439 740 439 932 l 439 644 q 335 463 439 508 q 444 286 444 422 l 444 186 q 386 44 444 94 q 217 -7 328 -7 q 36 18 106 -7 l 36 88 q 210 57 119 57 q 338 90 301 57 q 375 186 375 122 l 375 282 q 229 432 375 432 l 138 432 l 138 494 l 229 494 q 338 533 307 494 q 369 644 369 572 l 369 740 q 335 835 369 803 q 210 868 300 868 q 53 846 119 868 l 53 913 q 210 932 117 932 z "},"4":{"ha":542,"x_min":14,"x_max":535,"o":"m 535 240 l 535 178 l 439 178 l 439 0 l 369 0 l 369 178 l 14 178 l 14 240 l 318 925 l 439 925 l 439 240 l 535 240 m 369 240 l 369 878 l 85 240 l 369 240 z "},"5":{"ha":574,"x_min":86,"x_max":493,"o":"m 92 925 l 474 925 l 474 861 l 161 861 l 161 532 q 286 540 231 540 q 493 333 493 540 l 493 185 q 433 44 493 94 q 269 -7 374 -7 q 86 21 164 -7 l 86 92 q 254 57 172 57 q 424 185 424 57 l 424 333 q 394 440 424 406 q 286 474 364 474 q 92 457 244 474 l 92 925 z "},"6":{"ha":590,"x_min":90,"x_max":521,"o":"m 451 376 q 315 506 451 506 q 160 465 228 506 l 160 199 q 306 49 160 49 q 451 199 451 49 l 451 376 m 90 724 q 148 874 90 817 q 312 932 206 932 q 492 908 418 932 l 492 842 q 324 868 417 868 q 160 724 160 868 l 160 535 q 321 569 229 569 q 467 520 413 569 q 521 376 521 471 l 521 199 q 468 44 521 103 q 306 -14 415 -14 q 143 44 196 -14 q 90 199 90 103 l 90 724 z "},"7":{"ha":436,"x_min":7,"x_max":400,"o":"m 7 925 l 400 925 l 400 871 l 315 599 q 249 350 268 446 q 229 135 229 254 l 229 0 l 158 0 l 158 135 q 178 351 158 257 q 246 599 197 444 l 329 863 l 7 863 l 7 925 z "},"8":{"ha":625,"x_min":90,"x_max":535,"o":"m 531 732 l 531 642 q 419 461 531 504 q 535 279 535 417 l 535 193 q 478 42 535 99 q 313 -14 422 -14 q 147 42 203 -14 q 90 193 90 99 l 90 279 q 206 461 90 417 q 94 642 94 504 l 94 732 q 149 883 94 826 q 313 939 203 939 q 476 883 422 939 q 531 732 531 826 m 164 732 l 164 642 q 313 492 164 492 q 461 642 461 492 l 461 732 q 313 876 461 876 q 164 732 164 876 m 465 193 l 465 279 q 313 429 465 429 q 160 279 160 429 l 160 193 q 313 49 160 49 q 465 193 465 49 z "},"9":{"ha":590,"x_min":69,"x_max":500,"o":"m 431 726 q 285 876 431 876 q 139 726 139 876 l 139 546 q 278 410 139 410 q 431 447 374 410 l 431 726 m 69 726 q 122 881 69 822 q 285 939 175 939 q 447 881 394 939 q 500 726 500 822 l 500 200 q 441 50 500 107 q 278 -7 382 -7 q 93 19 175 -7 l 93 88 q 264 57 179 57 q 431 200 431 57 l 431 378 q 276 346 371 346 q 125 399 181 346 q 69 546 69 451 l 69 726 z "},"\r":{"ha":0,"x_min":0,"x_max":0,"o":""}," ":{"ha":264,"x_min":0,"x_max":0,"o":""},"!":{"ha":314,"x_min":110,"x_max":201,"o":"m 156 -7 q 133 -7 156 -7 q 110 44 110 -7 q 156 96 110 96 q 201 44 201 96 q 156 -7 201 -7 m 118 925 l 194 925 l 186 221 l 126 221 l 118 925 z "},"\"":{"ha":431,"x_min":111,"x_max":319,"o":"m 111 1022 l 174 1022 l 174 768 l 111 768 l 111 1022 m 257 1022 l 319 1022 l 319 768 l 257 768 l 257 1022 z "},"#":{"ha":701,"x_min":51,"x_max":675,"o":"m 675 615 l 558 615 l 508 279 l 618 279 l 618 228 l 501 228 l 468 0 l 408 0 l 442 228 l 225 228 l 192 0 l 132 0 l 165 228 l 51 228 l 51 279 l 172 279 l 222 615 l 108 615 l 108 667 l 229 667 l 263 894 l 322 894 l 289 667 l 506 667 l 539 894 l 599 894 l 565 667 l 675 667 l 675 615 m 449 279 l 499 615 l 282 615 l 232 279 l 449 279 z "},"$":{"ha":519,"x_min":42,"x_max":471,"o":"m 471 258 l 471 186 q 275 -4 471 14 l 275 -111 l 213 -111 l 213 -7 q 47 19 118 -6 l 47 86 q 226 57 129 57 q 401 186 401 57 l 401 254 q 384 332 401 303 q 321 386 367 361 l 158 475 q 42 665 42 539 l 42 746 q 88 873 42 825 q 226 931 135 921 l 226 1018 l 289 1018 l 289 932 q 439 911 371 931 l 439 844 q 267 868 372 868 q 111 749 111 868 l 111 669 q 196 532 111 578 l 358 442 q 471 258 471 381 z "},"%":{"ha":731,"x_min":49,"x_max":682,"o":"m 435 35 q 417 59 435 35 q 399 174 399 83 q 435 313 399 264 q 540 361 472 361 q 645 313 608 361 q 682 174 682 264 q 645 35 682 83 q 540 -14 608 -14 q 435 35 472 -14 m 540 44 q 580 44 540 44 q 619 174 619 44 q 540 303 619 303 q 461 174 461 303 q 540 44 461 44 m 85 613 q 67 637 85 613 q 49 751 49 661 q 85 890 49 842 q 190 939 122 939 q 295 890 258 939 q 332 751 332 842 q 295 613 332 661 q 190 564 258 564 q 85 613 122 564 m 190 622 q 230 622 190 622 q 269 751 269 622 q 190 881 269 881 q 111 751 111 881 q 190 622 111 622 m 514 925 l 572 925 l 218 0 l 160 0 l 514 925 z "},"&":{"ha":618,"x_min":74,"x_max":594,"o":"m 594 506 l 594 443 l 539 443 l 539 199 q 479 46 539 106 q 308 -14 419 -14 q 135 46 197 -14 q 74 199 74 106 l 74 293 q 185 474 74 431 q 75 656 75 515 l 75 731 q 136 878 75 824 q 324 932 197 932 q 497 906 415 932 l 497 836 q 319 865 415 865 q 184 830 224 865 q 144 731 144 794 l 144 656 q 282 506 144 506 l 469 506 l 469 585 l 539 585 l 539 506 l 594 506 m 469 199 l 469 443 l 285 443 q 143 293 143 443 l 143 199 q 185 90 143 131 q 308 49 228 49 q 428 89 388 49 q 469 199 469 129 z "},"'":{"ha":282,"x_min":111,"x_max":171,"o":"m 111 1022 l 171 1022 l 171 768 l 111 768 l 111 1022 z "},"(":{"ha":368,"x_min":97,"x_max":285,"o":"m 160 447 q 192 140 160 304 q 285 -167 225 -25 l 222 -167 q 129 131 161 -37 q 97 448 97 299 q 129 764 97 597 q 222 1060 161 931 l 285 1060 q 160 447 160 763 z "},")":{"ha":368,"x_min":83,"x_max":271,"o":"m 146 1060 q 239 764 207 931 q 271 448 271 597 q 239 131 271 299 q 146 -167 207 -37 l 83 -167 q 176 140 143 -25 q 208 447 208 304 q 83 1060 208 763 l 146 1060 z "},"*":{"ha":665,"x_min":97,"x_max":575,"o":"m 307 926 l 307 1071 l 364 1071 l 364 926 q 351 850 364 885 q 418 886 374 872 l 557 932 l 575 878 l 438 833 q 361 821 393 818 q 415 768 388 806 l 501 650 l 456 617 l 371 733 q 336 803 342 774 q 301 735 326 768 l 217 617 l 171 650 l 256 767 q 311 821 285 806 q 235 832 279 818 l 97 876 l 114 931 l 251 886 q 321 850 296 872 q 307 926 307 881 z "},"+":{"ha":585,"x_min":56,"x_max":529,"o":"m 529 476 l 529 421 l 324 421 l 324 211 l 261 211 l 261 421 l 56 421 l 56 476 l 261 476 l 261 685 l 324 685 l 324 476 l 529 476 z "},",":{"ha":175,"x_min":6,"x_max":135,"o":"m 96 96 q 135 56 135 96 q 50 -172 135 15 l 6 -172 l 61 96 l 96 96 z "},"-":{"ha":286,"x_min":56,"x_max":238,"o":"m 56 476 l 238 476 l 238 421 l 56 421 l 56 476 z "},".":{"ha":175,"x_min":42,"x_max":133,"o":"m 88 -7 q 65 -7 88 -7 q 42 44 42 -7 q 88 96 42 96 q 133 44 133 96 q 88 -7 133 -7 z "},"/":{"ha":496,"x_min":43,"x_max":478,"o":"m 417 1061 l 478 1061 l 104 -167 l 43 -167 l 417 1061 z "},":":{"ha":261,"x_min":42,"x_max":133,"o":"m 88 -7 q 65 -7 88 -7 q 42 44 42 -7 q 88 96 42 96 q 133 44 133 96 q 88 -7 133 -7 m 88 479 q 65 479 88 479 q 42 531 42 479 q 88 582 42 582 q 133 531 133 582 q 88 479 133 479 z "},";":{"ha":254,"x_min":6,"x_max":135,"o":"m 88 479 q 65 479 88 479 q 42 531 42 479 q 88 582 42 582 q 133 531 133 582 q 88 479 133 479 m 96 96 q 135 56 135 96 q 50 -172 135 15 l 6 -172 l 61 96 l 96 96 z "},"<":{"ha":619,"x_min":63,"x_max":536,"o":"m 536 681 l 536 618 l 111 447 l 536 278 l 536 215 l 63 404 l 63 490 l 536 681 z "},"=":{"ha":585,"x_min":56,"x_max":529,"o":"m 56 356 l 529 356 l 529 300 l 56 300 l 56 356 m 56 594 l 529 594 l 529 539 l 56 539 l 56 594 z "},">":{"ha":619,"x_min":83,"x_max":557,"o":"m 83 681 l 557 490 l 557 404 l 83 215 l 83 278 l 508 447 l 83 618 l 83 681 z "},"?":{"ha":510,"x_min":51,"x_max":440,"o":"m 192 -7 q 169 -7 192 -7 q 146 44 146 -7 q 192 96 146 96 q 238 44 238 96 q 192 -7 238 -7 m 207 939 q 440 753 440 939 l 440 611 q 229 400 440 406 l 224 221 l 161 221 l 157 464 l 232 464 q 371 611 371 464 l 371 753 q 335 843 371 814 q 210 872 300 872 q 51 851 121 872 l 51 921 q 207 939 124 939 z "},"@":{"ha":1168,"x_min":106,"x_max":1074,"o":"m 706 -147 l 589 -147 q 220 -14 335 -147 q 106 376 106 119 q 222 766 106 632 q 591 900 338 900 q 959 774 844 900 q 1074 392 1074 647 q 871 46 1074 46 q 731 110 769 46 q 575 61 672 61 q 386 219 386 61 l 386 235 q 428 346 386 308 q 557 410 471 383 l 707 454 l 707 531 q 682 613 707 585 q 592 642 657 642 q 422 618 526 642 l 422 681 q 599 703 514 703 q 727 656 683 703 q 771 531 771 610 l 771 218 q 795 132 771 158 q 871 106 819 106 q 1008 392 1008 106 q 910 730 1008 618 q 590 842 813 842 q 269 724 367 842 q 171 376 171 606 q 269 29 171 147 q 589 -89 367 -89 l 706 -89 l 706 -147 m 456 235 l 456 218 q 561 121 456 121 q 640 133 604 121 q 707 167 676 144 l 707 390 l 567 349 q 481 309 506 331 q 456 235 456 288 z "},"A":{"ha":589,"x_min":28,"x_max":561,"o":"m 489 0 l 426 271 l 163 271 l 100 0 l 28 0 l 244 925 l 344 925 l 561 0 l 489 0 m 176 333 l 413 333 l 294 846 l 176 333 z "},"B":{"ha":640,"x_min":104,"x_max":550,"o":"m 542 717 l 542 642 q 438 467 542 510 q 550 288 550 426 l 550 208 q 494 57 550 114 q 329 0 439 0 l 104 0 l 104 925 l 321 925 q 486 868 431 925 q 542 717 542 811 m 321 863 l 174 863 l 174 496 l 321 496 q 472 642 472 496 l 472 717 q 321 863 472 863 m 481 208 l 481 288 q 329 433 481 433 l 174 433 l 174 63 l 329 63 q 481 208 481 63 z "},"C":{"ha":540,"x_min":90,"x_max":485,"o":"m 90 744 q 325 932 90 932 q 482 910 404 932 l 482 844 q 318 868 403 868 q 197 837 233 868 q 160 744 160 806 l 160 181 q 197 88 160 119 q 319 57 233 57 q 485 81 406 57 l 485 15 q 325 -7 415 -7 q 90 181 90 -7 l 90 744 z "},"D":{"ha":636,"x_min":104,"x_max":546,"o":"m 476 717 q 325 863 476 863 l 174 863 l 174 63 l 325 63 q 476 208 476 63 l 476 717 m 104 925 l 325 925 q 490 868 435 925 q 546 717 546 811 l 546 208 q 490 57 546 114 q 325 0 435 0 l 104 0 l 104 925 z "},"E":{"ha":543,"x_min":104,"x_max":488,"o":"m 104 925 l 488 925 l 488 863 l 174 863 l 174 497 l 447 497 l 447 435 l 174 435 l 174 63 l 488 63 l 488 0 l 104 0 l 104 925 z "},"F":{"ha":503,"x_min":104,"x_max":475,"o":"m 104 925 l 475 925 l 475 863 l 174 863 l 174 483 l 463 483 l 463 421 l 174 421 l 174 0 l 104 0 l 104 925 z "},"G":{"ha":615,"x_min":90,"x_max":518,"o":"m 90 736 q 332 932 90 932 q 493 910 415 932 l 493 842 q 325 868 411 868 q 160 736 160 868 l 160 181 q 303 56 160 56 q 449 89 401 56 l 449 443 l 518 443 l 518 47 q 317 -7 426 -7 q 149 38 208 -7 q 90 181 90 82 l 90 736 z "},"H":{"ha":674,"x_min":104,"x_max":569,"o":"m 499 925 l 569 925 l 569 0 l 499 0 l 499 422 l 174 422 l 174 0 l 104 0 l 104 925 l 174 925 l 174 485 l 499 485 l 499 925 z "},"I":{"ha":278,"x_min":104,"x_max":174,"o":"m 104 925 l 174 925 l 174 0 l 104 0 l 104 925 z "},"J":{"ha":278,"x_min":15,"x_max":174,"o":"m 104 925 l 174 925 l 174 271 q 128 -61 174 101 l 85 -207 l 15 -207 l 57 -60 q 104 269 104 104 l 104 925 z "},"K":{"ha":582,"x_min":104,"x_max":554,"o":"m 104 925 l 174 925 l 174 0 l 104 0 l 104 925 m 468 925 l 544 925 l 343 461 l 554 0 l 476 0 l 267 458 l 468 925 z "},"L":{"ha":471,"x_min":104,"x_max":464,"o":"m 104 925 l 174 925 l 174 63 l 464 63 l 464 0 l 104 0 l 104 925 z "},"M":{"ha":835,"x_min":104,"x_max":731,"o":"m 731 925 l 731 0 l 664 0 l 664 533 l 668 808 l 461 250 l 372 250 l 164 808 q 169 535 169 678 l 169 0 l 104 0 l 104 925 l 196 925 l 417 315 l 638 925 l 731 925 z "},"N":{"ha":682,"x_min":104,"x_max":578,"o":"m 511 117 l 508 397 l 508 925 l 578 925 l 578 0 l 486 0 q 169 806 221 672 q 172 525 169 806 l 172 0 l 104 0 l 104 925 l 194 925 q 511 117 494 161 z "},"O":{"ha":622,"x_min":90,"x_max":532,"o":"m 463 726 q 311 876 463 876 q 160 726 160 876 l 160 199 q 311 49 160 49 q 463 199 463 49 l 463 726 m 90 726 q 146 880 90 821 q 311 939 201 939 q 476 880 421 939 q 532 726 532 821 l 532 199 q 476 45 532 104 q 311 -14 421 -14 q 146 45 201 -14 q 90 199 90 104 l 90 726 z "},"P":{"ha":599,"x_min":104,"x_max":529,"o":"m 460 717 q 308 863 460 863 l 174 863 l 174 394 l 308 394 q 460 540 460 394 l 460 717 m 104 925 l 308 925 q 474 868 418 925 q 529 717 529 811 l 529 540 q 474 389 529 446 q 308 332 418 332 l 174 332 l 174 0 l 104 0 l 104 925 z "},"Q":{"ha":622,"x_min":90,"x_max":593,"o":"m 311 -14 q 146 45 201 -14 q 90 199 90 104 l 90 726 q 146 880 90 821 q 311 939 201 939 q 476 880 421 939 q 532 726 532 821 l 532 199 q 446 21 532 76 l 593 -144 l 503 -144 l 381 -7 q 311 -14 346 -14 m 160 726 l 160 199 q 311 49 160 49 q 463 199 463 49 l 463 726 q 311 876 463 876 q 160 726 160 876 z "},"R":{"ha":625,"x_min":104,"x_max":556,"o":"m 308 382 l 174 382 l 174 0 l 104 0 l 104 925 l 308 925 q 474 868 418 925 q 529 717 529 811 l 529 590 q 410 399 529 443 l 556 0 l 479 0 l 342 383 q 308 382 331 382 m 174 447 l 308 447 q 460 590 460 447 l 460 717 q 308 863 460 863 l 174 863 l 174 447 z "},"S":{"ha":519,"x_min":42,"x_max":471,"o":"m 42 746 q 99 883 42 833 q 262 932 157 932 q 439 911 367 932 l 439 844 q 267 868 372 868 q 111 749 111 868 l 111 669 q 196 532 111 578 l 358 442 q 471 258 471 381 l 471 186 q 410 44 471 94 q 235 -7 350 -7 q 47 19 121 -7 l 47 86 q 226 57 129 57 q 401 186 401 57 l 401 254 q 384 332 401 303 q 321 386 367 361 l 158 475 q 42 665 42 539 l 42 746 z "},"T":{"ha":464,"x_min":14,"x_max":450,"o":"m 450 925 l 450 863 l 267 863 l 267 0 l 197 0 l 197 863 l 14 863 l 14 925 l 450 925 z "},"U":{"ha":636,"x_min":97,"x_max":539,"o":"m 469 925 l 539 925 l 539 199 q 483 45 539 104 q 318 -14 428 -14 q 153 45 208 -14 q 97 199 97 104 l 97 925 l 167 925 l 167 199 q 318 49 167 49 q 469 199 469 49 l 469 925 z "},"V":{"ha":558,"x_min":21,"x_max":538,"o":"m 465 925 l 538 925 l 329 0 l 229 0 l 21 925 l 93 925 q 279 74 260 168 q 465 925 303 192 z "},"W":{"ha":851,"x_min":35,"x_max":817,"o":"m 744 925 l 817 925 l 656 0 l 556 0 q 425 815 440 664 q 381 489 411 664 l 296 0 l 196 0 l 35 925 l 107 925 l 210 306 l 246 63 q 282 307 261 185 l 385 925 l 467 925 l 569 306 l 606 63 q 744 925 629 226 z "},"X":{"ha":517,"x_min":21,"x_max":496,"o":"m 419 925 l 496 925 l 293 463 l 496 0 l 419 0 l 258 378 l 97 0 l 21 0 l 222 463 l 21 925 l 97 925 l 258 546 l 419 925 z "},"Y":{"ha":542,"x_min":7,"x_max":535,"o":"m 306 0 l 236 0 l 236 319 l 7 925 l 79 925 q 233 515 208 583 q 272 408 257 447 q 314 525 286 447 q 463 925 376 696 l 535 925 l 306 319 l 306 0 z "},"Z":{"ha":515,"x_min":42,"x_max":474,"o":"m 50 925 l 474 925 l 474 863 l 115 63 l 465 63 l 465 0 l 42 0 l 42 63 l 400 863 l 50 863 l 50 925 z "},"[":{"ha":382,"x_min":111,"x_max":346,"o":"m 174 1006 l 174 -111 l 346 -111 l 346 -167 l 111 -167 l 111 1061 l 346 1061 l 346 1006 l 174 1006 z "},"\\":{"ha":510,"x_min":43,"x_max":478,"o":"m 43 1061 l 104 1061 l 478 -167 l 417 -167 l 43 1061 z "},"]":{"ha":382,"x_min":36,"x_max":271,"o":"m 36 1061 l 271 1061 l 271 -167 l 36 -167 l 36 -111 l 208 -111 l 208 1006 l 36 1006 l 36 1061 z "},"^":{"ha":396,"x_min":6,"x_max":383,"o":"m 383 519 l 318 519 l 194 864 l 71 519 l 6 519 l 144 894 l 246 894 l 383 519 z "},"_":{"ha":629,"x_min":0,"x_max":629,"o":"m 0 -21 l 629 -21 l 629 -76 l 0 -76 l 0 -21 z "},"`":{"ha":486,"x_min":179,"x_max":307,"o":"m 179 990 l 256 990 l 307 844 l 256 844 l 179 990 z "},"a":{"ha":586,"x_min":49,"x_max":489,"o":"m 117 222 l 117 179 q 147 85 117 115 q 247 56 176 56 q 421 119 349 56 l 421 403 l 238 351 q 143 301 169 331 q 117 222 117 272 m 261 789 q 489 600 489 789 l 489 0 l 421 0 l 421 56 q 375 24 394 35 q 243 -6 326 -6 q 49 181 49 -6 l 49 225 q 215 410 49 363 l 421 468 l 421 600 q 387 692 421 663 q 258 722 353 722 q 85 694 163 722 l 85 764 q 261 789 163 789 z "},"b":{"ha":615,"x_min":104,"x_max":525,"o":"m 456 600 q 338 721 456 721 q 174 682 279 721 l 174 63 l 306 63 q 456 206 456 63 l 456 600 m 104 990 l 172 990 l 172 749 q 346 786 267 786 q 475 737 425 786 q 525 600 525 688 l 525 206 q 469 54 525 108 q 321 0 414 0 l 104 0 l 104 990 z "},"c":{"ha":513,"x_min":90,"x_max":457,"o":"m 90 601 q 314 789 90 789 q 454 771 394 789 l 454 707 q 308 725 392 725 q 192 694 224 725 q 160 601 160 664 l 160 179 q 192 87 160 117 q 309 57 224 57 q 457 78 394 57 l 457 13 q 314 -7 388 -7 q 90 179 90 -7 l 90 601 z "},"d":{"ha":615,"x_min":90,"x_max":511,"o":"m 442 718 l 310 718 q 160 585 160 718 l 160 196 q 292 58 160 58 q 442 114 386 58 l 442 718 m 442 990 l 511 990 l 511 0 l 443 0 l 443 43 q 287 -4 382 -4 q 141 48 192 -4 q 90 197 90 100 l 90 585 q 147 731 90 679 q 293 782 204 782 l 442 782 l 442 990 z "},"e":{"ha":607,"x_min":90,"x_max":524,"o":"m 90 193 l 90 582 q 144 737 90 678 q 307 796 197 796 q 470 737 417 796 q 524 582 524 678 l 524 350 l 160 350 l 160 193 q 344 58 160 58 q 499 82 419 58 l 499 14 q 344 -7 428 -7 q 90 193 90 -7 m 160 413 l 454 413 l 454 582 q 307 733 454 733 q 160 582 160 733 l 160 413 z "},"f":{"ha":371,"x_min":56,"x_max":371,"o":"m 135 840 q 180 971 135 925 q 313 1017 225 1017 q 371 1013 346 1017 l 371 949 q 313 954 349 954 q 204 840 204 954 l 204 782 l 360 782 l 360 719 l 204 719 l 204 0 l 135 0 l 135 719 l 56 719 l 56 782 l 135 782 l 135 840 z "},"g":{"ha":617,"x_min":63,"x_max":582,"o":"m 582 761 l 536 761 q 465 735 494 761 q 513 597 513 683 l 513 489 q 457 343 513 396 q 290 290 401 290 q 200 206 200 290 q 223 151 200 168 q 300 133 246 133 l 382 133 q 568 -25 568 133 l 568 -39 q 326 -207 568 -207 l 269 -207 q 63 -168 138 -207 l 63 -99 q 269 -144 147 -144 l 325 -144 q 499 -40 499 -144 l 499 -25 q 476 47 499 24 q 383 71 453 71 l 300 71 q 179 101 222 71 q 136 189 136 132 l 136 211 q 156 269 136 246 q 206 300 175 292 q 68 489 68 336 l 68 597 q 124 743 68 690 q 281 796 179 796 q 442 756 383 796 q 561 832 467 832 l 582 832 l 582 761 m 443 489 l 443 597 q 407 699 443 665 q 290 733 371 733 q 174 699 210 733 q 138 597 138 665 l 138 489 q 174 387 138 421 q 290 353 210 353 q 407 387 371 353 q 443 489 443 421 z "},"h":{"ha":622,"x_min":104,"x_max":525,"o":"m 104 990 l 172 990 l 172 746 q 342 785 258 785 q 475 736 425 785 q 525 600 525 688 l 525 0 l 456 0 l 456 600 q 338 721 456 721 q 174 679 260 721 l 174 0 l 104 0 l 104 990 z "},"i":{"ha":278,"x_min":93,"x_max":185,"o":"m 139 889 q 116 889 139 889 q 93 940 93 889 q 139 992 93 992 q 185 940 185 992 q 139 889 185 889 m 104 782 l 174 782 l 174 0 l 104 0 l 104 782 z "},"j":{"ha":278,"x_min":-36,"x_max":185,"o":"m 139 889 q 116 889 139 889 q 93 940 93 889 q 139 992 93 992 q 185 940 185 992 q 139 889 185 889 m 104 782 l 174 782 l 174 -28 q 1 -208 174 -208 q -36 -206 -11 -208 l -36 -143 q 1 -146 -14 -146 q 80 -119 56 -146 q 104 -28 104 -92 l 104 782 z "},"k":{"ha":547,"x_min":104,"x_max":519,"o":"m 104 990 l 174 990 l 174 0 l 104 0 l 104 990 m 431 782 l 508 782 l 319 404 l 519 0 l 440 0 l 240 401 l 431 782 z "},"l":{"ha":278,"x_min":104,"x_max":174,"o":"m 104 990 l 174 990 l 174 0 l 104 0 l 104 990 z "},"m":{"ha":974,"x_min":104,"x_max":876,"o":"m 485 725 q 680 785 585 785 q 826 736 775 785 q 876 600 876 688 l 876 0 l 807 0 l 807 600 q 688 721 807 721 q 515 667 601 721 q 525 600 525 639 l 525 0 l 456 0 l 456 600 q 336 721 456 721 q 174 679 261 721 l 174 0 l 104 0 l 104 782 l 172 782 l 172 746 q 336 785 269 785 q 485 725 433 785 z "},"n":{"ha":622,"x_min":104,"x_max":525,"o":"m 172 746 q 347 785 269 785 q 474 736 424 785 q 525 600 525 688 l 525 0 l 456 0 l 456 600 q 336 721 456 721 q 174 679 261 721 l 174 0 l 104 0 l 104 782 l 172 782 l 172 746 z "},"o":{"ha":611,"x_min":90,"x_max":521,"o":"m 451 583 q 306 733 451 733 q 160 583 160 733 l 160 199 q 306 49 160 49 q 451 199 451 49 l 451 583 m 90 583 q 143 738 90 679 q 306 796 196 796 q 468 738 415 796 q 521 583 521 679 l 521 199 q 468 44 521 103 q 306 -14 415 -14 q 143 44 196 -14 q 90 199 90 103 l 90 583 z "},"p":{"ha":615,"x_min":104,"x_max":525,"o":"m 456 600 q 336 721 456 721 q 174 679 261 721 l 174 63 l 307 63 q 456 208 456 63 l 456 600 m 172 744 q 347 785 269 785 q 474 736 424 785 q 525 600 525 688 l 525 208 q 469 56 525 113 q 322 0 414 0 l 174 0 l 174 -207 l 104 -207 l 104 782 l 172 782 l 172 744 z "},"q":{"ha":615,"x_min":90,"x_max":511,"o":"m 442 718 l 314 718 q 200 683 240 718 q 160 576 160 647 l 160 196 q 290 58 160 58 q 442 114 386 58 l 442 718 m 299 782 l 511 782 l 511 -207 l 443 -207 l 443 43 q 286 -4 382 -4 q 140 48 190 -4 q 90 197 90 100 l 90 576 q 148 727 90 672 q 299 782 206 782 z "},"r":{"ha":378,"x_min":104,"x_max":371,"o":"m 333 786 l 371 786 l 371 718 l 321 718 q 258 705 279 718 q 231 688 238 692 q 204 668 224 683 q 174 646 185 653 l 174 0 l 104 0 l 104 782 l 172 782 l 172 721 q 206 745 194 736 q 230 762 217 754 q 251 772 243 769 q 274 779 260 775 q 333 786 297 786 z "},"s":{"ha":492,"x_min":42,"x_max":450,"o":"m 42 604 q 94 743 42 697 q 265 789 146 789 q 415 765 342 789 l 415 699 q 257 725 340 725 q 142 697 174 725 q 111 604 111 669 l 111 563 q 131 483 111 510 q 200 436 150 457 l 321 382 q 450 215 450 324 l 450 178 q 211 -7 450 -7 q 49 17 122 -7 l 49 83 q 214 57 124 57 q 342 87 304 57 q 381 178 381 117 l 381 210 q 362 276 381 253 q 289 324 343 300 l 163 379 q 42 554 42 431 l 42 604 z "},"t":{"ha":393,"x_min":7,"x_max":372,"o":"m 167 926 l 167 782 l 357 782 l 357 719 l 167 719 l 167 161 q 193 82 167 106 q 276 58 219 58 q 372 72 333 58 l 372 8 q 259 -4 331 -4 q 142 38 188 -4 q 97 161 97 81 l 97 719 l 7 719 l 7 782 l 99 782 l 118 926 l 167 926 z "},"u":{"ha":622,"x_min":97,"x_max":518,"o":"m 449 782 l 518 782 l 518 0 l 450 0 l 450 38 q 292 -4 386 -4 q 148 48 199 -4 q 97 197 97 100 l 97 782 l 167 782 l 167 197 q 299 57 167 57 q 376 69 339 57 q 449 107 414 82 l 449 782 z "},"v":{"ha":517,"x_min":28,"x_max":489,"o":"m 417 782 l 489 782 l 314 0 l 203 0 l 28 782 l 100 782 l 258 44 q 417 782 285 167 z "},"w":{"ha":821,"x_min":28,"x_max":793,"o":"m 722 782 l 793 782 l 646 0 l 536 0 l 454 422 l 410 692 q 367 422 390 543 l 285 0 l 175 0 l 28 782 l 99 782 l 229 56 l 367 782 l 454 782 l 590 56 l 722 782 z "},"x":{"ha":486,"x_min":14,"x_max":472,"o":"m 401 782 l 472 782 l 278 390 l 472 0 l 401 0 l 243 319 l 85 0 l 14 0 l 207 390 l 14 782 l 85 782 l 243 463 l 401 782 z "},"y":{"ha":517,"x_min":28,"x_max":489,"o":"m 417 782 l 489 782 l 267 -207 l 200 -207 l 244 0 l 203 0 l 28 782 l 100 782 l 193 353 l 257 44 q 417 782 292 217 z "},"z":{"ha":429,"x_min":28,"x_max":401,"o":"m 36 782 l 401 782 l 401 719 l 93 63 l 400 63 l 400 0 l 28 0 l 28 63 l 329 719 l 36 719 l 36 782 z "},"{":{"ha":465,"x_min":83,"x_max":396,"o":"m 257 900 l 257 607 q 232 493 257 532 q 140 447 207 454 q 232 401 207 440 q 257 288 257 363 l 257 -6 q 386 -108 257 -108 l 396 -108 l 396 -167 l 385 -167 q 244 -124 293 -167 q 194 -6 194 -82 l 194 315 q 167 390 194 363 q 86 418 139 418 l 83 418 l 83 476 l 86 476 q 167 504 139 476 q 194 579 194 532 l 194 900 q 244 1019 194 976 q 385 1061 293 1061 l 396 1061 l 396 1003 l 386 1003 q 257 900 257 1003 z "},"|":{"ha":282,"x_min":111,"x_max":171,"o":"m 111 1089 l 171 1089 l 171 -194 l 111 -194 l 111 1089 z "},"}":{"ha":465,"x_min":69,"x_max":382,"o":"m 379 476 l 382 476 l 382 418 l 379 418 q 299 390 326 418 q 271 315 271 363 l 271 -6 q 222 -124 271 -82 q 81 -167 172 -167 l 69 -167 l 69 -108 l 79 -108 q 208 -6 208 -108 l 208 288 q 233 401 208 363 q 325 447 258 440 q 233 493 258 454 q 208 607 208 532 l 208 900 q 79 1003 208 1003 l 69 1003 l 69 1061 l 81 1061 q 222 1019 172 1061 q 271 900 271 976 l 271 579 q 299 504 271 532 q 379 476 326 476 z "},"~":{"ha":521,"x_min":32,"x_max":489,"o":"m 489 501 q 431 403 489 429 q 307 411 372 378 l 204 461 q 113 475 150 490 q 86 401 76 460 l 35 401 q 32 431 32 415 q 91 528 32 503 q 214 521 150 554 l 317 471 q 409 456 374 440 q 435 531 444 472 l 486 531 q 489 501 489 517 z "}," ":{"ha":264,"x_min":0,"x_max":0,"o":""},"¡":{"ha":314,"x_min":110,"x_max":201,"o":"m 194 -143 l 118 -143 l 126 561 l 186 561 l 194 -143 m 156 686 q 133 686 156 686 q 110 738 110 686 q 156 789 110 789 q 201 738 201 789 q 156 686 201 686 z "},"¢":{"ha":563,"x_min":104,"x_max":471,"o":"m 357 -111 l 294 -111 l 294 -6 q 104 179 104 6 l 104 601 q 293 788 104 774 l 293 907 l 356 907 l 356 789 q 468 771 424 785 l 468 707 q 321 725 404 725 q 206 694 238 725 q 174 601 174 664 l 174 179 q 206 87 174 117 q 323 57 238 57 q 471 78 408 57 l 471 13 q 357 -6 414 -4 l 357 -111 z "},"£":{"ha":615,"x_min":60,"x_max":569,"o":"m 569 67 l 569 0 l 60 0 l 60 67 l 72 67 q 156 131 128 67 q 167 200 167 160 l 167 450 l 82 450 l 82 508 l 167 508 l 167 725 q 388 926 167 926 q 561 897 471 926 l 561 828 q 385 860 471 860 q 267 825 299 860 q 236 725 236 790 l 236 508 l 486 508 l 486 450 l 236 450 l 236 204 q 219 119 236 153 q 171 67 197 71 l 569 67 z "},"¤":{"ha":639,"x_min":74,"x_max":565,"o":"m 521 511 l 521 414 q 504 314 521 356 l 565 254 l 517 206 l 464 257 q 319 215 414 215 q 175 257 225 215 l 122 206 l 74 254 l 135 314 q 118 414 118 356 l 118 511 q 135 611 118 569 l 74 671 l 122 719 l 175 668 q 319 710 225 710 q 464 668 414 710 l 517 719 l 565 671 l 504 611 q 521 511 521 569 m 186 511 l 186 414 q 214 309 186 342 q 319 276 242 276 q 425 309 397 276 q 453 414 453 342 l 453 511 q 425 616 453 583 q 319 649 397 649 q 214 616 242 649 q 186 511 186 583 z "},"¥":{"ha":624,"x_min":56,"x_max":594,"o":"m 594 563 l 594 507 l 439 507 l 376 353 l 594 353 l 594 297 l 357 297 l 357 0 l 294 0 l 294 297 l 56 297 l 56 353 l 274 353 l 211 507 l 56 507 l 56 563 l 189 563 l 56 894 l 122 894 l 326 374 l 528 894 l 594 894 l 461 563 l 594 563 z "},"¦":{"ha":282,"x_min":111,"x_max":171,"o":"m 111 326 l 171 326 l 171 -194 l 111 -194 l 111 326 m 111 1089 l 171 1089 l 171 568 l 111 568 l 111 1089 z "},"§":{"ha":492,"x_min":42,"x_max":461,"o":"m 122 358 l 122 344 q 142 265 122 292 q 211 218 161 239 l 332 164 q 461 -3 461 106 l 461 -22 q 222 -207 461 -207 q 60 -186 125 -207 l 60 -119 q 222 -143 126 -143 q 354 -114 317 -143 q 392 -26 392 -85 q 374 57 392 32 q 300 106 356 82 l 174 161 q 53 336 53 213 l 53 358 l 122 358 m 42 740 q 94 879 42 833 q 248 925 146 925 q 415 904 350 925 l 415 838 q 261 861 349 861 q 142 831 174 861 q 111 736 111 801 q 129 647 111 671 q 200 600 147 622 l 321 546 q 450 379 450 488 l 450 357 l 381 357 l 381 374 q 362 440 381 417 q 289 488 343 464 l 163 543 q 42 718 42 594 l 42 740 z "},"¨":{"ha":486,"x_min":110,"x_max":375,"o":"m 329 869 q 306 869 329 869 q 283 915 283 869 q 329 961 283 961 q 375 915 375 961 q 329 869 375 869 m 156 869 q 133 869 156 869 q 110 915 110 869 q 156 961 110 961 q 201 915 201 961 q 156 869 201 869 z "},"©":{"ha":946,"x_min":69,"x_max":876,"o":"m 750 172 q 798 291 785 226 q 811 448 811 356 q 799 603 811 540 q 753 722 788 667 q 475 833 686 833 q 228 763 310 833 q 142 572 158 701 q 135 436 135 519 q 148 289 135 353 q 196 169 161 225 q 475 61 265 61 q 750 172 678 61 m 314 519 q 355 651 314 606 q 494 696 396 696 q 596 686 553 696 l 596 621 q 488 636 554 636 q 400 608 421 636 q 379 519 379 579 l 379 374 q 393 297 379 318 q 487 258 418 258 q 597 274 556 258 l 597 207 q 494 197 544 197 q 355 242 396 197 q 314 374 314 288 l 314 519 m 151 127 q 129 158 151 127 q 88 266 107 189 q 69 447 69 343 q 88 626 69 550 q 149 767 106 703 q 475 894 236 894 q 831 717 750 894 q 876 446 876 615 q 669 33 876 119 q 474 0 589 0 q 277 33 358 0 q 151 127 196 65 z "},"ª":{"ha":472,"x_min":47,"x_max":406,"o":"m 103 604 l 103 553 q 126 473 103 497 q 203 449 150 449 q 350 506 311 449 l 350 719 l 213 699 q 103 604 103 681 m 236 1035 q 406 893 406 1035 l 406 401 l 350 401 l 350 450 q 291 413 331 426 q 210 400 251 400 q 85 438 124 400 q 47 553 47 476 l 47 604 q 203 749 47 722 l 350 772 l 350 900 q 322 962 347 942 q 224 982 297 982 q 71 953 151 982 l 71 1008 q 236 1035 147 1035 z "},"«":{"ha":581,"x_min":85,"x_max":554,"o":"m 253 701 l 326 701 l 157 447 l 326 193 l 253 193 l 85 447 l 253 701 m 481 701 l 554 701 l 385 447 l 554 193 l 481 193 l 313 447 l 481 701 z "},"¬":{"ha":604,"x_min":104,"x_max":500,"o":"m 104 485 l 500 485 l 500 289 l 429 289 l 429 422 l 104 422 l 104 485 z "},"­":{"ha":286,"x_min":56,"x_max":238,"o":"m 56 476 l 238 476 l 238 421 l 56 421 l 56 476 z "},"®":{"ha":675,"x_min":89,"x_max":617,"o":"m 89 717 q 89 791 89 717 q 147 933 89 865 q 353 1000 204 1000 q 559 933 501 1000 q 617 718 617 867 q 560 503 617 569 q 353 438 503 438 q 146 503 203 438 q 89 717 89 568 m 144 718 q 144 650 144 718 q 183 533 144 582 q 351 485 222 485 q 521 533 481 485 q 561 717 561 582 q 520 903 561 853 q 351 953 479 953 q 184 903 224 953 q 144 718 144 854 m 254 894 l 349 894 q 467 789 467 894 q 418 689 467 714 l 482 544 l 424 544 l 369 678 q 347 676 363 676 l 307 676 l 307 544 l 254 544 l 254 894 m 307 721 l 343 721 q 402 735 385 721 q 419 788 419 749 q 404 838 419 828 q 353 849 389 849 l 307 849 l 307 721 z "},"¯":{"ha":486,"x_min":97,"x_max":389,"o":"m 97 944 l 389 944 l 389 890 l 97 890 l 97 944 z "},"°":{"ha":489,"x_min":76,"x_max":422,"o":"m 342 797 q 355 814 342 797 q 367 893 367 831 q 342 990 367 956 q 249 1025 318 1025 q 156 991 179 1025 q 132 893 132 957 q 156 796 132 829 q 249 763 179 763 q 342 797 318 763 m 249 708 q 163 708 249 708 q 76 895 76 708 q 249 1082 76 1082 q 422 895 422 1082 q 249 708 422 708 z "},"±":{"ha":585,"x_min":56,"x_max":529,"o":"m 324 476 l 529 476 l 529 421 l 324 421 l 324 211 l 261 211 l 261 421 l 56 421 l 56 476 l 261 476 l 261 685 l 324 685 l 324 476 m 56 74 l 56 129 l 529 129 l 529 74 l 56 74 z "},"²":{"ha":403,"x_min":38,"x_max":365,"o":"m 192 1035 q 361 893 361 1035 l 361 869 q 342 774 361 811 q 272 703 324 738 l 188 646 q 108 580 122 601 q 93 507 93 558 l 93 454 l 365 454 l 365 401 l 38 401 l 38 504 q 63 608 38 572 q 160 692 88 644 l 247 749 q 294 799 283 772 q 306 869 306 826 l 306 893 q 281 960 306 939 q 188 982 257 982 q 57 968 119 982 l 57 1022 q 192 1035 119 1035 z "},"³":{"ha":429,"x_min":47,"x_max":358,"o":"m 186 1035 q 358 900 354 1035 l 358 844 q 293 722 358 749 q 358 604 358 697 l 358 538 q 185 396 358 396 q 47 411 108 396 l 47 465 q 185 449 121 449 q 276 470 250 449 q 303 538 303 492 l 303 604 q 283 672 303 649 q 201 696 264 694 l 142 696 l 142 749 l 201 749 q 283 774 263 749 q 303 844 303 799 l 303 893 q 277 960 303 939 q 191 982 251 982 q 64 971 131 982 l 64 1025 q 186 1035 119 1035 z "},"´":{"ha":486,"x_min":179,"x_max":307,"o":"m 231 990 l 307 990 l 231 844 l 179 844 l 231 990 z "},"µ":{"ha":629,"x_min":104,"x_max":525,"o":"m 456 782 l 525 782 l 525 0 l 457 0 l 457 38 q 310 -3 393 -3 q 174 19 226 -3 l 174 -210 l 104 -210 l 104 782 l 174 782 l 174 90 q 306 60 214 60 q 383 73 346 60 q 456 113 421 86 l 456 782 z "},"¶":{"ha":539,"x_min":92,"x_max":433,"o":"m 313 926 l 433 926 l 433 1 l 364 1 l 364 508 l 313 508 q 147 565 203 508 q 92 717 92 622 q 147 869 92 813 q 313 926 203 926 z "},"·":{"ha":272,"x_min":93,"x_max":185,"o":"m 139 432 q 116 432 139 432 q 93 478 93 432 q 139 524 93 524 q 185 478 185 524 q 139 432 185 432 z "},"¸":{"ha":486,"x_min":149,"x_max":336,"o":"m 239 -56 q 310 -83 283 -58 q 336 -152 336 -107 q 302 -223 336 -197 q 221 -249 268 -249 q 149 -239 174 -249 l 149 -193 q 211 -204 174 -204 q 289 -149 289 -204 q 208 -93 289 -93 l 189 -93 l 210 8 l 253 8 l 239 -56 z "},"¹":{"ha":314,"x_min":36,"x_max":233,"o":"m 233 1029 l 233 401 l 178 401 l 178 976 l 36 864 l 36 932 l 163 1029 l 233 1029 z "},"º":{"ha":472,"x_min":67,"x_max":406,"o":"m 350 900 q 322 962 347 942 q 235 982 297 982 q 148 962 174 982 q 122 900 122 942 l 122 538 q 147 470 122 492 q 236 449 171 449 q 326 470 301 449 q 350 538 350 492 l 350 900 m 67 893 q 236 1035 67 1035 q 406 893 406 1035 l 406 538 q 236 396 406 396 q 67 538 67 396 l 67 893 z "},"»":{"ha":581,"x_min":26,"x_max":496,"o":"m 26 701 l 100 701 l 268 447 l 100 193 l 26 193 l 196 447 l 26 701 m 254 701 l 328 701 l 496 447 l 328 193 l 254 193 l 424 447 l 254 701 z "},"¼":{"ha":1078,"x_min":56,"x_max":994,"o":"m 660 925 l 718 925 l 281 0 l 222 0 l 660 925 m 871 196 l 871 586 l 661 196 l 871 196 m 924 628 l 924 196 l 994 196 l 994 144 l 924 144 l 924 0 l 871 0 l 871 144 l 606 144 l 606 196 l 839 628 l 924 628 m 253 925 l 253 297 l 197 297 l 197 872 l 56 760 l 56 828 l 182 925 l 253 925 z "},"½":{"ha":1060,"x_min":56,"x_max":976,"o":"m 660 925 l 718 925 l 281 0 l 222 0 l 660 925 m 253 925 l 253 297 l 197 297 l 197 872 l 56 760 l 56 828 l 182 925 l 253 925 m 803 633 q 972 492 972 633 l 972 468 q 953 373 972 410 q 883 301 935 336 l 799 244 q 719 178 733 200 q 704 106 704 157 l 704 53 l 976 53 l 976 0 l 649 0 l 649 103 q 674 206 649 169 q 771 290 699 243 l 858 347 q 906 398 894 371 q 917 468 917 425 l 917 492 q 892 559 917 538 q 799 581 868 581 q 668 567 731 581 l 668 621 q 803 633 731 633 z "},"¾":{"ha":1139,"x_min":56,"x_max":1056,"o":"m 194 932 q 367 797 363 932 l 367 742 q 301 619 367 646 q 367 501 367 594 l 367 435 q 193 293 367 293 q 56 308 117 293 l 56 363 q 194 346 129 346 q 285 367 258 346 q 311 435 311 389 l 311 501 q 292 569 311 546 q 210 593 272 592 l 150 593 l 150 646 l 210 646 q 291 671 271 646 q 311 742 311 696 l 311 790 q 285 858 311 836 q 199 879 260 879 q 72 868 139 879 l 72 922 q 194 932 128 932 m 749 925 l 807 925 l 369 0 l 311 0 l 749 925 m 932 196 l 932 586 l 722 196 l 932 196 m 985 628 l 985 196 l 1056 196 l 1056 144 l 985 144 l 985 0 l 932 0 l 932 144 l 667 144 l 667 196 l 900 628 l 985 628 z "},"¿":{"ha":510,"x_min":51,"x_max":440,"o":"m 300 789 q 323 789 300 789 q 346 738 346 789 q 300 686 346 686 q 254 738 254 686 q 300 789 254 789 m 285 -157 q 51 29 51 -157 l 51 171 q 263 382 51 376 l 268 561 l 331 561 l 335 318 l 260 318 q 121 171 121 318 l 121 29 q 156 -61 121 -32 q 281 -90 192 -90 q 440 -69 371 -90 l 440 -139 q 285 -157 368 -157 z "},"À":{"ha":589,"x_min":28,"x_max":561,"o":"m 489 0 l 426 271 l 163 271 l 100 0 l 28 0 l 244 925 l 344 925 l 561 0 l 489 0 m 176 333 l 413 333 l 294 846 l 176 333 m 311 983 l 260 983 l 183 1129 l 260 1129 l 311 983 z "},"Á":{"ha":589,"x_min":28,"x_max":561,"o":"m 489 0 l 426 271 l 163 271 l 100 0 l 28 0 l 244 925 l 344 925 l 561 0 l 489 0 m 176 333 l 413 333 l 294 846 l 176 333 m 399 1129 l 322 983 l 271 983 l 322 1129 l 399 1129 z "},"Â":{"ha":589,"x_min":28,"x_max":561,"o":"m 489 0 l 426 271 l 163 271 l 100 0 l 28 0 l 244 925 l 344 925 l 561 0 l 489 0 m 176 333 l 413 333 l 294 846 l 176 333 m 296 1078 l 247 983 l 197 983 l 264 1129 l 328 1129 l 394 983 l 344 983 l 296 1078 z "},"Ã":{"ha":589,"x_min":28,"x_max":561,"o":"m 489 0 l 426 271 l 163 271 l 100 0 l 28 0 l 244 925 l 344 925 l 561 0 l 489 0 m 176 333 l 413 333 l 294 846 l 176 333 m 200 1017 l 200 999 l 140 999 l 140 1021 q 162 1087 140 1061 q 222 1113 183 1113 q 310 1084 261 1113 q 376 1056 360 1056 q 407 1097 407 1056 l 407 1115 l 467 1115 l 467 1093 q 445 1026 467 1050 q 387 1001 424 1001 q 302 1030 350 1001 q 232 1058 254 1058 q 200 1017 200 1058 z "},"Ä":{"ha":589,"x_min":28,"x_max":561,"o":"m 489 0 l 426 271 l 163 271 l 100 0 l 28 0 l 244 925 l 344 925 l 561 0 l 489 0 m 176 333 l 413 333 l 294 846 l 176 333 m 253 1054 q 253 1031 253 1054 q 207 1008 253 1008 q 161 1054 161 1008 q 207 1100 161 1100 q 253 1054 253 1100 m 426 1054 q 426 1031 426 1054 q 381 1008 426 1008 q 335 1054 335 1008 q 381 1100 335 1100 q 426 1054 426 1100 z "},"Å":{"ha":589,"x_min":28,"x_max":561,"o":"m 489 0 l 426 271 l 163 271 l 100 0 l 28 0 l 244 925 l 344 925 l 561 0 l 489 0 m 176 333 l 413 333 l 294 846 l 176 333 m 394 1056 q 394 1035 394 1056 q 368 986 394 1014 q 295 958 342 958 q 222 987 249 958 q 194 1057 194 1015 q 222 1126 194 1099 q 295 1154 249 1154 q 368 1126 342 1154 q 394 1056 394 1099 m 332 1094 q 325 1101 332 1094 q 294 1108 318 1108 q 257 1094 271 1108 q 243 1057 243 1081 q 257 1019 243 1033 q 294 1004 271 1004 q 332 1019 318 1004 q 346 1057 346 1033 q 332 1094 346 1081 z "},"Æ":{"ha":892,"x_min":14,"x_max":875,"o":"m 875 863 l 561 863 l 561 497 l 835 497 l 835 435 l 561 435 l 561 63 l 875 63 l 875 0 l 492 0 l 492 271 l 215 271 l 90 0 l 14 0 l 449 925 l 875 925 l 875 863 m 492 333 l 492 868 l 244 333 l 492 333 z "},"Ç":{"ha":540,"x_min":90,"x_max":485,"o":"m 315 -56 q 386 -83 360 -58 q 413 -152 413 -107 q 378 -223 413 -197 q 297 -249 344 -249 q 225 -239 250 -249 l 225 -193 q 288 -204 250 -204 q 365 -149 365 -204 q 285 -93 365 -93 l 265 -93 l 283 -6 q 90 181 90 11 l 90 744 q 325 932 90 932 q 482 910 404 932 l 482 844 q 318 868 403 868 q 197 837 233 868 q 160 744 160 806 l 160 181 q 197 88 160 119 q 319 57 233 57 q 485 81 406 57 l 485 15 q 326 -7 415 -7 l 315 -56 z "},"È":{"ha":543,"x_min":104,"x_max":488,"o":"m 194 1129 l 271 1129 l 322 983 l 271 983 l 194 1129 m 104 925 l 488 925 l 488 863 l 174 863 l 174 497 l 447 497 l 447 435 l 174 435 l 174 63 l 488 63 l 488 0 l 104 0 l 104 925 z "},"É":{"ha":543,"x_min":104,"x_max":488,"o":"m 104 925 l 488 925 l 488 863 l 174 863 l 174 497 l 447 497 l 447 435 l 174 435 l 174 63 l 488 63 l 488 0 l 104 0 l 104 925 m 325 1129 l 401 1129 l 325 983 l 274 983 l 325 1129 z "},"Ê":{"ha":543,"x_min":104,"x_max":488,"o":"m 488 863 l 174 863 l 174 497 l 447 497 l 447 435 l 174 435 l 174 63 l 488 63 l 488 0 l 104 0 l 104 925 l 488 925 l 488 863 m 289 1078 l 240 983 l 190 983 l 257 1129 l 321 1129 l 388 983 l 338 983 l 289 1078 z "},"Ë":{"ha":543,"x_min":104,"x_max":488,"o":"m 104 925 l 488 925 l 488 863 l 174 863 l 174 497 l 447 497 l 447 435 l 174 435 l 174 63 l 488 63 l 488 0 l 104 0 l 104 925 m 386 1008 q 363 1008 386 1008 q 340 1054 340 1008 q 386 1100 340 1100 q 432 1054 432 1100 q 386 1008 432 1008 m 213 1008 q 190 1008 213 1008 q 167 1054 167 1008 q 213 1100 167 1100 q 258 1054 258 1100 q 213 1008 258 1008 z "},"Ì":{"ha":543,"x_min":104,"x_max":488,"o":"m 197 1129 l 274 1129 l 325 983 l 274 983 l 197 1129 m 104 925 l 488 925 l 488 863 l 174 863 l 174 497 l 447 497 l 447 435 l 174 435 l 174 63 l 488 63 l 488 0 l 104 0 l 104 925 z "},"Í":{"ha":543,"x_min":104,"x_max":488,"o":"m 104 925 l 488 925 l 488 863 l 174 863 l 174 497 l 447 497 l 447 435 l 174 435 l 174 63 l 488 63 l 488 0 l 104 0 l 104 925 m 325 1129 l 401 1129 l 325 983 l 274 983 l 325 1129 z "},"Î":{"ha":278,"x_min":49,"x_max":246,"o":"m 179 1129 l 246 983 l 196 983 l 147 1078 l 99 983 l 49 983 l 115 1129 l 179 1129 m 104 0 l 104 925 l 174 925 l 174 0 l 104 0 z "},"Ï":{"ha":278,"x_min":4,"x_max":269,"o":"m 224 1008 q 201 1008 224 1008 q 178 1054 178 1008 q 224 1100 178 1100 q 269 1054 269 1100 q 224 1008 269 1008 m 50 1008 q 27 1008 50 1008 q 4 1054 4 1008 q 50 1100 4 1100 q 96 1054 96 1100 q 50 1008 96 1008 m 104 925 l 174 925 l 174 0 l 104 0 l 104 925 z "},"Ð":{"ha":636,"x_min":-1,"x_max":546,"o":"m 104 925 l 325 925 q 490 868 435 925 q 546 717 546 811 l 546 208 q 490 57 546 114 q 325 0 435 0 l 104 0 l 104 422 l -1 422 l -1 485 l 104 485 l 104 925 m 476 208 l 476 717 q 325 863 476 863 l 174 863 l 174 485 l 343 485 l 343 422 l 174 422 l 174 63 l 325 63 q 476 208 476 63 z "},"Ñ":{"ha":682,"x_min":104,"x_max":578,"o":"m 457 1115 l 517 1115 l 517 1093 q 495 1026 517 1050 q 437 1001 474 1001 q 352 1030 400 1001 q 282 1058 304 1058 q 250 1017 250 1058 l 250 999 l 190 999 l 190 1021 q 212 1087 190 1061 q 272 1113 233 1113 q 360 1084 311 1113 q 426 1056 410 1056 q 457 1097 457 1056 l 457 1115 m 511 117 l 508 397 l 508 925 l 578 925 l 578 0 l 486 0 q 169 806 221 672 l 172 525 l 172 0 l 104 0 l 104 925 l 194 925 q 511 117 494 161 z "},"Ò":{"ha":622,"x_min":90,"x_max":532,"o":"m 199 1129 l 275 1129 l 326 983 l 275 983 l 199 1129 m 463 726 q 311 876 463 876 q 160 726 160 876 l 160 199 q 311 49 160 49 q 463 199 463 49 l 463 726 m 90 726 q 146 880 90 821 q 311 939 201 939 q 476 880 421 939 q 532 726 532 821 l 532 199 q 476 45 532 104 q 311 -14 421 -14 q 146 45 201 -14 q 90 199 90 104 l 90 726 z "},"Ó":{"ha":622,"x_min":90,"x_max":532,"o":"m 463 726 q 311 876 463 876 q 160 726 160 876 l 160 199 q 311 49 160 49 q 463 199 463 49 l 463 726 m 90 726 q 146 880 90 821 q 311 939 201 939 q 476 880 421 939 q 532 726 532 821 l 532 199 q 476 45 532 104 q 311 -14 421 -14 q 146 45 201 -14 q 90 199 90 104 l 90 726 m 335 1129 l 411 1129 l 335 983 l 283 983 l 335 1129 z "},"Ô":{"ha":622,"x_min":90,"x_max":532,"o":"m 90 199 l 90 726 q 146 880 90 821 q 311 939 201 939 q 476 880 421 939 q 532 726 532 821 l 532 199 q 476 45 532 104 q 311 -14 421 -14 q 146 45 201 -14 q 90 199 90 104 m 463 199 l 463 726 q 311 876 463 876 q 160 726 160 876 l 160 199 q 311 49 160 49 q 463 199 463 49 m 310 1078 l 261 983 l 211 983 l 278 1129 l 342 1129 l 408 983 l 358 983 l 310 1078 z "},"Õ":{"ha":622,"x_min":90,"x_max":532,"o":"m 417 1115 l 476 1115 l 476 1093 q 455 1026 476 1050 q 397 1001 433 1001 q 312 1030 360 1001 q 242 1058 264 1058 q 210 1017 210 1058 l 210 999 l 150 999 l 150 1021 q 172 1087 150 1061 q 232 1113 193 1113 q 320 1084 271 1113 q 386 1056 369 1056 q 417 1097 417 1056 l 417 1115 m 463 726 q 311 876 463 876 q 160 726 160 876 l 160 199 q 311 49 160 49 q 463 199 463 49 l 463 726 m 90 726 q 146 880 90 821 q 311 939 201 939 q 476 880 421 939 q 532 726 532 821 l 532 199 q 476 45 532 104 q 311 -14 421 -14 q 146 45 201 -14 q 90 199 90 104 l 90 726 z "},"Ö":{"ha":622,"x_min":90,"x_max":532,"o":"m 463 726 q 311 876 463 876 q 160 726 160 876 l 160 199 q 311 49 160 49 q 463 199 463 49 l 463 726 m 90 726 q 146 880 90 821 q 311 939 201 939 q 476 880 421 939 q 532 726 532 821 l 532 199 q 476 45 532 104 q 311 -14 421 -14 q 146 45 201 -14 q 90 199 90 104 l 90 726 m 397 1008 q 374 1008 397 1008 q 351 1054 351 1008 q 397 1100 351 1100 q 443 1054 443 1100 q 397 1008 443 1008 m 224 1008 q 201 1008 224 1008 q 178 1054 178 1008 q 224 1100 178 1100 q 269 1054 269 1100 q 224 1008 269 1008 z "},"×":{"ha":476,"x_min":38,"x_max":439,"o":"m 439 610 l 278 449 l 439 286 l 400 247 l 239 410 l 76 247 l 38 286 l 200 449 l 38 610 l 76 649 l 239 488 l 400 649 l 439 610 z "},"Ø":{"ha":622,"x_min":90,"x_max":532,"o":"m 532 726 l 532 199 q 476 45 532 104 q 321 -14 421 -14 q 164 29 221 -14 l 151 0 l 90 0 l 122 76 q 90 199 90 126 l 90 726 q 146 880 90 821 q 301 939 201 939 q 458 896 401 939 l 471 925 l 532 925 l 500 849 q 532 726 532 799 m 160 726 l 160 199 q 161 172 160 181 l 432 831 q 311 876 394 876 q 160 726 160 876 m 463 199 l 463 726 q 461 753 463 744 l 190 94 q 311 49 228 49 q 463 199 463 49 z "},"Ù":{"ha":636,"x_min":97,"x_max":539,"o":"m 215 1129 l 292 1129 l 343 983 l 292 983 l 215 1129 m 469 925 l 539 925 l 539 199 q 483 45 539 104 q 318 -14 428 -14 q 153 45 208 -14 q 97 199 97 104 l 97 925 l 167 925 l 167 199 q 318 49 167 49 q 469 199 469 49 l 469 925 z "},"Ú":{"ha":636,"x_min":97,"x_max":539,"o":"m 469 925 l 539 925 l 539 199 q 483 45 539 104 q 318 -14 428 -14 q 153 45 208 -14 q 97 199 97 104 l 97 925 l 167 925 l 167 199 q 318 49 167 49 q 469 199 469 49 l 469 925 m 344 1129 l 421 1129 l 344 983 l 293 983 l 344 1129 z "},"Û":{"ha":636,"x_min":97,"x_max":539,"o":"m 469 925 l 539 925 l 539 199 q 483 45 539 104 q 318 -14 428 -14 q 153 45 208 -14 q 97 199 97 104 l 97 925 l 167 925 l 167 199 q 318 49 167 49 q 469 199 469 49 l 469 925 m 317 1078 l 268 983 l 218 983 l 285 1129 l 349 1129 l 415 983 l 365 983 l 317 1078 z "},"Ü":{"ha":636,"x_min":97,"x_max":539,"o":"m 469 925 l 539 925 l 539 199 q 483 45 539 104 q 318 -14 428 -14 q 153 45 208 -14 q 97 199 97 104 l 97 925 l 167 925 l 167 199 q 318 49 167 49 q 469 199 469 49 l 469 925 m 404 1008 q 381 1008 404 1008 q 358 1054 358 1008 q 404 1100 358 1100 q 450 1054 450 1100 q 404 1008 450 1008 m 231 1008 q 208 1008 231 1008 q 185 1054 185 1008 q 231 1100 185 1100 q 276 1054 276 1100 q 231 1008 276 1008 z "},"Ý":{"ha":542,"x_min":7,"x_max":535,"o":"m 293 1129 l 369 1129 l 293 983 l 242 983 l 293 1129 m 306 0 l 236 0 l 236 319 l 7 925 l 79 925 q 233 515 208 583 q 272 408 257 447 q 314 525 286 447 q 463 925 376 696 l 535 925 l 306 319 l 306 0 z "},"Þ":{"ha":588,"x_min":118,"x_max":543,"o":"m 188 750 l 322 750 q 488 693 432 750 q 543 542 543 636 l 543 383 q 488 232 543 289 q 322 175 432 175 l 188 175 l 188 0 l 118 0 l 118 925 l 188 925 l 188 750 m 474 383 l 474 542 q 322 688 474 688 l 188 688 l 188 240 l 322 240 q 474 383 474 240 z "},"ß":{"ha":733,"x_min":104,"x_max":703,"o":"m 104 774 q 351 990 104 990 q 517 938 456 990 q 578 792 578 885 q 557 701 578 743 q 511 636 536 660 q 443 528 443 574 l 443 514 q 465 453 443 479 q 562 389 486 426 q 670 314 638 351 q 703 218 703 276 l 703 183 q 642 44 703 94 q 478 -7 582 -7 q 301 17 375 -7 l 301 86 q 464 60 376 60 q 633 183 633 60 l 633 213 q 615 280 633 256 q 520 342 597 304 q 409 416 443 381 q 375 511 375 451 l 375 526 q 396 601 375 567 q 442 657 417 636 q 488 713 467 678 q 508 792 508 749 q 351 926 508 926 q 216 889 258 926 q 174 774 174 851 l 174 0 l 104 0 l 104 774 z "},"à":{"ha":586,"x_min":49,"x_max":489,"o":"m 183 990 l 260 990 l 311 844 l 260 844 l 183 990 m 117 222 l 117 179 q 147 85 117 115 q 247 56 176 56 q 421 119 349 56 l 421 403 l 238 351 q 143 301 169 331 q 117 222 117 272 m 261 789 q 489 600 489 789 l 489 0 l 421 0 l 421 56 q 375 24 394 35 q 243 -6 326 -6 q 49 181 49 -6 l 49 225 q 215 410 49 363 l 421 468 l 421 600 q 387 692 421 663 q 258 722 353 722 q 85 694 163 722 l 85 764 q 261 789 163 789 z "},"á":{"ha":586,"x_min":49,"x_max":489,"o":"m 311 990 l 388 990 l 311 844 l 260 844 l 311 990 m 117 222 l 117 179 q 147 85 117 115 q 247 56 176 56 q 421 119 349 56 l 421 403 l 238 351 q 143 301 169 331 q 117 222 117 272 m 261 789 q 489 600 489 789 l 489 0 l 421 0 l 421 56 q 375 24 394 35 q 243 -6 326 -6 q 49 181 49 -6 l 49 225 q 215 410 49 363 l 421 468 l 421 600 q 387 692 421 663 q 258 722 353 722 q 85 694 163 722 l 85 764 q 261 789 163 789 z "},"â":{"ha":586,"x_min":49,"x_max":489,"o":"m 261 789 q 489 600 489 789 l 489 0 l 421 0 l 421 56 q 375 24 394 35 q 243 -6 326 -6 q 49 181 49 -6 l 49 225 q 215 410 49 363 l 421 468 l 421 600 q 387 692 421 663 q 258 722 353 722 q 85 694 163 722 l 85 764 q 261 789 163 789 m 117 222 l 117 179 q 147 85 117 115 q 247 56 176 56 q 421 119 349 56 l 421 403 l 238 351 q 143 301 169 331 q 117 222 117 272 m 299 939 l 250 844 l 200 844 l 267 990 l 331 990 l 397 844 l 347 844 l 299 939 z "},"ã":{"ha":586,"x_min":49,"x_max":489,"o":"m 397 976 l 457 976 l 457 954 q 435 887 457 911 q 377 863 414 863 q 292 891 340 863 q 222 919 244 919 q 190 878 190 919 l 190 860 l 131 860 l 131 882 q 152 948 131 922 q 213 974 174 974 q 301 945 251 974 q 367 917 350 917 q 397 958 397 917 l 397 976 m 117 222 l 117 179 q 147 85 117 115 q 247 56 176 56 q 421 119 349 56 l 421 403 l 238 351 q 143 301 169 331 q 117 222 117 272 m 261 789 q 489 600 489 789 l 489 0 l 421 0 l 421 56 q 375 24 394 35 q 243 -6 326 -6 q 49 181 49 -6 l 49 225 q 215 410 49 363 l 421 468 l 421 600 q 387 692 421 663 q 258 722 353 722 q 85 694 163 722 l 85 764 q 261 789 163 789 z "},"ä":{"ha":586,"x_min":49,"x_max":489,"o":"m 378 869 q 355 869 378 869 q 332 915 332 869 q 378 961 332 961 q 424 915 424 961 q 378 869 424 869 m 204 869 q 181 869 204 869 q 158 915 158 869 q 204 961 158 961 q 250 915 250 961 q 204 869 250 869 m 117 222 l 117 179 q 147 85 117 115 q 247 56 176 56 q 421 119 349 56 l 421 403 l 238 351 q 143 301 169 331 q 117 222 117 272 m 261 789 q 489 600 489 789 l 489 0 l 421 0 l 421 56 q 375 24 394 35 q 243 -6 326 -6 q 49 181 49 -6 l 49 225 q 215 410 49 363 l 421 468 l 421 600 q 387 692 421 663 q 258 722 353 722 q 85 694 163 722 l 85 764 q 261 789 163 789 z "},"å":{"ha":586,"x_min":49,"x_max":489,"o":"m 328 880 q 335 887 328 880 q 342 918 342 894 q 328 956 342 942 q 290 969 314 969 q 253 956 267 969 q 239 918 239 942 q 253 880 239 894 q 290 865 267 865 q 328 880 314 865 m 217 848 q 204 862 217 848 q 190 918 190 876 q 217 988 190 960 q 291 1015 244 1015 q 364 988 338 1015 q 390 917 390 960 q 364 847 390 875 q 291 819 338 819 q 217 848 244 819 m 117 222 l 117 179 q 147 85 117 115 q 247 56 176 56 q 421 119 349 56 l 421 403 l 238 351 q 143 301 169 331 q 117 222 117 272 m 261 789 q 489 600 489 789 l 489 0 l 421 0 l 421 56 q 375 24 394 35 q 243 -6 326 -6 q 49 181 49 -6 l 49 225 q 215 410 49 363 l 421 468 l 421 600 q 387 692 421 663 q 258 722 353 722 q 85 694 163 722 l 85 764 q 261 789 163 789 z "},"æ":{"ha":900,"x_min":49,"x_max":858,"o":"m 789 582 q 642 733 789 733 q 490 582 490 733 l 490 413 l 789 413 l 789 582 m 117 222 l 117 179 q 147 85 117 115 q 247 56 176 56 q 421 113 357 56 l 421 403 l 238 351 q 143 301 169 331 q 117 222 117 272 m 460 713 q 636 796 521 796 q 805 737 751 796 q 858 582 858 678 l 858 350 l 490 350 l 490 193 q 679 58 490 58 q 833 82 754 58 l 833 14 q 679 -7 763 -7 q 463 67 524 -7 q 243 -6 381 -6 q 49 181 49 -6 l 49 225 q 215 410 49 363 l 421 468 l 421 600 q 387 692 421 663 q 258 722 353 722 q 85 694 163 722 l 85 764 q 261 789 163 789 q 460 713 406 789 z "},"ç":{"ha":513,"x_min":90,"x_max":457,"o":"m 314 -7 l 308 -7 l 297 -56 q 368 -83 342 -58 q 394 -152 394 -107 q 360 -223 394 -197 q 279 -249 326 -249 q 207 -239 232 -249 l 207 -193 q 269 -204 232 -204 q 347 -149 347 -204 q 267 -93 347 -93 l 247 -93 l 265 -4 q 90 179 90 13 l 90 601 q 314 789 90 789 q 454 771 394 789 l 454 707 q 308 725 392 725 q 192 694 224 725 q 160 601 160 664 l 160 179 q 192 87 160 117 q 309 57 224 57 q 457 78 394 57 l 457 13 q 314 -7 388 -7 z "},"è":{"ha":607,"x_min":90,"x_max":524,"o":"m 90 193 l 90 582 q 144 737 90 678 q 307 796 197 796 q 470 737 417 796 q 524 582 524 678 l 524 350 l 160 350 l 160 193 q 344 58 160 58 q 499 82 419 58 l 499 14 q 344 -7 428 -7 q 90 193 90 -7 m 160 413 l 454 413 l 454 582 q 307 733 454 733 q 160 582 160 733 l 160 413 m 344 844 l 293 844 l 217 990 l 293 990 l 344 844 z "},"é":{"ha":607,"x_min":90,"x_max":524,"o":"m 90 193 l 90 582 q 144 737 90 678 q 307 796 197 796 q 470 737 417 796 q 524 582 524 678 l 524 350 l 160 350 l 160 193 q 344 58 160 58 q 499 82 419 58 l 499 14 q 344 -7 428 -7 q 90 193 90 -7 m 160 413 l 454 413 l 454 582 q 307 733 454 733 q 160 582 160 733 l 160 413 m 419 990 l 343 844 l 292 844 l 343 990 l 419 990 z "},"ê":{"ha":607,"x_min":90,"x_max":524,"o":"m 90 193 l 90 582 q 144 737 90 678 q 307 796 197 796 q 470 737 417 796 q 524 582 524 678 l 524 350 l 160 350 l 160 193 q 344 58 160 58 q 499 82 419 58 l 499 14 q 344 -7 428 -7 q 90 193 90 -7 m 160 413 l 454 413 l 454 582 q 307 733 454 733 q 160 582 160 733 l 160 413 m 318 939 l 269 844 l 219 844 l 286 990 l 350 990 l 417 844 l 367 844 l 318 939 z "},"ë":{"ha":607,"x_min":90,"x_max":524,"o":"m 90 193 l 90 582 q 144 737 90 678 q 307 796 197 796 q 470 737 417 796 q 524 582 524 678 l 524 350 l 160 350 l 160 193 q 344 58 160 58 q 499 82 419 58 l 499 14 q 344 -7 428 -7 q 90 193 90 -7 m 160 413 l 454 413 l 454 582 q 307 733 454 733 q 160 582 160 733 l 160 413 m 271 915 q 271 892 271 915 q 225 869 271 869 q 179 915 179 869 q 225 961 179 961 q 271 915 271 961 m 444 915 q 444 892 444 915 q 399 869 444 869 q 353 915 353 869 q 399 961 353 961 q 444 915 444 961 z "},"ì":{"ha":278,"x_min":38,"x_max":174,"o":"m 38 990 l 114 990 l 165 844 l 114 844 l 38 990 m 104 782 l 174 782 l 174 0 l 104 0 l 104 782 z "},"í":{"ha":278,"x_min":104,"x_max":242,"o":"m 165 990 l 242 990 l 165 844 l 114 844 l 165 990 m 104 782 l 174 782 l 174 0 l 104 0 l 104 782 z "},"î":{"ha":278,"x_min":42,"x_max":239,"o":"m 172 990 l 239 844 l 189 844 l 140 939 l 92 844 l 42 844 l 108 990 l 172 990 m 104 0 l 104 782 l 174 782 l 174 0 l 104 0 z "},"ï":{"ha":278,"x_min":7,"x_max":272,"o":"m 226 869 q 203 869 226 869 q 181 915 181 869 q 226 961 181 961 q 272 915 272 961 q 226 869 272 869 m 53 869 q 30 869 53 869 q 7 915 7 869 q 53 961 7 961 q 99 915 99 961 q 53 869 99 869 m 104 782 l 174 782 l 174 0 l 104 0 l 104 782 z "},"ð":{"ha":629,"x_min":97,"x_max":529,"o":"m 528 425 l 528 199 q 475 44 528 103 q 313 -14 422 -14 q 150 44 203 -14 q 97 199 97 103 l 97 396 q 150 550 97 492 q 313 608 203 608 q 440 569 392 608 q 356 775 417 668 l 204 694 l 204 757 l 325 821 q 238 925 283 883 l 333 925 q 389 854 360 899 l 529 929 l 529 868 l 418 808 q 528 425 528 617 m 458 199 l 458 490 q 313 546 406 546 q 167 396 167 546 l 167 199 q 313 49 167 49 q 458 199 458 49 z "},"ñ":{"ha":622,"x_min":104,"x_max":525,"o":"m 422 976 l 482 976 l 482 954 q 460 887 482 911 q 402 863 439 863 q 317 891 365 863 q 247 919 269 919 q 215 878 215 919 l 215 860 l 156 860 l 156 882 q 177 948 156 922 q 238 974 199 974 q 326 945 276 974 q 392 917 375 917 q 422 958 422 917 l 422 976 m 172 746 q 347 785 269 785 q 474 736 424 785 q 525 600 525 688 l 525 0 l 456 0 l 456 600 q 336 721 456 721 q 174 679 261 721 l 174 0 l 104 0 l 104 782 l 172 782 l 172 746 z "},"ò":{"ha":611,"x_min":90,"x_max":521,"o":"m 207 990 l 283 990 l 335 844 l 283 844 l 207 990 m 451 583 q 306 733 451 733 q 160 583 160 733 l 160 199 q 306 49 160 49 q 451 199 451 49 l 451 583 m 90 583 q 143 738 90 679 q 306 796 196 796 q 468 738 415 796 q 521 583 521 679 l 521 199 q 468 44 521 103 q 306 -14 415 -14 q 143 44 196 -14 q 90 199 90 103 l 90 583 z "},"ó":{"ha":611,"x_min":90,"x_max":521,"o":"m 451 583 q 306 733 451 733 q 160 583 160 733 l 160 199 q 306 49 160 49 q 451 199 451 49 l 451 583 m 90 583 q 143 738 90 679 q 306 796 196 796 q 468 738 415 796 q 521 583 521 679 l 521 199 q 468 44 521 103 q 306 -14 415 -14 q 143 44 196 -14 q 90 199 90 103 l 90 583 m 338 990 l 414 990 l 338 844 l 286 844 l 338 990 z "},"ô":{"ha":611,"x_min":90,"x_max":521,"o":"m 90 199 l 90 583 q 143 738 90 679 q 306 796 196 796 q 468 738 415 796 q 521 583 521 679 l 521 199 q 468 44 521 103 q 306 -14 415 -14 q 143 44 196 -14 q 90 199 90 103 m 451 199 l 451 583 q 306 733 451 733 q 160 583 160 733 l 160 199 q 306 49 160 49 q 451 199 451 49 m 311 939 l 263 844 l 213 844 l 279 990 l 343 990 l 410 844 l 360 844 l 311 939 z "},"õ":{"ha":611,"x_min":90,"x_max":521,"o":"m 417 976 l 476 976 l 476 954 q 455 887 476 911 q 397 863 433 863 q 312 891 360 863 q 242 919 264 919 q 210 878 210 919 l 210 860 l 150 860 l 150 882 q 172 948 150 922 q 232 974 193 974 q 320 945 271 974 q 386 917 369 917 q 417 958 417 917 l 417 976 m 451 583 q 306 733 451 733 q 160 583 160 733 l 160 199 q 306 49 160 49 q 451 199 451 49 l 451 583 m 90 583 q 143 738 90 679 q 306 796 196 796 q 468 738 415 796 q 521 583 521 679 l 521 199 q 468 44 521 103 q 306 -14 415 -14 q 143 44 196 -14 q 90 199 90 103 l 90 583 z "},"ö":{"ha":611,"x_min":90,"x_max":521,"o":"m 451 583 q 306 733 451 733 q 160 583 160 733 l 160 199 q 306 49 160 49 q 451 199 451 49 l 451 583 m 90 583 q 143 738 90 679 q 306 796 196 796 q 468 738 415 796 q 521 583 521 679 l 521 199 q 468 44 521 103 q 306 -14 415 -14 q 143 44 196 -14 q 90 199 90 103 l 90 583 m 403 869 q 380 869 403 869 q 357 915 357 869 q 403 961 357 961 q 449 915 449 961 q 403 869 449 869 m 229 869 q 206 869 229 869 q 183 915 183 869 q 229 961 183 961 q 275 915 275 961 q 229 869 275 869 z "},"÷":{"ha":585,"x_min":56,"x_max":529,"o":"m 297 636 q 274 636 297 636 q 251 682 251 636 q 297 728 251 728 q 343 682 343 728 q 297 636 343 636 m 297 160 q 274 160 297 160 q 251 206 251 160 q 297 251 251 251 q 343 206 343 251 q 297 160 343 160 m 56 474 l 529 474 l 529 418 l 56 418 l 56 474 z "},"ø":{"ha":611,"x_min":90,"x_max":521,"o":"m 521 583 l 521 199 q 468 44 521 103 q 306 -14 415 -14 q 174 19 226 -14 l 165 0 l 104 0 l 131 60 q 90 199 90 113 l 90 583 q 143 738 90 679 q 294 796 196 796 q 447 756 393 796 l 460 782 l 521 782 l 489 711 q 521 583 521 660 m 160 583 l 160 199 q 167 138 160 168 l 419 693 q 306 733 382 733 q 160 583 160 733 m 451 199 l 451 583 q 449 624 451 599 l 201 81 q 306 49 238 49 q 451 199 451 49 z "},"ù":{"ha":622,"x_min":97,"x_max":518,"o":"m 204 990 l 281 990 l 332 844 l 281 844 l 204 990 m 449 782 l 518 782 l 518 0 l 450 0 l 450 38 q 292 -4 386 -4 q 148 48 199 -4 q 97 197 97 100 l 97 782 l 167 782 l 167 197 q 299 57 167 57 q 376 69 339 57 q 449 107 414 82 l 449 782 z "},"ú":{"ha":622,"x_min":97,"x_max":518,"o":"m 449 782 l 518 782 l 518 0 l 450 0 l 450 38 q 292 -4 386 -4 q 148 48 199 -4 q 97 197 97 100 l 97 782 l 167 782 l 167 197 q 299 57 167 57 q 376 69 339 57 q 449 107 414 82 l 449 782 m 332 990 l 408 990 l 332 844 l 281 844 l 332 990 z "},"û":{"ha":622,"x_min":97,"x_max":518,"o":"m 449 782 l 518 782 l 518 0 l 450 0 l 450 38 q 292 -4 386 -4 q 148 48 199 -4 q 97 197 97 100 l 97 782 l 167 782 l 167 197 q 299 57 167 57 q 376 69 339 57 q 449 107 414 82 l 449 782 m 310 939 l 261 844 l 211 844 l 278 990 l 342 990 l 408 844 l 358 844 l 310 939 z "},"ü":{"ha":622,"x_min":97,"x_max":518,"o":"m 449 782 l 518 782 l 518 0 l 450 0 l 450 38 q 292 -4 386 -4 q 148 48 199 -4 q 97 197 97 100 l 97 782 l 167 782 l 167 197 q 299 57 167 57 q 376 69 339 57 q 449 107 414 82 l 449 782 m 399 869 q 376 869 399 869 q 353 915 353 869 q 399 961 353 961 q 444 915 444 961 q 399 869 444 869 m 225 869 q 202 869 225 869 q 179 915 179 869 q 225 961 179 961 q 271 915 271 961 q 225 869 271 869 z "},"ý":{"ha":517,"x_min":28,"x_max":489,"o":"m 283 990 l 360 990 l 283 844 l 232 844 l 283 990 m 417 782 l 489 782 l 267 -207 l 200 -207 l 244 0 l 203 0 l 28 782 l 100 782 l 193 353 l 257 44 q 417 782 292 217 z "},"þ":{"ha":629,"x_min":104,"x_max":525,"o":"m 456 600 q 336 721 456 721 q 174 679 261 721 l 174 63 l 307 63 q 456 208 456 63 l 456 600 m 104 990 l 172 990 l 172 746 q 347 785 269 785 q 474 736 424 785 q 525 600 525 688 l 525 208 q 469 56 525 113 q 322 0 414 0 l 174 0 l 174 -249 l 104 -249 l 104 990 z "},"ÿ":{"ha":517,"x_min":28,"x_max":489,"o":"m 417 782 l 489 782 l 267 -207 l 200 -207 l 244 0 l 203 0 l 28 782 l 100 782 l 193 353 l 257 44 q 417 782 292 217 m 342 869 q 319 869 342 869 q 296 915 296 869 q 342 961 296 961 q 388 915 388 961 q 342 869 388 869 m 168 869 q 145 869 168 869 q 122 915 122 869 q 168 961 122 961 q 214 915 214 961 q 168 869 214 869 z "},"Ā":{"ha":589,"x_min":28,"x_max":561,"o":"m 489 0 l 426 271 l 163 271 l 100 0 l 28 0 l 244 925 l 344 925 l 561 0 l 489 0 m 176 333 l 413 333 l 294 846 l 176 333 m 438 1083 l 438 1029 l 146 1029 l 146 1083 l 438 1083 z "},"ā":{"ha":586,"x_min":49,"x_max":489,"o":"m 136 944 l 428 944 l 428 890 l 136 890 l 136 944 m 117 222 l 117 179 q 147 85 117 115 q 247 56 176 56 q 421 119 349 56 l 421 403 l 238 351 q 143 301 169 331 q 117 222 117 272 m 261 789 q 489 600 489 789 l 489 0 l 421 0 l 421 56 q 375 24 394 35 q 243 -6 326 -6 q 49 181 49 -6 l 49 225 q 215 410 49 363 l 421 468 l 421 600 q 387 692 421 663 q 258 722 353 722 q 85 694 163 722 l 85 764 q 261 789 163 789 z "},"Ă":{"ha":589,"x_min":28,"x_max":561,"o":"m 489 0 l 426 271 l 163 271 l 100 0 l 28 0 l 244 925 l 344 925 l 561 0 l 489 0 m 176 333 l 413 333 l 294 846 l 176 333 m 402 1024 q 383 1004 402 1024 q 294 983 364 983 q 187 1024 225 983 q 146 1129 149 1065 l 206 1129 q 230 1063 207 1088 q 294 1039 253 1039 q 359 1063 336 1039 q 383 1129 382 1088 l 443 1129 q 402 1024 440 1065 z "},"ă":{"ha":586,"x_min":49,"x_max":489,"o":"m 402 885 q 383 865 402 885 q 294 844 364 844 q 187 885 225 844 q 146 990 149 926 l 206 990 q 230 924 207 949 q 294 900 253 900 q 359 924 336 900 q 383 990 382 949 l 443 990 q 402 885 440 926 m 117 222 l 117 179 q 147 85 117 115 q 247 56 176 56 q 421 119 349 56 l 421 403 l 238 351 q 143 301 169 331 q 117 222 117 272 m 261 789 q 489 600 489 789 l 489 0 l 421 0 l 421 56 q 375 24 394 35 q 243 -6 326 -6 q 49 181 49 -6 l 49 225 q 215 410 49 363 l 421 468 l 421 600 q 387 692 421 663 q 258 722 353 722 q 85 694 163 722 l 85 764 q 261 789 163 789 z "},"Ą":{"ha":589,"x_min":28,"x_max":561,"o":"m 488 -128 q 542 -178 488 -178 l 558 -178 l 558 -236 l 542 -236 q 433 -146 433 -236 q 514 0 433 -61 l 489 0 l 426 271 l 163 271 l 100 0 l 28 0 l 244 925 l 344 925 l 561 0 l 558 0 q 488 -128 488 -53 m 176 333 l 413 333 l 294 846 l 176 333 z "},"ą":{"ha":586,"x_min":49,"x_max":489,"o":"m 261 789 q 489 600 489 789 l 489 0 l 488 0 q 417 -128 417 -53 q 471 -178 417 -178 l 488 -178 l 488 -236 l 471 -236 q 363 -146 363 -236 q 443 0 363 -61 l 421 0 l 421 56 q 375 24 394 35 q 243 -6 326 -6 q 49 181 49 -6 l 49 225 q 215 410 49 363 l 421 468 l 421 600 q 387 692 421 663 q 258 722 353 722 q 85 694 163 722 l 85 764 q 261 789 163 789 m 117 222 l 117 179 q 147 85 117 115 q 247 56 176 56 q 421 119 349 56 l 421 403 l 238 351 q 143 301 169 331 q 117 222 117 272 z "},"Ć":{"ha":540,"x_min":90,"x_max":485,"o":"m 90 744 q 325 932 90 932 q 482 910 404 932 l 482 844 q 318 868 403 868 q 197 837 233 868 q 160 744 160 806 l 160 181 q 197 88 160 119 q 319 57 233 57 q 485 81 406 57 l 485 15 q 325 -7 415 -7 q 90 181 90 -7 l 90 744 m 331 1129 l 407 1129 l 331 983 l 279 983 l 331 1129 z "},"ć":{"ha":513,"x_min":90,"x_max":457,"o":"m 90 601 q 314 789 90 789 q 454 771 394 789 l 454 707 q 308 725 392 725 q 192 694 224 725 q 160 601 160 664 l 160 179 q 192 87 160 117 q 309 57 224 57 q 457 78 394 57 l 457 13 q 314 -7 388 -7 q 90 179 90 -7 l 90 601 m 338 990 l 414 990 l 338 844 l 286 844 l 338 990 z "},"Č":{"ha":540,"x_min":90,"x_max":485,"o":"m 160 744 l 160 181 q 197 88 160 119 q 319 57 233 57 q 485 81 406 57 l 485 15 q 325 -7 415 -7 q 90 181 90 -7 l 90 744 q 325 932 90 932 q 482 910 404 932 l 482 844 q 318 868 403 868 q 197 837 233 868 q 160 744 160 806 m 276 983 l 210 1129 l 260 1129 l 308 1035 l 357 1129 l 407 1129 l 340 983 l 276 983 z "},"č":{"ha":513,"x_min":90,"x_max":457,"o":"m 160 601 l 160 179 q 192 87 160 117 q 309 57 224 57 q 457 78 394 57 l 457 13 q 314 -7 388 -7 q 90 179 90 -7 l 90 601 q 314 789 90 789 q 454 771 394 789 l 454 707 q 308 725 392 725 q 192 694 224 725 q 160 601 160 664 m 271 844 l 204 990 l 254 990 l 303 896 l 351 990 l 401 990 l 335 844 l 271 844 z "},"Ď":{"ha":636,"x_min":104,"x_max":546,"o":"m 104 925 l 325 925 q 490 868 435 925 q 546 717 546 811 l 546 208 q 490 57 546 114 q 325 0 435 0 l 104 0 l 104 925 m 476 208 l 476 717 q 325 863 476 863 l 174 863 l 174 63 l 325 63 q 476 208 476 63 m 278 983 l 211 1129 l 261 1129 l 310 1035 l 358 1129 l 408 1129 l 342 983 l 278 983 z "},"ď":{"ha":615,"x_min":90,"x_max":672,"o":"m 638 988 q 672 956 672 988 q 611 831 672 925 l 568 831 l 606 988 l 638 988 m 442 718 l 310 718 q 160 585 160 718 l 160 196 q 292 58 160 58 q 442 114 386 58 l 442 718 m 442 990 l 511 990 l 511 0 l 443 0 l 443 43 q 287 -4 382 -4 q 141 48 192 -4 q 90 197 90 100 l 90 585 q 147 731 90 679 q 293 782 204 782 l 442 782 l 442 990 z "},"Đ":{"ha":636,"x_min":21,"x_max":546,"o":"m 104 925 l 325 925 q 490 868 435 925 q 546 717 546 811 l 546 208 q 490 57 546 114 q 325 0 435 0 l 104 0 l 104 432 l 21 432 l 21 494 l 104 494 l 104 925 m 476 208 l 476 717 q 325 863 476 863 l 174 863 l 174 494 l 331 494 l 331 432 l 174 432 l 174 63 l 325 63 q 476 208 476 63 z "},"đ":{"ha":615,"x_min":90,"x_max":567,"o":"m 567 925 l 567 868 l 511 868 l 511 0 l 443 0 l 443 43 q 287 -4 382 -4 q 141 48 192 -4 q 90 197 90 100 l 90 585 q 147 731 90 679 q 293 782 204 782 l 442 782 l 442 868 l 271 868 l 271 925 l 442 925 l 442 990 l 511 990 l 511 925 l 567 925 m 442 718 l 310 718 q 160 585 160 718 l 160 196 q 292 58 160 58 q 442 114 386 58 l 442 718 z "},"Ē":{"ha":543,"x_min":104,"x_max":488,"o":"m 153 1083 l 444 1083 l 444 1029 l 153 1029 l 153 1083 m 104 925 l 488 925 l 488 863 l 174 863 l 174 497 l 447 497 l 447 435 l 174 435 l 174 63 l 488 63 l 488 0 l 104 0 l 104 925 z "},"ē":{"ha":607,"x_min":90,"x_max":524,"o":"m 90 193 l 90 582 q 144 737 90 678 q 307 796 197 796 q 470 737 417 796 q 524 582 524 678 l 524 350 l 160 350 l 160 193 q 344 58 160 58 q 499 82 419 58 l 499 14 q 344 -7 428 -7 q 90 193 90 -7 m 160 413 l 454 413 l 454 582 q 307 733 454 733 q 160 582 160 733 l 160 413 m 454 944 l 454 890 l 163 890 l 163 944 l 454 944 z "},"Ė":{"ha":543,"x_min":104,"x_max":488,"o":"m 304 1049 q 281 1049 304 1049 q 258 1094 258 1049 q 304 1140 258 1140 q 350 1094 350 1140 q 304 1049 350 1049 m 104 925 l 488 925 l 488 863 l 174 863 l 174 497 l 447 497 l 447 435 l 174 435 l 174 63 l 488 63 l 488 0 l 104 0 l 104 925 z "},"ė":{"ha":607,"x_min":90,"x_max":524,"o":"m 90 193 l 90 582 q 144 737 90 678 q 307 796 197 796 q 470 737 417 796 q 524 582 524 678 l 524 350 l 160 350 l 160 193 q 344 58 160 58 q 499 82 419 58 l 499 14 q 344 -7 428 -7 q 90 193 90 -7 m 160 413 l 454 413 l 454 582 q 307 733 454 733 q 160 582 160 733 l 160 413 m 357 956 q 357 933 357 956 q 311 910 357 910 q 265 956 265 910 q 311 1001 265 1001 q 357 956 357 1001 z "},"Ę":{"ha":543,"x_min":104,"x_max":488,"o":"m 488 863 l 174 863 l 174 497 l 447 497 l 447 435 l 174 435 l 174 63 l 488 63 l 488 0 l 486 0 q 415 -128 415 -53 q 469 -178 415 -178 l 486 -178 l 486 -236 l 469 -236 q 361 -146 361 -236 q 442 0 361 -61 l 104 0 l 104 925 l 488 925 l 488 863 z "},"ę":{"ha":607,"x_min":90,"x_max":524,"o":"m 90 193 l 90 582 q 144 737 90 678 q 307 796 197 796 q 470 737 417 796 q 524 582 524 678 l 524 350 l 160 350 l 160 193 q 344 58 160 58 q 499 82 419 58 l 499 14 q 428 -114 428 -39 q 482 -164 428 -164 l 499 -164 l 499 -222 l 482 -222 q 374 -132 374 -222 q 438 0 374 -60 q 344 -7 393 -7 q 90 193 90 -7 m 160 413 l 454 413 l 454 582 q 307 733 454 733 q 160 582 160 733 l 160 413 z "},"Ě":{"ha":543,"x_min":104,"x_max":488,"o":"m 488 863 l 174 863 l 174 497 l 447 497 l 447 435 l 174 435 l 174 63 l 488 63 l 488 0 l 104 0 l 104 925 l 488 925 l 488 863 m 268 983 l 201 1129 l 251 1129 l 300 1035 l 349 1129 l 399 1129 l 332 983 l 268 983 z "},"ě":{"ha":607,"x_min":90,"x_max":524,"o":"m 90 193 l 90 582 q 144 737 90 678 q 307 796 197 796 q 470 737 417 796 q 524 582 524 678 l 524 350 l 160 350 l 160 193 q 344 58 160 58 q 499 82 419 58 l 499 14 q 344 -7 428 -7 q 90 193 90 -7 m 160 413 l 454 413 l 454 582 q 307 733 454 733 q 160 582 160 733 l 160 413 m 281 844 l 214 990 l 264 990 l 313 896 l 361 990 l 411 990 l 344 844 l 281 844 z "},"Ğ":{"ha":615,"x_min":90,"x_max":518,"o":"m 417 1024 q 398 1004 417 1024 q 310 983 379 983 q 202 1024 240 983 q 161 1129 164 1065 l 221 1129 q 245 1063 222 1088 q 310 1039 268 1039 q 374 1063 351 1039 q 399 1129 397 1088 l 458 1129 q 417 1024 456 1065 m 90 736 q 332 932 90 932 q 493 910 415 932 l 493 842 q 325 868 411 868 q 160 736 160 868 l 160 181 q 303 56 160 56 q 449 89 401 56 l 449 443 l 518 443 l 518 47 q 317 -7 426 -7 q 149 38 208 -7 q 90 181 90 82 l 90 736 z "},"ğ":{"ha":617,"x_min":63,"x_max":582,"o":"m 582 761 l 536 761 q 465 735 494 761 q 513 597 513 683 l 513 489 q 457 343 513 396 q 290 290 401 290 q 200 206 200 290 q 223 151 200 168 q 300 133 246 133 l 382 133 q 568 -25 568 133 l 568 -39 q 326 -207 568 -207 l 269 -207 q 63 -168 138 -207 l 63 -99 q 269 -144 147 -144 l 325 -144 q 499 -40 499 -144 l 499 -25 q 476 47 499 24 q 383 71 453 71 l 300 71 q 179 101 222 71 q 136 189 136 132 l 136 211 q 156 269 136 246 q 206 300 175 292 q 68 489 68 336 l 68 597 q 124 743 68 690 q 281 796 179 796 q 442 756 383 796 q 561 832 467 832 l 582 832 l 582 761 m 443 489 l 443 597 q 407 699 443 665 q 290 733 371 733 q 174 699 210 733 q 138 597 138 665 l 138 489 q 174 387 138 421 q 290 353 210 353 q 407 387 371 353 q 443 489 443 421 m 403 885 q 384 865 403 885 q 296 844 365 844 q 188 885 226 844 q 147 990 150 926 l 207 990 q 231 924 208 949 q 296 900 254 900 q 360 924 338 900 q 385 990 383 949 l 444 990 q 403 885 442 926 z "},"Ģ":{"ha":615,"x_min":90,"x_max":518,"o":"m 326 -85 q 361 -116 361 -85 q 300 -242 361 -147 l 257 -242 l 294 -85 l 326 -85 m 90 736 q 332 932 90 932 q 493 910 415 932 l 493 842 q 325 868 411 868 q 160 736 160 868 l 160 181 q 303 56 160 56 q 449 89 401 56 l 449 443 l 518 443 l 518 47 q 317 -7 426 -7 q 149 38 208 -7 q 90 181 90 82 l 90 736 z "},"ģ":{"ha":617,"x_min":63,"x_max":582,"o":"m 582 761 l 536 761 q 465 735 494 761 q 513 597 513 683 l 513 489 q 457 343 513 396 q 290 290 401 290 q 200 206 200 290 q 223 151 200 168 q 300 133 246 133 l 382 133 q 568 -25 568 133 l 568 -39 q 326 -207 568 -207 l 269 -207 q 63 -168 138 -207 l 63 -99 q 269 -144 147 -144 l 325 -144 q 499 -40 499 -144 l 499 -25 q 476 47 499 24 q 383 71 453 71 l 300 71 q 179 101 222 71 q 136 189 136 132 l 136 211 q 156 269 136 246 q 206 300 175 292 q 68 489 68 336 l 68 597 q 124 743 68 690 q 281 796 179 796 q 442 756 383 796 q 561 832 467 832 l 582 832 l 582 761 m 443 489 l 443 597 q 407 699 443 665 q 290 733 371 733 q 174 699 210 733 q 138 597 138 665 l 138 489 q 174 387 138 421 q 290 353 210 353 q 407 387 371 353 q 443 489 443 421 m 292 844 q 257 876 257 844 q 318 1001 257 907 l 361 1001 l 324 844 l 292 844 z "},"Ī":{"ha":278,"x_min":-6,"x_max":286,"o":"m -6 1083 l 286 1083 l 286 1029 l -6 1029 l -6 1083 m 104 925 l 174 925 l 174 0 l 104 0 l 104 925 z "},"ī":{"ha":278,"x_min":-7,"x_max":285,"o":"m -7 944 l 285 944 l 285 890 l -7 890 l -7 944 m 104 782 l 174 782 l 174 0 l 104 0 l 104 782 z "},"Į":{"ha":278,"x_min":49,"x_max":174,"o":"m 174 925 l 174 0 q 103 -128 103 -53 q 157 -178 103 -178 l 174 -178 l 174 -236 l 157 -236 q 49 -146 49 -236 q 129 0 49 -61 l 104 0 l 104 925 l 174 925 z "},"į":{"ha":278,"x_min":49,"x_max":185,"o":"m 104 0 l 104 782 l 174 782 l 174 0 q 103 -128 103 -53 q 157 -178 103 -178 l 174 -178 l 174 -236 l 157 -236 q 49 -146 49 -236 q 129 0 49 -61 l 104 0 m 185 940 q 185 915 185 940 q 139 889 185 889 q 93 940 93 889 q 139 992 93 992 q 185 940 185 992 z "},"İ":{"ha":278,"x_min":90,"x_max":182,"o":"m 136 1049 q 113 1049 136 1049 q 90 1094 90 1049 q 136 1140 90 1140 q 182 1094 182 1140 q 136 1049 182 1049 m 104 925 l 174 925 l 174 0 l 104 0 l 104 925 z "},"ı":{"ha":278,"x_min":104,"x_max":174,"o":"m 104 782 l 174 782 l 174 0 l 104 0 l 104 782 z "},"Ķ":{"ha":582,"x_min":104,"x_max":554,"o":"m 314 -85 q 349 -116 349 -85 q 288 -242 349 -147 l 244 -242 l 282 -85 l 314 -85 m 104 925 l 174 925 l 174 0 l 104 0 l 104 925 m 468 925 l 544 925 l 343 461 l 554 0 l 476 0 l 267 458 l 468 925 z "},"ķ":{"ha":547,"x_min":104,"x_max":519,"o":"m 293 -85 q 328 -116 328 -85 q 267 -242 328 -147 l 224 -242 l 261 -85 l 293 -85 m 104 990 l 174 990 l 174 0 l 104 0 l 104 990 m 431 782 l 508 782 l 319 404 l 519 0 l 440 0 l 240 401 l 431 782 z "},"Ĺ":{"ha":471,"x_min":104,"x_max":464,"o":"m 104 925 l 174 925 l 174 63 l 464 63 l 464 0 l 104 0 l 104 925 m 161 1129 l 238 1129 l 161 983 l 110 983 l 161 1129 z "},"ĺ":{"ha":278,"x_min":104,"x_max":238,"o":"m 104 990 l 174 990 l 174 0 l 104 0 l 104 990 m 161 1199 l 238 1199 l 161 1053 l 110 1053 l 161 1199 z "},"Ļ":{"ha":471,"x_min":104,"x_max":464,"o":"m 286 -85 q 321 -116 321 -85 q 260 -242 321 -147 l 217 -242 l 254 -85 l 286 -85 m 104 925 l 174 925 l 174 63 l 464 63 l 464 0 l 104 0 l 104 925 z "},"ļ":{"ha":278,"x_min":72,"x_max":176,"o":"m 142 -85 q 176 -116 176 -85 q 115 -242 176 -147 l 72 -242 l 110 -85 l 142 -85 m 104 990 l 174 990 l 174 0 l 104 0 l 104 990 z "},"Ľ":{"ha":471,"x_min":42,"x_max":464,"o":"m 174 63 l 464 63 l 464 0 l 104 0 l 104 925 l 174 925 l 174 63 m 108 983 l 42 1129 l 92 1129 l 140 1035 l 189 1129 l 239 1129 l 172 983 l 108 983 z "},"ľ":{"ha":278,"x_min":104,"x_max":336,"o":"m 301 988 q 336 956 336 988 q 275 831 336 925 l 232 831 l 269 988 l 301 988 m 104 990 l 174 990 l 174 0 l 104 0 l 104 990 z "},"Ł":{"ha":471,"x_min":28,"x_max":464,"o":"m 174 63 l 464 63 l 464 0 l 104 0 l 104 394 l 28 351 l 28 414 l 104 457 l 104 925 l 174 925 l 174 494 l 313 572 l 313 510 l 174 432 l 174 63 z "},"ł":{"ha":278,"x_min":24,"x_max":254,"o":"m 174 0 l 104 0 l 104 628 l 24 578 l 24 640 l 104 690 l 104 990 l 174 990 l 174 735 l 254 785 l 254 722 l 174 672 l 174 0 z "},"Ń":{"ha":682,"x_min":104,"x_max":578,"o":"m 511 117 l 508 397 l 508 925 l 578 925 l 578 0 l 486 0 q 169 806 221 672 q 172 525 169 806 l 172 0 l 104 0 l 104 925 l 194 925 q 511 117 494 161 m 374 1129 l 450 1129 l 374 983 l 322 983 l 374 1129 z "},"ń":{"ha":622,"x_min":104,"x_max":525,"o":"m 172 746 q 347 785 269 785 q 474 736 424 785 q 525 600 525 688 l 525 0 l 456 0 l 456 600 q 336 721 456 721 q 174 679 261 721 l 174 0 l 104 0 l 104 782 l 172 782 l 172 746 m 343 990 l 419 990 l 343 844 l 292 844 l 343 990 z "},"Ņ":{"ha":682,"x_min":104,"x_max":578,"o":"m 325 -85 q 360 -116 360 -85 q 299 -242 360 -147 l 256 -242 l 293 -85 l 325 -85 m 511 117 l 508 397 l 508 925 l 578 925 l 578 0 l 486 0 q 169 806 221 672 l 172 525 l 172 0 l 104 0 l 104 925 l 194 925 q 511 117 494 161 z "},"ņ":{"ha":622,"x_min":104,"x_max":525,"o":"m 303 -85 q 338 -116 338 -85 q 276 -242 338 -147 l 233 -242 l 271 -85 l 303 -85 m 172 746 q 347 785 269 785 q 474 736 424 785 q 525 600 525 688 l 525 0 l 456 0 l 456 600 q 336 721 456 721 q 174 679 261 721 l 174 0 l 104 0 l 104 782 l 172 782 l 172 746 z "},"Ň":{"ha":682,"x_min":104,"x_max":578,"o":"m 511 117 l 508 397 l 508 925 l 578 925 l 578 0 l 486 0 q 169 806 221 672 q 172 525 169 806 l 172 0 l 104 0 l 104 925 l 194 925 q 511 117 494 161 m 314 983 l 247 1129 l 297 1129 l 346 1035 l 394 1129 l 444 1129 l 378 983 l 314 983 z "},"ň":{"ha":622,"x_min":104,"x_max":525,"o":"m 172 782 l 172 746 q 347 785 269 785 q 474 736 424 785 q 525 600 525 688 l 525 0 l 456 0 l 456 600 q 336 721 456 721 q 174 679 261 721 l 174 0 l 104 0 l 104 782 l 172 782 m 278 844 l 211 990 l 261 990 l 310 896 l 358 990 l 408 990 l 342 844 l 278 844 z "},"Ō":{"ha":622,"x_min":90,"x_max":532,"o":"m 463 726 q 311 876 463 876 q 160 726 160 876 l 160 199 q 311 49 160 49 q 463 199 463 49 l 463 726 m 90 726 q 146 880 90 821 q 311 939 201 939 q 476 880 421 939 q 532 726 532 821 l 532 199 q 476 45 532 104 q 311 -14 421 -14 q 146 45 201 -14 q 90 199 90 104 l 90 726 m 167 1083 l 458 1083 l 458 1029 l 167 1029 l 167 1083 z "},"ō":{"ha":611,"x_min":90,"x_max":521,"o":"m 451 583 q 306 733 451 733 q 160 583 160 733 l 160 199 q 306 49 160 49 q 451 199 451 49 l 451 583 m 90 583 q 143 738 90 679 q 306 796 196 796 q 468 738 415 796 q 521 583 521 679 l 521 199 q 468 44 521 103 q 306 -14 415 -14 q 143 44 196 -14 q 90 199 90 103 l 90 583 m 158 944 l 450 944 l 450 890 l 158 890 l 158 944 z "},"Ő":{"ha":622,"x_min":90,"x_max":532,"o":"m 463 726 q 311 876 463 876 q 160 726 160 876 l 160 199 q 311 49 160 49 q 463 199 463 49 l 463 726 m 90 726 q 146 880 90 821 q 311 939 201 939 q 476 880 421 939 q 532 726 532 821 l 532 199 q 476 45 532 104 q 311 -14 421 -14 q 146 45 201 -14 q 90 199 90 104 l 90 726 m 283 1129 l 357 1129 l 281 983 l 232 983 l 283 1129 m 390 1129 l 464 1129 l 388 983 l 339 983 l 390 1129 z "},"ő":{"ha":611,"x_min":90,"x_max":521,"o":"m 451 583 q 306 733 451 733 q 160 583 160 733 l 160 199 q 306 49 160 49 q 451 199 451 49 l 451 583 m 90 583 q 143 738 90 679 q 306 796 196 796 q 468 738 415 796 q 521 583 521 679 l 521 199 q 468 44 521 103 q 306 -14 415 -14 q 143 44 196 -14 q 90 199 90 103 l 90 583 m 286 990 l 360 990 l 283 844 l 235 844 l 286 990 m 393 990 l 467 990 l 390 844 l 342 844 l 393 990 z "},"Œ":{"ha":915,"x_min":118,"x_max":874,"o":"m 874 863 l 560 863 l 560 497 l 833 497 l 833 435 l 560 435 l 560 63 l 874 63 l 874 0 l 339 0 q 174 57 229 0 q 118 208 118 114 l 118 717 q 174 868 118 811 q 339 925 229 925 l 874 925 l 874 863 m 339 63 l 490 63 l 490 863 l 339 863 q 188 717 188 863 l 188 208 q 339 63 188 63 z "},"œ":{"ha":986,"x_min":104,"x_max":899,"o":"m 104 199 l 104 583 q 157 738 104 679 q 328 796 210 796 q 500 714 447 796 q 674 796 557 796 q 845 737 792 796 q 899 582 899 678 l 899 350 l 535 350 l 535 193 q 719 58 535 58 q 874 82 794 58 l 874 14 q 719 -7 803 -7 q 501 69 563 -7 q 328 -14 447 -14 q 157 44 210 -14 q 104 199 104 103 m 465 199 l 465 583 q 319 733 465 733 q 174 583 174 733 l 174 199 q 319 49 174 49 q 465 199 465 49 m 535 413 l 829 413 l 829 582 q 682 733 829 733 q 535 582 535 733 l 535 413 z "},"Ŕ":{"ha":625,"x_min":104,"x_max":556,"o":"m 308 382 l 174 382 l 174 0 l 104 0 l 104 925 l 308 925 q 474 868 418 925 q 529 717 529 811 l 529 590 q 410 399 529 443 l 556 0 l 479 0 l 342 383 q 308 382 331 382 m 174 447 l 308 447 q 460 590 460 447 l 460 717 q 308 863 460 863 l 174 863 l 174 447 m 418 1129 l 342 983 l 290 983 l 342 1129 l 418 1129 z "},"ŕ":{"ha":378,"x_min":104,"x_max":371,"o":"m 333 786 l 371 786 l 371 718 l 321 718 q 258 705 279 718 q 231 688 238 692 q 204 668 224 683 q 174 646 185 653 l 174 0 l 104 0 l 104 782 l 172 782 l 172 721 q 206 745 194 736 q 230 762 217 754 q 251 772 243 769 q 274 779 260 775 q 333 786 297 786 m 261 990 l 338 990 l 261 844 l 210 844 l 261 990 z "},"Ŗ":{"ha":625,"x_min":104,"x_max":556,"o":"m 308 382 l 174 382 l 174 0 l 104 0 l 104 925 l 308 925 q 474 868 418 925 q 529 717 529 811 l 529 590 q 410 399 529 443 l 556 0 l 479 0 l 342 383 q 308 382 331 382 m 174 447 l 308 447 q 460 590 460 447 l 460 717 q 308 863 460 863 l 174 863 l 174 447 m 310 -85 q 344 -116 344 -85 q 283 -242 344 -147 l 240 -242 l 278 -85 l 310 -85 z "},"ŗ":{"ha":378,"x_min":72,"x_max":371,"o":"m 142 -85 q 176 -116 176 -85 q 115 -242 176 -147 l 72 -242 l 110 -85 l 142 -85 m 333 786 l 371 786 l 371 718 l 321 718 q 258 705 279 718 q 231 688 238 692 q 204 668 224 683 q 174 646 185 653 l 174 0 l 104 0 l 104 782 l 172 782 l 172 721 q 206 745 194 736 q 230 762 217 754 q 251 772 243 769 q 274 779 260 775 q 333 786 297 786 z "},"Ř":{"ha":625,"x_min":104,"x_max":556,"o":"m 308 382 l 174 382 l 174 0 l 104 0 l 104 925 l 308 925 q 474 868 418 925 q 529 717 529 811 l 529 590 q 410 399 529 443 l 556 0 l 479 0 l 342 383 q 308 382 331 382 m 174 447 l 308 447 q 460 590 460 447 l 460 717 q 308 863 460 863 l 174 863 l 174 447 m 278 983 l 211 1129 l 261 1129 l 310 1035 l 358 1129 l 408 1129 l 342 983 l 278 983 z "},"ř":{"ha":378,"x_min":104,"x_max":371,"o":"m 333 786 l 371 786 l 371 718 l 321 718 q 258 705 279 718 q 231 688 238 692 q 204 668 224 683 q 174 646 185 653 l 174 0 l 104 0 l 104 782 l 172 782 l 172 721 q 206 745 194 736 q 230 762 217 754 q 251 772 243 769 q 274 779 260 775 q 333 786 297 786 m 208 844 l 142 990 l 192 990 l 240 896 l 289 990 l 339 990 l 272 844 l 208 844 z "},"Ś":{"ha":519,"x_min":42,"x_max":471,"o":"m 42 746 q 99 883 42 833 q 262 932 157 932 q 439 911 367 932 l 439 844 q 267 868 372 868 q 111 749 111 868 l 111 669 q 196 532 111 578 l 358 442 q 471 258 471 381 l 471 186 q 410 44 471 94 q 235 -7 350 -7 q 47 19 121 -7 l 47 86 q 226 57 129 57 q 401 186 401 57 l 401 254 q 384 332 401 303 q 321 386 367 361 l 158 475 q 42 665 42 539 l 42 746 m 285 1129 l 361 1129 l 285 983 l 233 983 l 285 1129 z "},"ś":{"ha":492,"x_min":42,"x_max":450,"o":"m 42 604 q 94 743 42 697 q 265 789 146 789 q 415 765 342 789 l 415 699 q 257 725 340 725 q 142 697 174 725 q 111 604 111 669 l 111 563 q 131 483 111 510 q 200 436 150 457 l 321 382 q 450 215 450 324 l 450 178 q 211 -7 450 -7 q 49 17 122 -7 l 49 83 q 214 57 124 57 q 342 87 304 57 q 381 178 381 117 l 381 210 q 362 276 381 253 q 289 324 343 300 l 163 379 q 42 554 42 431 l 42 604 m 278 990 l 354 990 l 278 844 l 226 844 l 278 990 z "},"Ş":{"ha":519,"x_min":42,"x_max":471,"o":"m 244 -85 q 279 -116 279 -85 q 218 -242 279 -147 l 175 -242 l 213 -85 l 244 -85 m 42 746 q 99 883 42 833 q 262 932 157 932 q 439 911 367 932 l 439 844 q 267 868 372 868 q 111 749 111 868 l 111 669 q 196 532 111 578 l 358 442 q 471 258 471 381 l 471 186 q 410 44 471 94 q 235 -7 350 -7 q 47 19 121 -7 l 47 86 q 226 57 129 57 q 401 186 401 57 l 401 254 q 384 332 401 303 q 321 386 367 361 l 158 475 q 42 665 42 539 l 42 746 z "},"ş":{"ha":492,"x_min":42,"x_max":450,"o":"m 239 -85 q 274 -116 274 -85 q 213 -242 274 -147 l 169 -242 l 207 -85 l 239 -85 m 42 604 q 94 743 42 697 q 265 789 146 789 q 415 765 342 789 l 415 699 q 257 725 340 725 q 142 697 174 725 q 111 604 111 669 l 111 563 q 131 483 111 510 q 200 436 150 457 l 321 382 q 450 215 450 324 l 450 178 q 211 -7 450 -7 q 49 17 122 -7 l 49 83 q 214 57 124 57 q 342 87 304 57 q 381 178 381 117 l 381 210 q 362 276 381 253 q 289 324 343 300 l 163 379 q 42 554 42 431 l 42 604 z "},"Š":{"ha":519,"x_min":42,"x_max":471,"o":"m 471 258 l 471 186 q 410 44 471 94 q 235 -7 350 -7 q 47 19 121 -7 l 47 86 q 226 57 129 57 q 401 186 401 57 l 401 254 q 384 332 401 303 q 321 386 367 361 l 158 475 q 42 665 42 539 l 42 746 q 99 883 42 833 q 262 932 157 932 q 439 911 367 932 l 439 844 q 267 868 372 868 q 111 749 111 868 l 111 669 q 196 532 111 578 l 358 442 q 471 258 471 381 m 239 983 l 172 1129 l 222 1129 l 271 1035 l 319 1129 l 369 1129 l 303 983 l 239 983 z "},"š":{"ha":492,"x_min":42,"x_max":450,"o":"m 450 215 l 450 178 q 211 -7 450 -7 q 49 17 122 -7 l 49 83 q 214 57 124 57 q 342 87 304 57 q 381 178 381 117 l 381 210 q 362 276 381 253 q 289 324 343 300 l 163 379 q 42 554 42 431 l 42 604 q 94 743 42 697 q 265 789 146 789 q 415 765 342 789 l 415 699 q 257 725 340 725 q 142 697 174 725 q 111 604 111 669 l 111 563 q 131 483 111 510 q 200 436 150 457 l 321 382 q 450 215 450 324 m 213 844 l 146 990 l 196 990 l 244 896 l 293 990 l 343 990 l 276 844 l 213 844 z "},"Ţ":{"ha":464,"x_min":14,"x_max":450,"o":"m 450 925 l 450 863 l 267 863 l 267 0 l 197 0 l 197 863 l 14 863 l 14 925 l 450 925 m 236 -85 q 271 -116 271 -85 q 210 -242 271 -147 l 167 -242 l 204 -85 l 236 -85 z "},"ţ":{"ha":393,"x_min":7,"x_max":372,"o":"m 239 -85 q 274 -116 274 -85 q 213 -242 274 -147 l 169 -242 l 207 -85 l 239 -85 m 167 926 l 167 782 l 357 782 l 357 719 l 167 719 l 167 161 q 193 82 167 106 q 276 58 219 58 q 372 72 333 58 l 372 8 q 259 -4 331 -4 q 142 38 188 -4 q 97 161 97 81 l 97 719 l 7 719 l 7 782 l 99 782 l 118 926 l 167 926 z "},"Ť":{"ha":464,"x_min":14,"x_max":450,"o":"m 450 925 l 450 863 l 267 863 l 267 0 l 197 0 l 197 863 l 14 863 l 14 925 l 450 925 m 199 983 l 132 1129 l 182 1129 l 231 1035 l 279 1129 l 329 1129 l 263 983 l 199 983 z "},"ť":{"ha":393,"x_min":7,"x_max":397,"o":"m 167 926 l 167 782 l 357 782 l 357 719 l 167 719 l 167 161 q 193 82 167 106 q 276 58 219 58 q 372 72 333 58 l 372 8 q 259 -4 331 -4 q 142 38 188 -4 q 97 161 97 81 l 97 719 l 7 719 l 7 782 l 99 782 l 118 926 l 167 926 m 368 1054 q 397 1026 397 1054 q 333 853 397 999 l 300 853 l 342 1054 l 368 1054 z "},"Ū":{"ha":636,"x_min":97,"x_max":539,"o":"m 172 1083 l 464 1083 l 464 1029 l 172 1029 l 172 1083 m 469 925 l 539 925 l 539 199 q 483 45 539 104 q 318 -14 428 -14 q 153 45 208 -14 q 97 199 97 104 l 97 925 l 167 925 l 167 199 q 318 49 167 49 q 469 199 469 49 l 469 925 z "},"ū":{"ha":622,"x_min":97,"x_max":518,"o":"m 158 944 l 450 944 l 450 890 l 158 890 l 158 944 m 449 782 l 518 782 l 518 0 l 450 0 l 450 38 q 292 -4 386 -4 q 148 48 199 -4 q 97 197 97 100 l 97 782 l 167 782 l 167 197 q 299 57 167 57 q 376 69 339 57 q 449 107 414 82 l 449 782 z "},"Ů":{"ha":636,"x_min":97,"x_max":539,"o":"m 469 925 l 539 925 l 539 199 q 483 45 539 104 q 318 -14 428 -14 q 153 45 208 -14 q 97 199 97 104 l 97 925 l 167 925 l 167 199 q 318 49 167 49 q 469 199 469 49 l 469 925 m 360 1019 q 367 1026 360 1019 q 374 1057 374 1033 q 360 1094 374 1081 q 322 1108 346 1108 q 285 1094 299 1108 q 271 1057 271 1081 q 285 1019 271 1033 q 322 1004 299 1004 q 360 1019 346 1004 m 249 987 q 236 1001 249 987 q 222 1057 222 1015 q 249 1126 222 1099 q 323 1154 276 1154 q 396 1126 369 1154 q 422 1056 422 1099 q 396 986 422 1014 q 323 958 369 958 q 249 987 276 958 z "},"ů":{"ha":622,"x_min":97,"x_max":518,"o":"m 449 782 l 518 782 l 518 0 l 450 0 l 450 38 q 292 -4 386 -4 q 148 48 199 -4 q 97 197 97 100 l 97 782 l 167 782 l 167 197 q 299 57 167 57 q 376 69 339 57 q 449 107 414 82 l 449 782 m 350 880 q 357 887 350 880 q 364 918 364 894 q 350 956 364 942 q 313 969 336 969 q 275 956 289 969 q 261 918 261 942 q 275 880 261 894 q 313 865 289 865 q 350 880 336 865 m 240 848 q 226 862 240 848 q 213 918 213 876 q 240 988 213 960 q 313 1015 267 1015 q 386 988 360 1015 q 413 917 413 960 q 386 847 413 875 q 313 819 360 819 q 240 848 267 819 z "},"Ű":{"ha":636,"x_min":97,"x_max":539,"o":"m 279 1129 l 353 1129 l 276 983 l 228 983 l 279 1129 m 386 1129 l 460 1129 l 383 983 l 335 983 l 386 1129 m 469 925 l 539 925 l 539 199 q 483 45 539 104 q 318 -14 428 -14 q 153 45 208 -14 q 97 199 97 104 l 97 925 l 167 925 l 167 199 q 318 49 167 49 q 469 199 469 49 l 469 925 z "},"ű":{"ha":622,"x_min":97,"x_max":518,"o":"m 276 990 l 350 990 l 274 844 l 225 844 l 276 990 m 383 990 l 457 990 l 381 844 l 332 844 l 383 990 m 449 782 l 518 782 l 518 0 l 450 0 l 450 38 q 292 -4 386 -4 q 148 48 199 -4 q 97 197 97 100 l 97 782 l 167 782 l 167 197 q 299 57 167 57 q 376 69 339 57 q 449 107 414 82 l 449 782 z "},"Ų":{"ha":636,"x_min":97,"x_max":539,"o":"m 469 925 l 539 925 l 539 199 q 438 11 539 64 q 369 -114 369 -42 q 424 -164 369 -164 l 440 -164 l 440 -222 l 424 -222 q 315 -132 315 -222 q 369 -10 315 -67 q 318 -14 344 -14 q 153 45 208 -14 q 97 199 97 104 l 97 925 l 167 925 l 167 199 q 318 49 167 49 q 469 199 469 49 l 469 925 z "},"ų":{"ha":622,"x_min":97,"x_max":518,"o":"m 449 782 l 518 782 l 518 0 l 517 0 q 446 -128 446 -53 q 500 -178 446 -178 l 517 -178 l 517 -236 l 500 -236 q 392 -146 392 -236 q 472 0 392 -61 l 450 0 l 450 38 q 292 -4 386 -4 q 148 48 199 -4 q 97 197 97 100 l 97 782 l 167 782 l 167 197 q 299 57 167 57 q 376 69 339 57 q 449 107 414 82 l 449 782 z "},"Ÿ":{"ha":542,"x_min":7,"x_max":535,"o":"m 306 0 l 236 0 l 236 319 l 7 925 l 79 925 q 233 515 208 583 q 272 408 257 447 q 314 525 286 447 q 463 925 376 696 l 535 925 l 306 319 l 306 0 m 349 1008 q 326 1008 349 1008 q 303 1054 303 1008 q 349 1100 303 1100 q 394 1054 394 1100 q 349 1008 394 1008 m 175 1008 q 152 1008 175 1008 q 129 1054 129 1008 q 175 1100 129 1100 q 221 1054 221 1100 q 175 1008 221 1008 z "},"Ź":{"ha":515,"x_min":42,"x_max":474,"o":"m 50 925 l 474 925 l 474 863 l 115 63 l 465 63 l 465 0 l 42 0 l 42 63 l 400 863 l 50 863 l 50 925 m 281 1129 l 357 1129 l 281 983 l 229 983 l 281 1129 z "},"ź":{"ha":429,"x_min":28,"x_max":401,"o":"m 36 782 l 401 782 l 401 719 l 93 63 l 400 63 l 400 0 l 28 0 l 28 63 l 329 719 l 36 719 l 36 782 m 240 990 l 317 990 l 240 844 l 189 844 l 240 990 z "},"Ż":{"ha":515,"x_min":42,"x_max":474,"o":"m 254 1049 q 231 1049 254 1049 q 208 1094 208 1049 q 254 1140 208 1140 q 300 1094 300 1140 q 254 1049 300 1049 m 50 925 l 474 925 l 474 863 l 115 63 l 465 63 l 465 0 l 42 0 l 42 63 l 400 863 l 50 863 l 50 925 z "},"ż":{"ha":429,"x_min":28,"x_max":401,"o":"m 231 910 q 208 910 231 910 q 185 956 185 910 q 231 1001 185 1001 q 276 956 276 1001 q 231 910 276 910 m 36 782 l 401 782 l 401 719 l 93 63 l 400 63 l 400 0 l 28 0 l 28 63 l 329 719 l 36 719 l 36 782 z "},"Ž":{"ha":515,"x_min":42,"x_max":474,"o":"m 474 925 l 474 863 l 115 63 l 465 63 l 465 0 l 42 0 l 42 63 l 400 863 l 50 863 l 50 925 l 474 925 m 233 983 l 167 1129 l 217 1129 l 265 1035 l 314 1129 l 364 1129 l 297 983 l 233 983 z "},"ž":{"ha":429,"x_min":28,"x_max":401,"o":"m 401 782 l 401 719 l 93 63 l 400 63 l 400 0 l 28 0 l 28 63 l 329 719 l 36 719 l 36 782 l 401 782 m 196 844 l 129 990 l 179 990 l 228 896 l 276 990 l 326 990 l 260 844 l 196 844 z "},"ƒ":{"ha":393,"x_min":-47,"x_max":410,"o":"m -47 58 l -21 57 q 53 83 29 57 q 88 171 76 108 l 160 594 l 50 594 l 50 657 l 171 657 l 199 817 q 253 949 214 906 q 376 993 293 993 q 410 992 399 993 l 410 929 q 376 931 399 931 q 303 905 326 931 q 268 817 279 879 l 240 657 l 347 657 l 347 594 l 229 594 l 157 171 q 102 38 142 82 q -21 -6 63 -6 l -47 -4 l -47 58 z "},"Ș":{"ha":519,"x_min":42,"x_max":471,"o":"m 246 -85 q 281 -116 281 -85 q 219 -242 281 -147 l 176 -242 l 214 -85 l 246 -85 m 42 746 q 99 883 42 833 q 262 932 157 932 q 439 911 367 932 l 439 844 q 267 868 372 868 q 111 749 111 868 l 111 669 q 196 532 111 578 l 358 442 q 471 258 471 381 l 471 186 q 410 44 471 94 q 235 -7 350 -7 q 47 19 121 -7 l 47 86 q 226 57 129 57 q 401 186 401 57 l 401 254 q 384 332 401 303 q 321 386 367 361 l 158 475 q 42 665 42 539 l 42 746 z "},"ș":{"ha":492,"x_min":42,"x_max":450,"o":"m 251 -85 q 286 -116 286 -85 q 225 -242 286 -147 l 182 -242 l 219 -85 l 251 -85 m 42 604 q 94 743 42 697 q 265 789 146 789 q 415 765 342 789 l 415 699 q 257 725 340 725 q 142 697 174 725 q 111 604 111 669 l 111 563 q 131 483 111 510 q 200 436 150 457 l 321 382 q 450 215 450 324 l 450 178 q 211 -7 450 -7 q 49 17 122 -7 l 49 83 q 214 57 124 57 q 342 87 304 57 q 381 178 381 117 l 381 210 q 362 276 381 253 q 289 324 343 300 l 163 379 q 42 554 42 431 l 42 604 z "},"Ț":{"ha":464,"x_min":14,"x_max":450,"o":"m 450 925 l 450 863 l 267 863 l 267 0 l 197 0 l 197 863 l 14 863 l 14 925 l 450 925 m 229 -85 q 264 -116 264 -85 q 203 -242 264 -147 l 160 -242 l 197 -85 l 229 -85 z "},"ț":{"ha":393,"x_min":7,"x_max":372,"o":"m 243 -85 q 278 -116 278 -85 q 217 -242 278 -147 l 174 -242 l 211 -85 l 243 -85 m 167 926 l 167 782 l 357 782 l 357 719 l 167 719 l 167 161 q 193 82 167 106 q 276 58 219 58 q 372 72 333 58 l 372 8 q 259 -4 331 -4 q 142 38 188 -4 q 97 161 97 81 l 97 719 l 7 719 l 7 782 l 99 782 l 118 926 l 167 926 z "},"ˆ":{"ha":486,"x_min":144,"x_max":342,"o":"m 342 844 l 292 844 l 243 939 l 194 844 l 144 844 l 211 990 l 275 990 l 342 844 z "},"ˇ":{"ha":486,"x_min":144,"x_max":342,"o":"m 292 990 l 342 990 l 275 844 l 211 844 l 144 990 l 194 990 l 243 896 l 292 990 z "},"ˉ":{"ha":486,"x_min":97,"x_max":389,"o":"m 97 944 l 389 944 l 389 890 l 97 890 l 97 944 z "},"˘":{"ha":486,"x_min":94,"x_max":392,"o":"m 351 885 q 332 865 351 885 q 243 844 313 844 q 135 885 174 844 q 94 990 97 926 l 154 990 q 178 924 156 949 q 243 900 201 900 q 308 924 285 900 q 332 990 331 949 l 392 990 q 351 885 389 926 z "},"˙":{"ha":486,"x_min":194,"x_max":286,"o":"m 240 910 q 217 910 240 910 q 194 956 194 910 q 240 1001 194 1001 q 286 956 286 1001 q 240 910 286 910 z "},"˚":{"ha":486,"x_min":143,"x_max":343,"o":"m 281 880 q 288 887 281 880 q 294 918 294 894 q 281 956 294 942 q 243 969 267 969 q 206 956 219 969 q 192 918 192 942 q 206 880 192 894 q 243 865 219 865 q 281 880 267 865 m 170 848 q 157 862 170 848 q 143 918 143 876 q 170 988 143 960 q 244 1015 197 1015 q 317 988 290 1015 q 343 917 343 960 q 317 847 343 875 q 244 819 290 819 q 170 848 197 819 z "},"˛":{"ha":486,"x_min":181,"x_max":306,"o":"m 235 -128 q 289 -178 235 -178 l 306 -178 l 306 -236 l 289 -236 q 181 -146 181 -236 q 261 0 181 -61 l 306 0 q 235 -128 235 -53 z "},"˜":{"ha":486,"x_min":79,"x_max":406,"o":"m 346 976 l 406 976 l 406 954 q 384 887 406 911 q 326 863 363 863 q 241 891 289 863 q 171 919 193 919 q 139 878 139 919 l 139 860 l 79 860 l 79 882 q 101 948 79 922 q 161 974 122 974 q 249 945 200 974 q 315 917 299 917 q 346 958 346 917 l 346 976 z "},"˝":{"ha":486,"x_min":126,"x_max":358,"o":"m 178 990 l 251 990 l 175 844 l 126 844 l 178 990 m 285 990 l 358 990 l 282 844 l 233 844 l 285 990 z "},"π":{"ha":622,"x_min":103,"x_max":622,"o":"m 622 782 l 622 719 l 525 719 l 525 0 l 456 0 l 456 719 l 174 719 l 174 0 l 104 0 l 103 782 l 622 782 z "},"ँ":{"ha":0,"x_min":-347,"x_max":61,"o":"m 3 1138 l 61 1138 l 61 1136 q 10 1019 61 1053 q -144 985 -40 985 q -297 1019 -247 985 q -347 1136 -347 1053 l -347 1138 l -289 1138 q -256 1061 -289 1082 q -143 1040 -224 1040 q -30 1061 -62 1040 q 3 1138 3 1082 m -143 1129 q -166 1129 -143 1129 q -189 1175 -189 1129 q -143 1221 -189 1221 q -97 1175 -97 1221 q -143 1129 -97 1129 z "},"ं":{"ha":0,"x_min":-189,"x_max":-97,"o":"m -143 1010 q -166 1010 -143 1010 q -189 1056 -189 1010 q -143 1101 -189 1101 q -97 1056 -97 1101 q -143 1010 -97 1010 z "},"ः":{"ha":261,"x_min":58,"x_max":150,"o":"m 104 0 q 81 0 104 0 q 58 46 58 0 q 104 92 58 92 q 150 46 150 92 q 104 0 150 0 m 104 476 q 81 476 104 476 q 58 522 58 476 q 104 568 58 568 q 150 522 150 568 q 104 476 150 476 z "},"अ":{"ha":764,"x_min":49,"x_max":792,"o":"m 590 894 l 792 894 l 792 839 l 653 839 l 653 0 l 590 0 l 590 296 l 410 296 l 410 222 q 357 94 410 140 q 217 47 304 47 q 49 68 129 47 l 49 129 q 207 106 132 106 q 347 222 347 106 l 347 333 q 322 419 347 389 q 221 451 297 450 l 136 451 l 136 510 l 221 510 q 322 542 297 511 q 347 628 347 572 l 347 726 q 207 843 347 843 q 63 817 136 843 l 63 881 q 216 901 128 901 q 357 855 304 901 q 410 726 410 808 l 410 628 q 335 481 410 507 q 410 351 404 454 l 590 351 l 590 894 z "},"आ":{"ha":1089,"x_min":90,"x_max":1118,"o":"m 1118 894 l 1118 839 l 979 839 l 979 0 l 917 0 l 917 839 l 694 839 l 694 0 l 632 0 l 632 296 l 451 296 l 451 222 q 399 94 451 140 q 258 47 346 47 q 90 68 171 47 l 90 129 q 249 106 174 106 q 389 222 389 106 l 389 333 q 364 419 389 389 q 263 451 339 450 l 178 451 l 178 510 l 263 510 q 364 542 339 511 q 389 628 389 572 l 389 726 q 249 843 389 843 q 104 817 178 843 l 104 881 q 258 901 169 901 q 399 855 346 901 q 451 726 451 808 l 451 628 q 376 481 451 507 q 451 351 446 454 l 632 351 l 632 894 l 1118 894 z "},"इ":{"ha":546,"x_min":-28,"x_max":574,"o":"m 135 238 l 135 118 q 271 107 190 107 q 419 210 419 107 l 419 268 q 390 345 419 319 q 288 371 361 371 l 257 371 q 63 532 63 371 l 63 540 q 257 700 63 700 l 379 700 l 379 839 l -28 839 l -28 894 l 574 894 l 574 839 l 442 839 l 442 642 l 257 642 q 154 616 183 642 q 125 540 125 590 l 125 532 q 154 455 125 481 q 257 429 183 429 l 288 429 q 482 268 482 429 l 482 210 q 431 88 482 128 q 287 49 381 49 q 135 61 193 49 l 135 -85 l 76 -85 l 76 238 l 135 238 z "},"ई":{"ha":546,"x_min":-28,"x_max":574,"o":"m 442 642 l 257 642 q 154 616 183 642 q 125 540 125 590 l 125 532 q 154 455 125 481 q 257 429 183 429 l 288 429 q 482 268 482 429 l 482 210 q 431 88 482 128 q 287 49 381 49 q 135 61 193 49 l 135 -85 l 76 -85 l 76 238 l 135 238 l 135 118 q 271 107 190 107 q 419 210 419 107 l 419 268 q 390 345 419 319 q 288 371 361 371 l 257 371 q 63 532 63 371 l 63 540 q 257 700 63 700 l 379 700 l 379 839 l -28 839 l -28 894 l 371 894 q 319 1063 319 986 q 369 1178 319 1139 q 496 1218 419 1218 q 554 1213 515 1218 l 554 1157 q 501 1161 526 1161 q 382 1057 382 1161 q 435 894 382 997 l 574 894 l 574 839 l 442 839 l 442 642 z "},"उ":{"ha":554,"x_min":-28,"x_max":582,"o":"m 386 736 q 367 839 386 797 l -28 839 l -28 894 l 582 894 l 582 839 l 433 839 q 449 738 449 811 l 449 617 q 374 469 449 489 q 449 322 449 446 l 449 171 q 214 -4 449 -4 q 69 18 143 -4 l 69 82 q 228 54 149 54 q 386 171 386 54 l 386 322 q 361 408 386 378 q 260 440 336 439 l 175 440 l 175 499 l 260 499 q 361 531 336 500 q 386 617 386 561 l 386 736 z "},"ऊ":{"ha":774,"x_min":-28,"x_max":801,"o":"m 386 736 q 367 839 386 797 l -28 839 l -28 894 l 801 894 l 801 839 l 433 839 q 449 738 449 811 l 449 617 q 374 469 449 489 l 382 467 q 524 478 471 478 q 669 431 619 478 q 718 303 718 383 l 718 160 q 675 42 718 85 q 549 -1 632 -1 l 524 -1 l 524 57 l 533 57 q 628 83 601 57 q 656 160 656 110 l 656 303 q 524 419 656 419 l 429 419 q 449 322 449 381 l 449 171 q 214 -4 449 -4 q 69 18 143 -4 l 69 82 q 228 54 149 54 q 386 171 386 54 l 386 322 q 361 408 386 378 q 260 440 336 439 l 175 440 l 175 499 l 260 499 q 361 531 336 500 q 386 617 386 561 l 386 736 z "},"ऋ":{"ha":914,"x_min":-28,"x_max":942,"o":"m 942 839 l 497 839 l 497 592 q 632 579 569 579 q 778 693 778 579 l 778 704 l 838 704 l 838 339 l 782 339 q 695 308 722 339 q 668 203 668 276 q 707 100 668 129 q 795 71 746 71 q 881 79 844 71 l 881 22 q 803 14 843 14 q 662 60 718 14 q 606 200 606 107 q 778 394 606 393 l 778 569 q 632 519 736 519 q 497 533 565 519 l 497 0 l 435 0 l 435 156 l 440 393 l 435 393 q 343 290 415 364 l 140 83 l 60 83 l 60 89 l 435 472 l 435 613 q 292 633 371 633 q 129 508 129 633 l 129 428 l 67 428 l 67 508 q 124 644 67 597 q 290 692 181 692 q 435 671 363 692 l 435 839 l -28 839 l -28 894 l 942 894 l 942 839 z "},"ऌ":{"ha":847,"x_min":-28,"x_max":875,"o":"m 563 -17 q 563 -50 563 -17 q 592 -104 563 -82 q 669 -126 621 -126 q 742 -115 717 -126 l 742 -176 q 675 -187 714 -187 q 500 -17 500 -187 q 664 157 500 157 l 674 157 l 674 581 q 563 603 625 603 q 438 496 438 603 l 438 286 l 375 286 l 375 496 q 257 603 375 603 q 164 574 189 603 q 139 492 139 544 l 139 203 q 172 94 139 132 q 292 56 204 56 q 371 63 325 56 l 371 7 q 292 0 333 0 q 76 203 76 0 l 76 492 q 257 661 76 661 q 406 601 361 661 q 563 661 451 661 q 674 639 619 661 l 674 839 l -28 839 l -28 894 l 875 894 l 875 839 l 736 839 l 736 101 l 672 101 q 587 74 611 101 q 563 -17 563 47 z "},"ऍ":{"ha":588,"x_min":-28,"x_max":615,"o":"m 474 21 q 310 -7 413 -7 q 156 35 207 -7 q 104 156 104 76 l 104 839 l -28 839 l -28 894 l 615 894 l 615 839 l 493 839 l 493 549 q 453 431 493 476 q 332 386 413 386 q 299 388 310 386 l 299 446 q 326 444 308 444 q 431 549 431 444 l 431 839 l 167 839 l 167 156 q 306 51 167 51 q 474 79 394 51 l 474 21 m 450 1156 l 508 1156 l 508 1154 q 458 1037 508 1071 q 303 1003 407 1003 q 150 1037 200 1003 q 100 1154 100 1071 l 100 1156 l 158 1156 q 191 1079 158 1100 q 304 1058 224 1058 q 417 1079 385 1058 q 450 1156 450 1100 z "},"ऎ":{"ha":588,"x_min":-28,"x_max":615,"o":"m 492 894 l 615 894 l 615 839 l 493 839 l 493 549 q 453 431 493 476 q 332 386 413 386 q 299 388 310 386 l 299 446 q 326 444 308 444 q 431 549 431 444 l 431 839 l 167 839 l 167 156 q 306 51 167 51 q 474 79 394 51 l 474 21 q 310 -7 413 -7 q 156 35 207 -7 q 104 156 104 76 l 104 839 l -28 839 l -28 894 l 433 894 q 401 992 433 958 q 288 1026 369 1026 q 83 1213 83 1026 l 142 1213 q 173 1115 142 1149 q 288 1082 204 1082 q 492 894 492 1082 z "},"ए":{"ha":588,"x_min":-28,"x_max":615,"o":"m 314 -7 q 104 165 104 -7 l 104 839 l -28 839 l -28 894 l 615 894 l 615 839 l 493 839 l 493 549 q 453 431 493 476 q 332 386 413 386 q 299 388 310 386 l 299 446 q 326 444 308 444 q 431 549 431 444 l 431 839 l 167 839 l 167 164 q 201 80 167 108 q 317 51 235 51 q 481 79 400 51 l 481 21 q 314 -7 419 -7 z "},"ऐ":{"ha":588,"x_min":-28,"x_max":615,"o":"m 615 894 l 615 839 l 493 839 l 493 549 q 453 431 493 476 q 332 386 413 386 q 299 388 310 386 l 299 446 q 326 444 308 444 q 431 549 431 444 l 431 839 l 167 839 l 167 156 q 306 51 167 51 q 474 79 394 51 l 474 21 q 310 -7 413 -7 q 156 35 207 -7 q 104 156 104 76 l 104 839 l -28 839 l -28 894 l 425 894 l 197 1213 l 269 1213 l 490 894 l 615 894 z "},"ऑ":{"ha":1090,"x_min":90,"x_max":1118,"o":"m 1118 894 l 1118 839 l 979 839 l 979 0 l 917 0 l 917 839 l 694 839 l 694 0 l 632 0 l 632 296 l 451 296 l 451 222 q 399 94 451 140 q 258 47 346 47 q 90 68 171 47 l 90 129 q 249 106 174 106 q 389 222 389 106 l 389 333 q 364 419 389 389 q 263 451 339 450 l 178 451 l 178 510 l 263 510 q 364 542 339 511 q 389 628 389 572 l 389 726 q 249 843 389 843 q 104 817 178 843 l 104 881 q 258 901 169 901 q 399 855 346 901 q 451 726 451 808 l 451 628 q 376 481 451 507 q 451 351 446 454 l 632 351 l 632 894 l 1118 894 m 1013 1146 l 1013 1144 q 963 1026 1013 1058 q 809 993 914 993 q 654 1026 704 993 q 604 1144 604 1060 l 604 1146 l 663 1146 q 695 1069 663 1090 q 808 1049 728 1049 q 922 1069 889 1049 q 954 1146 954 1090 l 1013 1146 z "},"ऒ":{"ha":1090,"x_min":90,"x_max":1118,"o":"m 976 894 l 1118 894 l 1118 839 l 979 839 l 979 0 l 917 0 l 917 839 l 694 839 l 694 0 l 632 0 l 632 296 l 451 296 l 451 222 q 399 94 451 140 q 258 47 346 47 q 90 68 171 47 l 90 129 q 249 106 174 106 q 389 222 389 106 l 389 333 q 364 419 389 389 q 263 451 339 450 l 178 451 l 178 510 l 263 510 q 364 542 339 511 q 389 628 389 572 l 389 726 q 249 843 389 843 q 104 817 178 843 l 104 881 q 258 901 169 901 q 399 855 346 901 q 451 726 451 808 l 451 628 q 376 481 451 507 q 451 351 446 454 l 632 351 l 632 894 l 918 894 q 886 992 918 958 q 772 1026 854 1026 q 568 1213 568 1026 l 626 1213 q 658 1115 626 1149 q 772 1082 689 1082 q 976 894 976 1082 z "},"ओ":{"ha":1090,"x_min":90,"x_max":1118,"o":"m 1118 894 l 1118 839 l 979 839 l 979 0 l 917 0 l 917 839 l 694 839 l 694 0 l 632 0 l 632 296 l 451 296 l 451 222 q 399 94 451 140 q 258 47 346 47 q 90 68 171 47 l 90 129 q 249 106 174 106 q 389 222 389 106 l 389 333 q 364 419 389 389 q 263 451 339 450 l 178 451 l 178 510 l 263 510 q 364 542 339 511 q 389 628 389 572 l 389 726 q 249 843 389 843 q 104 817 178 843 l 104 881 q 258 901 169 901 q 399 855 346 901 q 451 726 451 808 l 451 628 q 376 481 451 507 q 451 351 446 454 l 632 351 l 632 894 l 911 894 l 779 1101 q 689 1156 744 1156 q 653 1153 672 1156 l 653 1210 q 704 1213 672 1213 q 826 1131 772 1213 l 978 894 l 1118 894 z "},"औ":{"ha":1090,"x_min":90,"x_max":1118,"o":"m 1118 894 l 1118 839 l 979 839 l 979 0 l 917 0 l 917 839 l 694 839 l 694 0 l 632 0 l 632 296 l 451 296 l 451 222 q 399 94 451 140 q 258 47 346 47 q 90 68 171 47 l 90 129 q 249 106 174 106 q 389 222 389 106 l 389 333 q 364 419 389 389 q 263 451 339 450 l 178 451 l 178 510 l 263 510 q 364 542 339 511 q 389 628 389 572 l 389 726 q 249 843 389 843 q 104 817 178 843 l 104 881 q 258 901 169 901 q 399 855 346 901 q 451 726 451 808 l 451 628 q 376 481 451 507 q 451 351 446 454 l 632 351 l 632 894 l 794 894 l 663 1101 q 572 1156 628 1156 q 536 1153 556 1156 l 536 1210 q 588 1213 556 1213 q 710 1131 656 1213 l 861 894 l 917 894 l 858 1088 q 834 1140 847 1124 q 798 1156 821 1156 q 756 1153 775 1156 l 756 1210 q 793 1213 775 1213 q 910 1117 882 1213 l 976 894 l 1118 894 z "},"क":{"ha":790,"x_min":-28,"x_max":818,"o":"m 368 839 l -28 839 l -28 894 l 818 894 l 818 839 l 431 839 l 431 686 q 531 701 476 701 q 672 660 624 701 q 721 539 721 618 l 721 269 q 681 152 721 197 q 560 107 640 107 q 526 108 538 107 l 526 167 q 554 165 536 165 q 658 269 658 165 l 658 539 q 531 643 658 643 q 431 629 475 643 l 431 0 l 368 0 l 368 115 q 260 101 313 101 q 118 143 167 101 q 69 264 69 185 l 69 538 q 118 658 69 617 q 260 700 167 700 q 301 696 283 700 l 301 639 q 260 642 276 642 q 132 538 132 642 l 132 264 q 260 160 132 160 q 368 174 322 160 l 368 839 z "},"ख":{"ha":992,"x_min":-28,"x_max":1019,"o":"m 368 735 q 350 839 368 788 l -28 839 l -28 894 l 1019 894 l 1019 839 l 881 839 l 881 0 l 818 0 l 818 200 q 700 186 767 186 q 519 349 519 186 l 519 538 q 700 700 519 700 q 818 686 753 700 l 818 839 l 413 839 q 431 735 431 804 l 431 565 q 233 371 431 371 q 132 381 178 371 l 132 239 q 383 54 132 54 q 582 76 486 54 l 582 15 q 385 -6 481 -6 q 69 239 69 -6 l 69 611 l 132 611 l 132 439 q 233 429 193 429 q 368 565 368 429 l 368 735 m 818 628 q 696 642 760 642 q 607 615 632 642 q 582 538 582 589 l 582 349 q 607 271 582 297 q 706 244 632 244 q 818 258 781 244 l 818 628 z "},"ग":{"ha":661,"x_min":-28,"x_max":689,"o":"m 689 894 l 689 839 l 550 839 l 550 0 l 488 0 l 488 839 l 251 839 l 251 438 q 211 320 251 365 q 90 275 171 275 q 47 279 64 275 l 47 336 q 85 333 69 333 q 189 438 189 333 l 189 839 l -28 839 l -28 894 l 689 894 z "},"घ":{"ha":679,"x_min":-28,"x_max":707,"o":"m 506 839 l 179 839 q 168 735 168 800 l 168 626 q 194 549 168 575 q 294 522 221 524 l 340 522 l 340 464 l 294 464 q 190 438 219 464 q 160 360 160 411 l 160 289 q 207 180 160 213 q 344 147 254 147 q 506 168 435 147 l 506 839 m 106 735 q 117 839 106 797 l -28 839 l -28 894 l 707 894 l 707 839 l 568 839 l 568 0 l 506 0 l 506 111 q 346 90 425 90 q 97 289 97 90 l 97 360 q 186 492 97 469 q 106 626 106 518 l 106 735 z "},"ङ":{"ha":583,"x_min":-28,"x_max":611,"o":"m 544 460 q 522 460 544 460 q 499 506 499 460 q 544 551 499 551 q 590 506 590 551 q 544 460 590 460 m 489 235 l 489 161 q 268 -7 489 -7 q 78 14 168 -7 l 78 72 q 268 51 161 51 q 426 161 426 51 l 426 235 q 397 312 426 286 q 294 338 368 338 l 271 338 q 76 499 76 338 l 76 542 q 271 701 76 701 l 386 701 l 386 839 l -28 839 l -28 894 l 611 894 l 611 839 l 449 839 l 449 643 l 271 643 q 168 617 197 643 q 139 542 139 592 l 139 499 q 168 422 139 447 q 271 396 197 396 l 294 396 q 489 235 489 396 z "},"च":{"ha":632,"x_min":-28,"x_max":660,"o":"m 132 478 q 146 610 132 557 l 17 610 l 17 665 l 376 665 l 376 610 l 208 610 q 194 478 194 564 l 194 260 q 225 175 194 203 q 326 147 256 147 q 458 168 396 147 l 458 839 l -28 839 l -28 894 l 660 894 l 660 839 l 521 839 l 521 0 l 458 0 l 458 110 q 329 89 400 89 q 132 260 132 89 l 132 478 z "},"छ":{"ha":686,"x_min":-28,"x_max":714,"o":"m 540 522 q 518 601 540 575 q 444 626 496 626 q 351 615 393 626 l 351 674 q 438 685 389 685 l 438 839 l 175 839 q 161 735 161 800 l 161 551 q 188 474 161 500 q 288 447 214 449 l 353 447 l 353 389 l 288 389 q 183 363 213 389 q 153 285 153 336 l 153 232 q 192 124 153 153 q 347 96 232 96 q 501 124 463 96 q 540 232 540 153 l 540 522 m 99 735 q 113 839 99 797 l -28 839 l -28 894 l 714 894 l 714 839 l 494 839 l 494 678 q 603 522 603 654 l 603 232 q 544 81 603 125 q 347 38 486 38 q 149 82 208 38 q 90 232 90 126 l 90 285 q 179 417 90 394 q 99 551 99 443 l 99 735 z "},"ज":{"ha":750,"x_min":-28,"x_max":778,"o":"m 306 506 q 294 610 306 563 l 138 610 l 138 665 l 576 665 l 576 839 l -28 839 l -28 894 l 778 894 l 778 839 l 639 839 l 639 0 l 576 0 l 576 610 l 357 610 q 368 506 368 575 l 368 232 q 317 103 368 149 q 183 57 267 57 q 39 74 99 57 l 39 133 q 169 115 103 115 q 306 232 306 115 l 306 506 z "},"झ":{"ha":817,"x_min":-28,"x_max":844,"o":"m 643 429 l 643 839 l 451 839 l 451 643 l 267 643 q 164 617 193 643 q 135 542 135 592 l 135 532 q 163 456 135 482 q 263 429 190 431 l 643 429 m 271 371 l 265 371 q 72 532 72 371 l 72 542 q 267 701 72 701 l 389 701 l 389 839 l -28 839 l -28 894 l 844 894 l 844 839 l 706 839 l 706 0 l 643 0 l 643 372 l 415 372 q 461 268 461 343 l 461 199 q 413 76 461 118 q 258 35 365 35 q 135 49 189 35 l 135 -76 l 76 -76 l 76 214 l 135 214 l 135 108 q 258 93 189 93 q 399 199 399 93 l 399 268 q 370 344 399 318 q 271 371 342 371 z "},"ञ":{"ha":786,"x_min":-28,"x_max":814,"o":"m 347 246 l 347 532 q 319 618 347 588 q 222 649 290 649 q 90 624 153 649 l 90 683 q 219 707 146 707 q 410 532 410 707 l 410 415 l 613 415 l 613 839 l -28 839 l -28 894 l 814 894 l 814 839 l 675 839 l 675 0 l 613 0 l 613 360 l 410 360 l 410 246 q 218 71 410 71 q 78 94 140 71 l 78 154 q 219 129 149 129 q 318 160 289 129 q 347 246 347 190 z "},"ट":{"ha":535,"x_min":-28,"x_max":563,"o":"m 146 538 l 146 179 q 303 53 146 53 q 463 78 382 53 l 463 18 q 297 -6 392 -6 q 143 43 203 -6 q 83 179 83 92 l 83 538 q 278 700 83 700 l 375 700 l 375 839 l -28 839 l -28 894 l 563 894 l 563 839 l 438 839 l 438 642 l 278 642 q 175 615 204 642 q 146 538 146 589 z "},"ठ":{"ha":556,"x_min":-28,"x_max":583,"o":"m 410 163 l 410 536 q 278 647 410 647 q 146 536 146 647 l 146 163 q 278 51 146 51 q 410 163 410 51 m 472 536 l 472 163 q 424 38 472 82 q 278 -7 375 -7 q 132 38 181 -7 q 83 163 83 82 l 83 536 q 124 653 83 608 q 246 704 164 697 l 246 839 l -28 839 l -28 894 l 583 894 l 583 839 l 308 839 l 308 704 q 431 653 390 697 q 472 536 472 610 z "},"ड":{"ha":565,"x_min":-28,"x_max":593,"o":"m 489 221 l 489 161 q 268 -7 489 -7 q 82 13 165 -7 l 82 75 q 268 51 164 51 q 426 161 426 51 l 426 221 q 397 298 426 272 q 294 324 368 324 l 271 324 q 76 485 76 324 l 76 542 q 271 701 76 701 l 386 701 l 386 839 l -28 839 l -28 894 l 593 894 l 593 839 l 449 839 l 449 643 l 271 643 q 168 617 197 643 q 139 542 139 592 l 139 485 q 168 408 139 433 q 271 382 197 382 l 294 382 q 489 221 489 382 z "},"ढ":{"ha":556,"x_min":-28,"x_max":583,"o":"m 328 349 q 265 339 294 349 l 265 396 q 329 407 289 407 q 442 365 397 407 q 486 246 486 324 l 486 169 q 436 40 486 86 q 285 -7 386 -7 q 133 40 183 -7 q 83 169 83 86 l 83 538 q 278 700 83 700 l 375 700 l 375 839 l -28 839 l -28 894 l 583 894 l 583 839 l 438 839 l 438 642 l 278 642 q 175 615 204 642 q 146 538 146 589 l 146 169 q 176 83 146 114 q 285 51 207 51 q 393 83 363 51 q 424 169 424 114 l 424 246 q 328 349 424 349 z "},"ण":{"ha":833,"x_min":-28,"x_max":861,"o":"m 392 839 l 142 839 l 142 340 q 168 258 142 288 q 267 229 194 229 q 365 258 339 229 q 392 340 392 288 l 392 839 m 454 340 q 267 171 454 171 q 79 340 79 171 l 79 839 l -28 839 l -28 894 l 861 894 l 861 839 l 722 839 l 722 0 l 661 0 l 661 839 l 454 839 l 454 340 z "},"त":{"ha":593,"x_min":-28,"x_max":621,"o":"m 79 532 q 131 656 79 611 q 266 701 183 701 q 419 681 349 701 l 419 839 l -28 839 l -28 894 l 621 894 l 621 839 l 482 839 l 482 0 l 419 0 l 419 624 q 281 643 339 643 q 142 532 142 643 l 142 160 q 171 82 142 108 q 274 57 200 56 l 274 -1 l 249 -1 q 122 42 165 -1 q 79 160 79 85 l 79 532 z "},"थ":{"ha":743,"x_min":69,"x_max":771,"o":"m 571 894 l 771 894 l 771 839 l 632 839 l 632 0 l 571 0 l 571 149 q 347 124 486 124 q 139 183 208 124 q 69 376 69 243 l 69 507 l 176 507 q 317 535 275 507 q 360 649 360 563 l 360 728 q 348 806 360 783 q 316 836 336 829 q 249 843 296 843 q 181 816 201 843 q 160 729 160 789 l 167 656 l 104 656 q 97 728 97 699 q 135 858 97 815 q 262 901 174 901 q 385 859 350 901 q 419 728 419 817 l 419 650 q 360 494 419 539 q 176 449 301 449 l 132 449 l 132 376 q 183 226 132 269 q 351 182 233 182 q 571 207 469 182 l 571 894 z "},"द":{"ha":551,"x_min":-28,"x_max":579,"o":"m 65 282 l 65 538 q 260 700 65 700 l 378 700 l 378 839 l -28 839 l -28 894 l 579 894 l 579 839 l 440 839 l 440 642 l 260 642 q 157 615 186 642 q 128 538 128 589 l 128 282 q 276 165 128 165 q 406 179 342 165 l 406 317 l 464 317 l 464 -14 l 406 -14 l 406 121 q 263 107 349 107 q 122 153 178 107 q 65 282 65 200 z "},"ध":{"ha":679,"x_min":-28,"x_max":707,"o":"m 106 735 q 118 839 106 801 l -28 839 l -28 894 l 332 894 l 332 839 l 181 839 q 168 735 168 800 l 168 633 q 194 556 168 582 q 294 529 221 531 l 340 529 l 340 471 l 294 471 q 190 444 219 471 q 160 367 160 418 l 160 286 q 206 179 160 211 q 343 147 253 147 q 506 168 433 147 l 506 894 l 707 894 l 707 839 l 568 839 l 568 0 l 506 0 l 506 110 q 333 89 433 89 q 165 137 232 89 q 97 286 97 185 l 97 367 q 186 499 97 476 q 106 633 106 525 l 106 735 z "},"न":{"ha":782,"x_min":-28,"x_max":810,"o":"m 349 501 q 331 606 349 554 l 240 606 q 156 582 181 606 q 132 508 132 558 l 132 243 q 156 170 132 194 q 240 146 181 146 q 324 169 300 146 q 349 243 349 193 l 349 501 m 608 606 l 393 606 q 411 501 411 571 l 411 243 q 240 88 411 88 q 69 243 69 88 l 69 508 q 240 661 69 661 l 608 661 l 608 839 l -28 839 l -28 894 l 810 894 l 810 839 l 671 839 l 671 0 l 608 0 l 608 606 z "},"ऩ":{"ha":793,"x_min":-28,"x_max":821,"o":"m 32 -49 q 9 -49 32 -49 q -14 -3 -14 -49 q 32 43 -14 43 q 78 -3 78 43 q 32 -49 78 -49 m 360 501 q 340 606 360 558 l 251 606 q 167 582 192 606 q 143 508 143 558 l 143 243 q 167 170 143 194 q 251 146 192 146 q 335 169 311 146 q 360 243 360 193 l 360 501 m 619 606 l 403 606 q 422 501 422 571 l 422 243 q 251 88 422 88 q 81 243 81 88 l 81 508 q 251 661 81 661 l 619 661 l 619 839 l -28 839 l -28 894 l 821 894 l 821 839 l 682 839 l 682 0 l 619 0 l 619 606 z "},"प":{"ha":583,"x_min":-28,"x_max":611,"o":"m 410 839 l 142 839 l 142 350 q 282 240 142 240 q 410 261 358 240 l 410 839 m 410 0 l 410 203 q 271 182 357 182 q 132 226 185 182 q 79 350 79 271 l 79 839 l -28 839 l -28 894 l 611 894 l 611 839 l 472 839 l 472 0 l 410 0 z "},"फ":{"ha":819,"x_min":-28,"x_max":847,"o":"m 392 839 l 142 839 l 142 339 q 282 229 142 229 q 392 243 339 229 l 392 839 m 392 0 l 392 186 q 282 171 335 171 q 132 215 185 171 q 79 339 79 260 l 79 839 l -28 839 l -28 894 l 847 894 l 847 839 l 451 839 l 451 678 q 564 694 506 694 q 703 651 656 694 q 750 532 750 607 l 750 254 q 707 136 750 179 q 581 93 664 93 l 556 94 l 556 151 q 658 176 629 150 q 688 254 688 203 l 688 532 q 660 610 688 583 q 564 636 633 636 q 451 619 510 636 l 451 0 l 392 0 z "},"ब":{"ha":565,"x_min":-28,"x_max":593,"o":"m -28 894 l 593 894 l 593 839 l 454 839 l 454 0 l 396 0 l 396 122 q 264 103 353 103 q 122 147 175 103 q 69 271 69 192 l 69 535 q 122 657 69 613 q 264 701 175 701 q 396 682 353 701 l 396 839 l -28 839 l -28 894 m 272 643 q 132 546 142 643 l 396 344 l 396 624 q 272 643 351 643 m 132 271 q 272 161 132 161 q 396 181 353 161 l 396 281 l 132 481 l 132 271 z "},"भ":{"ha":793,"x_min":69,"x_max":821,"o":"m 360 536 l 360 739 q 337 817 360 792 q 250 843 314 843 q 163 817 186 843 q 140 739 140 790 l 146 661 l 83 661 q 78 739 78 704 q 250 901 78 901 q 422 739 422 901 l 422 536 l 619 536 l 619 894 l 821 894 l 821 839 l 682 839 l 682 0 l 619 0 l 619 481 l 422 481 l 422 243 q 381 126 422 164 q 246 88 339 88 q 111 126 153 88 q 69 243 69 164 l 69 383 q 111 499 69 463 q 246 536 153 536 l 360 536 m 360 243 l 360 481 l 246 481 q 155 458 178 481 q 132 383 132 435 l 132 243 q 155 169 132 193 q 246 146 178 146 q 337 169 314 146 q 360 243 360 192 z "},"म":{"ha":772,"x_min":-28,"x_max":800,"o":"m 599 0 l 599 536 l 401 536 l 401 243 q 360 126 401 164 q 225 88 318 88 q 90 126 132 88 q 49 243 49 164 l 49 439 q 90 555 49 518 q 225 592 132 592 l 339 592 l 339 839 l -28 839 l -28 894 l 800 894 l 800 839 l 661 839 l 661 0 l 599 0 m 401 592 l 599 592 l 599 839 l 401 839 l 401 592 m 339 243 l 339 536 l 225 536 q 134 513 157 536 q 111 439 111 490 l 111 243 q 134 169 111 193 q 225 146 157 146 q 316 169 293 146 q 339 243 339 192 z "},"य":{"ha":682,"x_min":-28,"x_max":710,"o":"m 269 735 q 258 839 269 792 l -28 839 l -28 894 l 710 894 l 710 839 l 571 839 l 571 0 l 508 0 l 508 135 q 344 118 428 118 q 83 351 83 118 l 83 529 l 111 529 q 236 550 203 529 q 269 633 269 571 l 269 735 m 332 735 l 332 633 q 146 471 332 471 l 146 351 q 193 219 146 261 q 331 176 240 176 q 508 193 422 176 l 508 839 l 321 839 q 332 735 332 804 z "},"र":{"ha":569,"x_min":-28,"x_max":597,"o":"m 417 735 q 406 839 417 792 l -28 839 l -28 894 l 597 894 l 597 839 l 468 839 q 479 735 479 804 l 479 532 q 431 407 479 451 q 285 363 382 363 q 153 385 222 363 l 153 185 q 315 51 153 51 q 486 74 388 51 l 486 15 q 308 -7 404 -7 q 151 41 211 -7 q 90 185 90 89 l 90 625 l 153 625 l 153 443 q 285 421 226 421 q 417 532 417 421 l 417 735 z "},"ऱ":{"ha":569,"x_min":-28,"x_max":597,"o":"m 417 735 q 406 839 417 792 l -28 839 l -28 894 l 597 894 l 597 839 l 468 839 q 479 735 479 804 l 479 532 q 431 407 479 451 q 285 363 382 363 q 153 385 222 363 l 153 185 q 315 51 153 51 q 486 74 388 51 l 486 15 q 308 -7 404 -7 q 151 41 211 -7 q 90 185 90 89 l 90 625 l 153 625 l 153 443 q 285 421 226 421 q 417 532 417 421 l 417 735 m 22 -117 q -1 -117 22 -117 q -24 -71 -24 -117 q 22 -25 -24 -25 q 68 -71 68 -25 q 22 -117 68 -117 z "},"ल":{"ha":847,"x_min":-28,"x_max":875,"o":"m 76 203 l 76 492 q 257 661 76 661 q 406 601 361 661 q 563 661 451 661 q 674 639 619 661 l 674 839 l -28 839 l -28 894 l 875 894 l 875 839 l 736 839 l 736 0 l 674 0 l 674 581 q 563 603 625 603 q 438 496 438 603 l 438 286 l 375 286 l 375 496 q 257 603 375 603 q 164 574 189 603 q 139 492 139 544 l 139 203 q 172 94 139 132 q 292 56 204 56 q 371 63 325 56 l 371 7 q 292 0 333 0 q 76 203 76 0 z "},"ळ":{"ha":813,"x_min":-28,"x_max":840,"o":"m 436 506 l 436 161 q 560 47 436 47 q 651 77 626 47 q 675 161 675 107 l 675 506 q 650 590 675 560 q 558 619 625 619 q 436 506 436 619 m 138 506 l 138 161 q 162 77 138 107 q 253 47 186 47 q 376 161 376 47 l 376 506 q 254 619 376 619 q 163 590 188 619 q 138 506 138 560 m 736 506 l 736 161 q 560 -7 736 -7 q 406 68 442 -7 q 253 -7 371 -7 q 76 161 76 -7 l 76 506 q 254 674 76 674 q 406 597 371 674 q 524 671 435 661 l 524 839 l -28 839 l -28 894 l 840 894 l 840 839 l 586 839 l 586 672 q 736 506 736 658 z "},"ऴ":{"ha":813,"x_min":-28,"x_max":840,"o":"m 406 -187 q 383 -187 406 -187 q 360 -142 360 -187 q 406 -96 360 -96 q 451 -142 451 -96 q 406 -187 451 -187 m 436 506 l 436 161 q 560 47 436 47 q 651 77 626 47 q 675 161 675 107 l 675 506 q 650 590 675 560 q 558 619 625 619 q 436 506 436 619 m 138 506 l 138 161 q 162 77 138 107 q 253 47 186 47 q 376 161 376 47 l 376 506 q 254 619 376 619 q 163 590 188 619 q 138 506 138 560 m 736 506 l 736 161 q 560 -7 736 -7 q 406 68 442 -7 q 253 -7 371 -7 q 76 161 76 -7 l 76 506 q 254 674 76 674 q 406 597 371 674 q 524 671 435 661 l 524 839 l -28 839 l -28 894 l 840 894 l 840 839 l 586 839 l 586 672 q 736 506 736 658 z "},"व":{"ha":583,"x_min":-28,"x_max":611,"o":"m 410 624 q 282 643 365 643 q 165 611 199 643 q 132 528 132 579 l 132 276 q 272 161 132 161 q 410 181 367 161 l 410 624 m 410 839 l -28 839 l -28 894 l 611 894 l 611 839 l 472 839 l 472 0 l 410 0 l 410 122 q 270 103 367 103 q 122 148 174 103 q 69 276 69 193 l 69 529 q 122 655 69 608 q 271 701 175 701 q 410 682 367 701 l 410 839 z "},"श":{"ha":815,"x_min":97,"x_max":843,"o":"m 486 732 l 486 531 q 438 406 486 450 q 306 361 389 361 q 160 383 222 361 l 160 185 q 205 85 160 119 q 325 51 250 51 q 486 74 400 51 l 486 15 q 319 -7 413 -7 q 162 44 226 -7 q 97 185 97 94 l 97 561 l 160 561 l 160 442 q 292 419 226 419 q 424 531 424 419 l 424 732 q 292 843 424 843 q 160 732 160 843 l 164 681 l 101 681 q 97 732 97 708 q 146 857 97 813 q 292 901 194 901 q 438 857 389 901 q 486 732 486 813 m 642 894 l 843 894 l 843 839 l 704 839 l 704 0 l 642 0 l 642 894 z "},"ष":{"ha":594,"x_min":-28,"x_max":622,"o":"m -28 894 l 622 894 l 622 839 l 483 839 l 483 0 l 424 0 l 424 183 q 274 160 361 160 q 133 204 188 160 q 79 328 79 249 l 79 839 l -28 839 l -28 894 m 424 839 l 142 839 l 142 713 l 424 446 l 424 839 m 142 328 q 286 218 142 218 q 424 242 353 218 l 424 371 l 142 638 l 142 328 z "},"स":{"ha":819,"x_min":-28,"x_max":847,"o":"m 389 735 q 378 839 389 792 l -28 839 l -28 894 l 847 894 l 847 839 l 708 839 l 708 0 l 646 0 l 646 413 l 408 413 q 257 363 358 363 q 153 376 206 363 l 153 185 q 315 51 153 51 q 486 74 388 51 l 486 15 q 308 -7 404 -7 q 151 41 211 -7 q 90 185 90 89 l 90 625 l 153 625 l 153 435 q 257 421 214 421 q 389 532 389 421 l 389 735 m 646 468 l 646 839 l 440 839 q 451 735 451 804 l 451 532 q 442 468 451 496 l 646 468 z "},"ह":{"ha":572,"x_min":-28,"x_max":600,"o":"m 71 174 l 71 264 q 150 393 71 360 q 75 522 75 425 l 75 540 q 265 700 75 700 l 401 700 l 401 839 l -28 839 l -28 894 l 600 894 l 600 839 l 464 839 l 464 642 l 265 642 q 165 617 192 642 q 138 540 138 592 l 138 522 q 167 447 138 472 q 269 422 196 422 l 326 422 q 456 383 415 422 q 497 264 497 343 l 497 222 l 435 222 l 435 264 q 415 340 435 317 q 326 364 394 364 l 272 364 q 165 339 197 364 q 133 264 133 314 l 133 174 q 310 51 133 51 q 478 72 410 51 l 478 15 q 309 -7 425 -7 q 132 41 193 -7 q 71 174 71 89 z "},"़":{"ha":0,"x_min":-329,"x_max":-237,"o":"m -283 -160 q -306 -160 -283 -160 q -329 -114 -329 -160 q -283 -68 -329 -68 q -237 -114 -237 -68 q -283 -160 -237 -160 z "},"ऽ":{"ha":583,"x_min":85,"x_max":528,"o":"m 528 282 l 528 176 q 310 -7 528 -7 l 307 -7 q 89 176 89 -7 l 89 274 l 151 274 l 151 176 q 183 84 151 117 q 307 51 215 51 l 310 51 q 433 84 401 51 q 465 176 465 117 l 465 282 q 449 358 465 328 q 390 413 433 389 l 200 513 q 110 591 136 546 q 85 701 85 636 l 85 739 q 128 856 85 817 q 276 894 172 894 l 496 894 l 496 836 l 276 836 q 172 813 196 836 q 147 739 147 789 l 147 701 q 163 625 147 656 q 222 571 179 594 l 413 471 q 502 392 476 438 q 528 282 528 347 z "},"ा":{"ha":285,"x_min":-28,"x_max":313,"o":"m 111 839 l -28 839 l -28 894 l 313 894 l 313 839 l 174 839 l 174 0 l 111 0 l 111 839 z "},"ि":{"ha":285,"x_min":-28,"x_max":761,"o":"m 111 894 l 111 958 q 190 1155 111 1097 q 414 1213 268 1213 q 590 1192 503 1213 q 719 1150 676 1171 l 761 1129 l 761 1071 q 599 1128 703 1103 q 413 1154 496 1154 q 231 1106 288 1154 q 174 958 174 1057 l 174 894 l 313 894 l 313 839 l 174 839 l 174 0 l 111 0 l 111 839 l -28 839 l -28 894 l 111 894 z "},"ी":{"ha":285,"x_min":-160,"x_max":313,"o":"m 111 894 l 111 1057 q 89 1131 111 1107 q 7 1154 67 1154 q -75 1131 -53 1154 q -97 1057 -97 1107 l -97 990 l -160 990 l -160 1057 q 7 1213 -160 1213 q 174 1057 174 1213 l 174 894 l 313 894 l 313 839 l 174 839 l 174 0 l 111 0 l 111 839 l -28 839 l -28 894 l 111 894 z "},"ु":{"ha":0,"x_min":-506,"x_max":54,"o":"m -214 -232 l -106 -232 q -26 -211 -43 -232 q -8 -144 -8 -190 q -28 -76 -8 -97 q -94 -54 -49 -54 q -249 -75 -181 -54 l -249 -17 q -105 4 -187 4 q 16 -31 -22 4 q 54 -144 54 -67 q 18 -256 54 -221 q -106 -290 -18 -290 l -214 -290 q -364 -229 -303 -290 l -506 -90 l -415 -90 l -324 -182 q -214 -232 -271 -232 z "},"ू":{"ha":0,"x_min":-324,"x_max":233,"o":"m -42 -269 q -171 -290 -90 -290 q -287 -256 -251 -290 q -324 -143 -324 -221 q -287 -31 -324 -65 q -164 4 -251 4 l -125 4 q -19 -15 -57 4 q 54 -75 19 -33 l 233 -290 l 151 -290 l 22 -133 q -44 -71 -17 -87 q -125 -54 -72 -54 l -164 -54 q -244 -75 -226 -54 q -261 -142 -261 -96 q -243 -210 -261 -189 q -179 -232 -225 -232 q -42 -211 -96 -232 l -42 -269 z "},"ृ":{"ha":0,"x_min":-385,"x_max":-108,"o":"m -385 -112 q -385 -65 -385 -112 q -342 19 -385 -18 q -230 56 -300 56 q -115 43 -160 56 l -115 -12 q -201 0 -160 0 q -260 -3 -243 0 q -293 -17 -276 -6 q -325 -110 -325 -36 q -297 -206 -325 -183 q -229 -229 -269 -229 q -108 -217 -171 -229 l -108 -272 q -226 -285 -154 -285 q -342 -245 -299 -285 q -385 -112 -385 -206 z "},"ॄ":{"ha":0,"x_min":-385,"x_max":-96,"o":"m -322 -362 l -322 -368 q -299 -441 -322 -422 q -206 -460 -275 -460 q -96 -451 -137 -460 l -96 -507 q -224 -515 -139 -515 q -385 -364 -385 -515 q -328 -232 -385 -269 q -385 -104 -385 -196 q -221 56 -385 56 q -115 43 -168 56 l -115 -12 q -221 0 -168 0 q -298 -25 -274 0 q -322 -104 -322 -50 l -322 -110 q -297 -182 -321 -164 q -224 -200 -274 -200 l -137 -200 l -137 -260 l -212 -260 q -298 -284 -274 -260 q -322 -362 -322 -308 z "},"ॅ":{"ha":0,"x_min":-347,"x_max":61,"o":"m 3 1138 l 61 1138 l 61 1136 q 10 1019 61 1053 q -144 985 -40 985 q -297 1019 -247 985 q -347 1136 -347 1053 l -347 1138 l -289 1138 q -256 1061 -289 1082 q -143 1040 -224 1040 q -30 1061 -62 1040 q 3 1138 3 1082 z "},"ॆ":{"ha":0,"x_min":-519,"x_max":-111,"o":"m -169 894 q -201 992 -169 958 q -315 1026 -233 1026 q -519 1213 -519 1026 l -461 1213 q -430 1115 -461 1149 q -315 1082 -399 1082 q -111 894 -111 1082 l -169 894 z "},"े":{"ha":0,"x_min":-436,"x_max":-111,"o":"m -436 1210 q -385 1213 -417 1213 q -262 1131 -317 1213 l -111 894 l -178 894 l -310 1101 q -400 1156 -344 1156 q -436 1153 -417 1156 l -436 1210 z "},"ै":{"ha":0,"x_min":-551,"x_max":-111,"o":"m -294 1213 q -178 1117 -206 1213 l -111 894 l -171 894 l -229 1088 q -253 1140 -240 1124 q -290 1156 -267 1156 q -332 1153 -312 1156 l -332 1210 q -294 1213 -312 1213 m -551 1210 q -500 1213 -532 1213 q -378 1131 -432 1213 l -226 894 l -293 894 l -425 1101 q -515 1156 -460 1156 q -551 1153 -532 1156 l -551 1210 z "},"ॉ":{"ha":285,"x_min":-61,"x_max":347,"o":"m 289 1146 l 347 1146 l 347 1144 q 298 1026 347 1058 q 144 993 249 993 q -11 1026 39 993 q -61 1144 -61 1060 l -61 1146 l -3 1146 q 30 1069 -3 1090 q 143 1049 63 1049 q 256 1069 224 1049 q 289 1146 289 1090 m 111 839 l -28 839 l -28 894 l 313 894 l 313 839 l 174 839 l 174 0 l 111 0 l 111 839 z "},"ॊ":{"ha":285,"x_min":-237,"x_max":313,"o":"m 111 839 l -28 839 l -28 894 l 113 894 q 81 992 113 958 q -33 1026 49 1026 q -237 1213 -237 1026 l -179 1213 q -148 1115 -179 1149 q -33 1082 -117 1082 q 171 894 171 1082 l 313 894 l 313 839 l 174 839 l 174 0 l 111 0 l 111 839 z "},"ो":{"ha":285,"x_min":-153,"x_max":313,"o":"m 313 894 l 313 839 l 174 839 l 174 0 l 111 0 l 111 839 l -28 839 l -28 894 l 106 894 l -26 1101 q -117 1156 -61 1156 q -153 1153 -133 1156 l -153 1210 q -101 1213 -133 1213 q 21 1131 -33 1213 l 172 894 l 313 894 z "},"ौ":{"ha":285,"x_min":-269,"x_max":313,"o":"m 313 894 l 313 839 l 174 839 l 174 0 l 111 0 l 111 839 l -69 839 l -69 894 l -11 894 l -143 1101 q -233 1156 -178 1156 q -269 1153 -250 1156 l -269 1210 q -218 1213 -250 1213 q -96 1131 -150 1213 l 56 894 l 111 894 l 53 1088 q 28 1140 42 1124 q -8 1156 15 1156 q -50 1153 -31 1156 l -50 1210 q -12 1213 -31 1213 q 104 1117 76 1213 l 171 894 l 313 894 z "},"्":{"ha":0,"x_min":-169,"x_max":28,"o":"m 28 -281 l -44 -281 l -169 -81 l -111 -81 l 28 -281 z "},"ॐ":{"ha":1053,"x_min":68,"x_max":993,"o":"m 610 324 l 610 732 q 658 857 610 813 q 801 901 706 901 q 945 857 897 901 q 993 732 993 813 l 993 196 q 937 45 993 97 q 750 -7 881 -7 l 640 3 l 640 63 q 750 53 697 53 q 893 89 856 53 q 931 196 931 125 l 931 732 q 902 814 931 785 q 801 843 874 843 q 701 814 729 843 q 672 732 672 785 l 672 292 q 642 268 672 268 l 429 268 l 429 168 q 376 40 429 86 q 236 -7 324 -7 q 68 14 149 -7 l 68 75 q 226 51 151 51 q 367 168 367 51 l 367 308 q 342 394 367 364 q 240 426 317 425 l 156 426 l 156 485 l 240 485 q 342 517 317 486 q 367 603 367 547 l 367 726 q 226 843 367 843 q 82 817 156 843 l 82 881 q 235 901 147 901 q 376 855 324 901 q 429 726 429 808 l 429 603 q 354 456 429 482 q 429 324 424 428 l 610 324 m 731 1114 l 731 1113 q 680 995 731 1029 q 526 961 629 961 q 372 995 422 961 q 322 1113 322 1029 l 322 1114 l 381 1114 q 413 1038 381 1058 q 526 1017 446 1017 q 640 1038 607 1017 q 672 1114 672 1058 l 731 1114 m 572 1151 q 572 1128 572 1151 q 526 1106 572 1106 q 481 1151 481 1106 q 526 1197 481 1197 q 572 1151 572 1197 z "},"॑":{"ha":0,"x_min":-174,"x_max":-111,"o":"m -174 1278 l -111 1278 l -111 960 l -174 960 l -174 1278 z "},"॒":{"ha":0,"x_min":-532,"x_max":-11,"o":"m -11 -165 l -532 -165 l -532 -110 l -11 -110 l -11 -165 z "},"॓":{"ha":468,"x_min":104,"x_max":310,"o":"m 104 1278 l 171 1278 l 310 960 l 243 960 l 104 1278 z "},"॔":{"ha":454,"x_min":104,"x_max":310,"o":"m 243 1278 l 310 1278 l 171 960 l 104 960 l 243 1278 z "},"क़":{"ha":797,"x_min":-21,"x_max":825,"o":"m 151 -50 q 128 -50 151 -50 q 106 -4 106 -50 q 151 42 106 42 q 197 -4 197 42 q 151 -50 197 -50 m 375 839 l -21 839 l -21 894 l 825 894 l 825 839 l 438 839 l 438 686 q 538 701 483 701 q 679 660 631 701 q 728 539 728 618 l 728 269 q 688 152 728 197 q 567 107 647 107 q 533 108 544 107 l 533 167 q 561 165 543 165 q 665 269 665 165 l 665 539 q 538 643 665 643 q 438 629 483 643 l 438 0 l 375 0 l 375 115 q 267 101 319 101 q 125 143 174 101 q 76 264 76 185 l 76 538 q 125 658 76 617 q 267 700 174 700 q 308 696 289 700 l 308 639 q 267 642 283 642 q 139 538 139 642 l 139 264 q 267 160 139 160 q 375 174 329 160 l 375 839 z "},"ख़":{"ha":992,"x_min":-28,"x_max":1019,"o":"m 368 735 q 350 839 368 788 l -28 839 l -28 894 l 1019 894 l 1019 839 l 881 839 l 881 0 l 818 0 l 818 200 q 700 186 767 186 q 519 349 519 186 l 519 538 q 700 700 519 700 q 818 686 753 700 l 818 839 l 413 839 q 431 735 431 804 l 431 565 q 233 371 431 371 q 132 381 178 371 l 132 239 q 383 54 132 54 q 582 76 486 54 l 582 15 q 385 -6 481 -6 q 69 239 69 -6 l 69 611 l 132 611 l 132 439 q 233 429 193 429 q 368 565 368 429 l 368 735 m 818 628 q 696 642 760 642 q 607 615 632 642 q 582 538 582 589 l 582 349 q 607 271 582 297 q 706 244 632 244 q 818 258 781 244 l 818 628 m -1 -87 q -1 -65 -1 -87 q 44 -42 -1 -42 q 90 -87 90 -42 q 44 -133 90 -133 q -1 -87 -1 -133 z "},"ग़":{"ha":661,"x_min":-28,"x_max":689,"o":"m 689 894 l 689 839 l 550 839 l 550 0 l 488 0 l 488 839 l 251 839 l 251 438 q 211 320 251 365 q 90 275 171 275 q 47 279 64 275 l 47 336 q 85 333 69 333 q 189 438 189 333 l 189 839 l -28 839 l -28 894 l 689 894 m 92 97 q 92 120 92 97 q 138 143 92 143 q 183 97 183 143 q 138 51 183 51 q 92 97 92 51 z "},"ज़":{"ha":750,"x_min":-28,"x_max":778,"o":"m 306 506 q 294 610 306 563 l 138 610 l 138 665 l 576 665 l 576 839 l -28 839 l -28 894 l 778 894 l 778 839 l 639 839 l 639 0 l 576 0 l 576 610 l 357 610 q 368 506 368 575 l 368 232 q 317 103 368 149 q 183 57 267 57 q 39 74 99 57 l 39 133 q 169 115 103 115 q 306 232 306 115 l 306 506 m 44 -106 q 22 -106 44 -106 q -1 -60 -1 -106 q 44 -14 -1 -14 q 90 -60 90 -14 q 44 -106 90 -106 z "},"ड़":{"ha":565,"x_min":-28,"x_max":593,"o":"m 489 221 l 489 161 q 268 -7 489 -7 q 82 13 165 -7 l 82 75 q 268 51 164 51 q 426 161 426 51 l 426 221 q 397 298 426 272 q 294 324 368 324 l 271 324 q 76 485 76 324 l 76 542 q 271 701 76 701 l 386 701 l 386 839 l -28 839 l -28 894 l 593 894 l 593 839 l 449 839 l 449 643 l 271 643 q 168 617 197 643 q 139 542 139 592 l 139 485 q 168 408 139 433 q 271 382 197 382 l 294 382 q 489 221 489 382 m 282 -229 q 259 -229 282 -229 q 236 -183 236 -229 q 282 -137 236 -137 q 328 -183 328 -137 q 282 -229 328 -229 z "},"ढ़":{"ha":556,"x_min":-28,"x_max":583,"o":"m 282 -229 q 259 -229 282 -229 q 236 -183 236 -229 q 282 -137 236 -137 q 328 -183 328 -137 q 282 -229 328 -229 m 328 349 q 265 338 290 349 l 265 396 q 333 407 293 407 q 444 365 401 407 q 486 246 486 324 l 486 169 q 436 40 486 86 q 285 -7 386 -7 q 133 40 183 -7 q 83 169 83 86 l 83 538 q 278 700 83 700 l 375 700 l 375 839 l -28 839 l -28 894 l 583 894 l 583 839 l 438 839 l 438 642 l 278 642 q 175 615 204 642 q 146 538 146 589 l 146 169 q 176 83 146 114 q 285 51 207 51 q 393 83 363 51 q 424 169 424 114 l 424 246 q 328 349 424 349 z "},"फ़":{"ha":818,"x_min":-29,"x_max":846,"o":"m 390 839 l 140 839 l 140 339 q 281 229 140 229 q 390 243 339 229 l 390 839 m 390 0 l 390 186 q 281 171 333 171 q 131 215 183 171 q 78 339 78 260 l 78 839 l -29 839 l -29 894 l 846 894 l 846 839 l 450 839 l 450 678 q 563 694 504 694 q 701 651 654 694 q 749 532 749 607 l 749 254 q 706 136 749 179 q 579 93 663 93 l 554 94 l 554 151 q 657 176 628 150 q 686 254 686 203 l 686 532 q 659 610 686 583 q 563 636 632 636 q 450 619 508 636 l 450 0 l 390 0 m 104 -21 q 81 -21 104 -21 q 58 25 58 -21 q 104 71 58 71 q 150 25 150 71 q 104 -21 150 -21 z "},"य़":{"ha":682,"x_min":-28,"x_max":710,"o":"m 269 735 q 258 839 269 792 l -28 839 l -28 894 l 710 894 l 710 839 l 571 839 l 571 0 l 508 0 l 508 135 q 344 118 428 118 q 83 351 83 118 l 83 529 l 111 529 q 236 550 203 529 q 269 633 269 571 l 269 735 m 332 735 l 332 633 q 146 471 332 471 l 146 351 q 193 219 146 261 q 331 176 240 176 q 508 193 422 176 l 508 839 l 321 839 q 332 735 332 804 m 138 -54 q 115 -54 138 -54 q 92 -8 92 -54 q 138 38 92 38 q 183 -8 183 38 q 138 -54 183 -54 z "},"ॠ":{"ha":914,"x_min":-28,"x_max":942,"o":"m 942 839 l 497 839 l 497 579 l 668 579 q 774 608 743 579 q 806 693 806 636 l 806 704 l 865 704 l 865 381 l 810 381 q 722 358 749 381 q 696 272 696 335 q 733 188 696 208 q 829 168 769 168 l 847 168 l 847 111 l 803 111 q 703 67 718 111 q 696 0 696 47 q 722 -65 696 -47 q 803 -83 747 -83 l 910 -83 l 910 -139 l 803 -139 q 676 -105 719 -139 q 633 19 633 -71 q 694 144 633 110 q 633 274 633 185 q 674 399 633 364 q 806 436 715 435 l 806 569 q 668 519 764 519 l 497 519 l 497 0 l 435 0 l 435 385 l 140 83 l 54 83 l 435 472 l 435 500 q 401 601 435 568 q 282 633 367 633 q 163 601 197 633 q 129 508 129 569 l 129 428 l 67 428 l 67 508 q 281 692 67 692 q 435 639 390 692 l 435 839 l -28 839 l -28 894 l 942 894 l 942 839 z "},"ॡ":{"ha":847,"x_min":-28,"x_max":875,"o":"m 736 296 l 672 296 q 587 271 611 296 q 563 190 563 246 q 586 115 563 135 q 661 96 610 96 l 714 96 l 714 36 l 672 36 q 587 12 611 36 q 563 -69 563 -12 q 586 -144 563 -125 q 661 -164 610 -164 l 756 -164 l 756 -219 l 661 -219 q 500 -68 500 -219 q 557 64 500 26 q 500 192 500 100 q 664 351 500 351 l 674 351 l 674 492 q 649 574 674 544 q 556 603 624 603 q 438 496 438 603 l 438 369 l 375 369 l 375 496 q 257 603 375 603 q 164 574 189 603 q 139 492 139 544 l 139 203 q 172 94 139 132 q 292 56 204 56 l 344 56 l 344 0 l 292 0 q 76 203 76 0 l 76 492 q 257 661 76 661 q 406 601 361 661 q 544 661 451 661 q 674 621 638 661 l 674 839 l -28 839 l -28 894 l 875 894 l 875 839 l 736 839 l 736 296 z "},"।":{"ha":382,"x_min":208,"x_max":271,"o":"m 208 0 l 208 894 l 271 894 l 271 0 l 208 0 z "},"॥":{"ha":621,"x_min":181,"x_max":510,"o":"m 447 0 l 447 894 l 510 894 l 510 0 l 447 0 m 181 0 l 181 894 l 243 894 l 243 0 l 181 0 z "},"०":{"ha":611,"x_min":90,"x_max":521,"o":"m 451 726 q 306 876 451 876 q 160 726 160 876 l 160 199 q 306 49 160 49 q 451 199 451 49 l 451 726 m 90 726 q 143 881 90 822 q 306 939 196 939 q 468 881 415 939 q 521 726 521 822 l 521 199 q 468 44 521 103 q 306 -14 415 -14 q 143 44 196 -14 q 90 199 90 103 l 90 726 z "},"१":{"ha":369,"x_min":14,"x_max":265,"o":"m 265 925 l 265 0 l 196 0 l 196 864 l 14 732 l 14 813 l 171 925 l 265 925 z "},"२":{"ha":542,"x_min":63,"x_max":479,"o":"m 242 932 q 472 744 472 932 l 472 665 q 448 538 471 583 q 363 451 425 493 l 260 383 q 159 299 186 336 q 132 196 132 263 l 132 67 l 479 67 l 479 0 l 63 0 l 63 194 q 100 335 63 285 q 221 439 138 385 l 324 507 q 386 572 369 536 q 403 665 403 607 l 403 744 q 369 838 403 807 q 246 868 336 868 q 76 842 156 868 l 76 910 q 242 932 146 932 z "},"३":{"ha":535,"x_min":36,"x_max":444,"o":"m 210 932 q 439 740 439 932 l 439 644 q 335 463 439 508 q 444 286 444 422 l 444 186 q 386 44 444 94 q 217 -7 328 -7 q 36 18 106 -7 l 36 88 q 210 57 119 57 q 338 90 301 57 q 375 186 375 122 l 375 282 q 229 432 375 432 l 138 432 l 138 494 l 229 494 q 338 533 307 494 q 369 644 369 572 l 369 740 q 335 835 369 803 q 210 868 300 868 q 53 846 119 868 l 53 913 q 210 932 117 932 z "},"४":{"ha":542,"x_min":14,"x_max":535,"o":"m 535 240 l 535 178 l 439 178 l 439 0 l 369 0 l 369 178 l 14 178 l 14 240 l 318 925 l 439 925 l 439 240 l 535 240 m 369 240 l 369 878 l 85 240 l 369 240 z "},"५":{"ha":574,"x_min":86,"x_max":493,"o":"m 92 925 l 474 925 l 474 861 l 161 861 l 161 532 q 286 540 231 540 q 493 333 493 540 l 493 185 q 433 44 493 94 q 269 -7 374 -7 q 86 21 164 -7 l 86 92 q 254 57 172 57 q 424 185 424 57 l 424 333 q 394 440 424 406 q 286 474 364 474 q 92 457 244 474 l 92 925 z "},"६":{"ha":590,"x_min":90,"x_max":521,"o":"m 451 376 q 315 506 451 506 q 160 465 228 506 l 160 199 q 306 49 160 49 q 451 199 451 49 l 451 376 m 90 724 q 148 874 90 817 q 312 932 206 932 q 492 908 418 932 l 492 842 q 324 868 417 868 q 160 724 160 868 l 160 535 q 321 569 229 569 q 467 520 413 569 q 521 376 521 471 l 521 199 q 468 44 521 103 q 306 -14 415 -14 q 143 44 196 -14 q 90 199 90 103 l 90 724 z "},"७":{"ha":436,"x_min":7,"x_max":400,"o":"m 7 925 l 400 925 l 400 871 l 315 599 q 249 350 268 446 q 229 135 229 254 l 229 0 l 158 0 l 158 135 q 178 351 158 257 q 246 599 197 444 l 329 863 l 7 863 l 7 925 z "},"८":{"ha":625,"x_min":90,"x_max":535,"o":"m 531 732 l 531 642 q 419 461 531 504 q 535 279 535 417 l 535 193 q 478 42 535 99 q 313 -14 422 -14 q 147 42 203 -14 q 90 193 90 99 l 90 279 q 206 461 90 417 q 94 642 94 504 l 94 732 q 149 883 94 826 q 313 939 203 939 q 476 883 422 939 q 531 732 531 826 m 164 732 l 164 642 q 313 492 164 492 q 461 642 461 492 l 461 732 q 313 876 461 876 q 164 732 164 876 m 465 193 l 465 279 q 313 429 465 429 q 160 279 160 429 l 160 193 q 313 49 160 49 q 465 193 465 49 z "},"९":{"ha":590,"x_min":69,"x_max":500,"o":"m 431 726 q 285 876 431 876 q 139 726 139 876 l 139 546 q 278 410 139 410 q 431 447 374 410 l 431 726 m 69 726 q 122 881 69 822 q 285 939 175 939 q 447 881 394 939 q 500 726 500 822 l 500 200 q 441 50 500 107 q 278 -7 382 -7 q 93 19 175 -7 l 93 88 q 264 57 179 57 q 431 200 431 57 l 431 378 q 276 346 371 346 q 125 399 181 346 q 69 546 69 451 l 69 726 z "},"॰":{"ha":489,"x_min":76,"x_max":422,"o":"m 156 562 q 144 545 156 562 q 132 464 132 528 q 156 367 132 400 q 249 333 179 333 q 342 367 318 333 q 367 464 367 401 q 342 561 367 526 q 249 596 318 596 q 156 562 179 596 m 249 279 q 163 279 249 279 q 76 466 76 279 q 249 653 76 653 q 422 466 422 653 q 249 279 422 279 z "},"ॲ":{"ha":764,"x_min":49,"x_max":825,"o":"m 767 1138 l 825 1138 l 825 1136 q 774 1019 825 1053 q 620 985 724 985 q 467 1019 517 985 q 417 1136 417 1053 l 417 1138 l 475 1138 q 508 1061 475 1082 q 621 1040 540 1040 q 734 1061 701 1040 q 767 1138 767 1082 m 590 351 l 590 894 l 792 894 l 792 839 l 653 839 l 653 0 l 590 0 l 590 296 l 410 296 l 410 222 q 357 94 410 140 q 217 47 304 47 q 49 68 129 47 l 49 129 q 207 106 132 106 q 347 222 347 106 l 347 333 q 322 419 347 389 q 221 451 297 450 l 136 451 l 136 510 l 221 510 q 322 542 297 511 q 347 628 347 572 l 347 726 q 207 843 347 843 q 63 817 136 843 l 63 881 q 216 901 128 901 q 357 855 304 901 q 410 726 410 808 l 410 628 q 335 481 410 507 q 410 351 404 454 l 590 351 z "},"ॽ":{"ha":592,"x_min":100,"x_max":517,"o":"m 100 579 l 100 704 q 149 847 100 792 q 308 901 197 901 q 468 847 419 901 q 517 704 517 792 l 517 469 q 470 328 517 383 q 317 272 424 274 l 317 0 l 254 0 l 254 331 l 308 331 q 431 378 404 331 q 454 469 454 417 l 454 704 q 386 831 454 806 q 308 843 356 843 q 230 831 261 843 q 186 797 199 819 q 163 704 163 757 l 163 579 l 100 579 z "},"​":{"ha":0,"x_min":0,"x_max":0,"o":""},"‌":{"ha":0,"x_min":-32,"x_max":33,"o":"m 33 -319 l -32 -319 l -32 1126 l 33 1126 l 33 -319 z "},"‍":{"ha":0,"x_min":-176,"x_max":179,"o":"m 33 -319 l -32 -319 l -32 882 l -128 781 l -174 826 l -44 956 l -176 1088 l -131 1133 l 1 1001 l 135 1133 l 179 1089 l 46 956 l 179 824 l 133 778 l 33 882 l 33 -319 z "},"–":{"ha":479,"x_min":56,"x_max":418,"o":"m 56 475 l 418 475 l 418 419 l 56 419 l 56 475 z "},"—":{"ha":797,"x_min":56,"x_max":724,"o":"m 56 476 l 724 476 l 724 421 l 56 421 l 56 476 z "},"‘":{"ha":204,"x_min":42,"x_max":163,"o":"m 79 722 q 42 760 42 722 q 118 983 42 815 l 163 983 l 107 722 l 79 722 z "},"’":{"ha":204,"x_min":42,"x_max":163,"o":"m 125 983 q 163 946 163 983 q 86 722 163 890 l 42 722 l 97 983 l 125 983 z "},"‚":{"ha":204,"x_min":42,"x_max":163,"o":"m 125 96 q 163 58 163 96 q 86 -165 163 3 l 42 -165 l 97 96 l 125 96 z "},"“":{"ha":340,"x_min":42,"x_max":299,"o":"m 79 722 q 42 760 42 722 q 118 983 42 815 l 160 983 l 104 722 l 79 722 m 218 722 q 181 760 181 722 q 257 983 181 815 l 299 983 l 243 722 l 218 722 z "},"”":{"ha":340,"x_min":42,"x_max":299,"o":"m 122 983 q 160 946 160 983 q 83 722 160 890 l 42 722 l 97 983 l 122 983 m 261 983 q 299 946 299 983 q 222 722 299 890 l 181 722 l 236 983 l 261 983 z "},"„":{"ha":340,"x_min":42,"x_max":299,"o":"m 122 96 q 160 58 160 96 q 83 -165 160 3 l 42 -165 l 97 96 l 122 96 m 261 96 q 299 58 299 96 q 222 -165 299 3 l 181 -165 l 236 96 l 261 96 z "},"†":{"ha":476,"x_min":78,"x_max":399,"o":"m 208 1061 l 268 1061 l 263 889 q 399 894 326 894 l 399 839 l 263 844 q 268 674 268 756 l 268 -40 l 208 -40 l 208 674 l 214 844 q 78 839 158 839 l 78 894 l 214 889 q 208 1061 208 981 z "},"‡":{"ha":476,"x_min":78,"x_max":399,"o":"m 208 1061 l 268 1061 l 263 889 q 399 894 318 894 l 399 839 l 263 844 q 263 176 267 510 q 399 182 318 182 l 399 126 l 263 132 q 268 -40 268 61 l 208 -40 l 214 132 q 78 126 158 126 l 78 182 l 214 176 q 214 844 210 510 q 78 839 158 839 l 78 894 l 214 889 q 208 1061 208 981 z "},"•":{"ha":381,"x_min":100,"x_max":281,"o":"m 190 357 q 145 357 190 357 q 100 447 100 357 q 190 538 100 538 q 281 447 281 538 q 190 357 281 357 z "},"…":{"ha":719,"x_min":92,"x_max":628,"o":"m 360 0 q 337 0 360 0 q 314 46 314 0 q 360 92 314 92 q 406 46 406 92 q 360 0 406 0 m 138 0 q 115 0 138 0 q 92 46 92 0 q 138 92 92 92 q 183 46 183 92 q 138 0 183 0 m 582 0 q 559 0 582 0 q 536 46 536 0 q 582 92 536 92 q 628 46 628 92 q 582 0 628 0 z "},"‰":{"ha":1069,"x_min":49,"x_max":1028,"o":"m 781 35 q 763 59 781 35 q 744 174 744 83 q 781 313 744 264 q 886 361 818 361 q 991 313 954 361 q 1028 174 1028 264 q 991 35 1028 83 q 886 -14 954 -14 q 781 35 818 -14 m 886 44 q 926 44 886 44 q 965 174 965 44 q 886 303 965 303 q 807 174 807 303 q 886 44 807 44 m 435 35 q 417 59 435 35 q 399 174 399 83 q 435 313 399 264 q 540 361 472 361 q 645 313 608 361 q 682 174 682 264 q 645 35 682 83 q 540 -14 608 -14 q 435 35 472 -14 m 540 44 q 580 44 540 44 q 619 174 619 44 q 540 303 619 303 q 461 174 461 303 q 540 44 461 44 m 85 613 q 67 637 85 613 q 49 751 49 661 q 85 890 49 842 q 190 939 122 939 q 295 890 258 939 q 332 751 332 842 q 295 613 332 661 q 190 564 258 564 q 85 613 122 564 m 190 622 q 230 622 190 622 q 269 751 269 622 q 190 881 269 881 q 111 751 111 881 q 190 622 111 622 m 514 925 l 572 925 l 218 0 l 160 0 l 514 925 z "},"‹":{"ha":443,"x_min":85,"x_max":326,"o":"m 253 701 l 326 701 l 157 447 l 326 193 l 253 193 l 85 447 l 253 701 z "},"›":{"ha":428,"x_min":85,"x_max":326,"o":"m 85 701 l 158 701 l 326 447 l 158 193 l 85 193 l 254 447 l 85 701 z "},"⁄":{"ha":301,"x_min":-97,"x_max":399,"o":"m 340 925 l 399 925 l -39 0 l -97 0 l 340 925 z "},"⁴":{"ha":418,"x_min":17,"x_max":406,"o":"m 282 597 l 282 988 l 72 597 l 282 597 m 335 1029 l 335 597 l 406 597 l 406 546 l 335 546 l 335 401 l 282 401 l 282 546 l 17 546 l 17 597 l 250 1029 l 335 1029 z "},"€":{"ha":540,"x_min":18,"x_max":485,"o":"m 160 351 l 160 181 q 197 88 160 119 q 319 57 233 57 q 485 81 406 57 l 485 15 q 325 -7 415 -7 q 90 181 90 -7 l 90 351 l 18 351 l 18 407 l 90 407 l 90 535 l 18 535 l 18 590 l 90 590 l 90 744 q 325 932 90 932 q 482 910 404 932 l 482 844 q 318 868 403 868 q 197 837 233 868 q 160 744 160 806 l 160 590 l 394 590 l 394 535 l 160 535 l 160 407 l 394 407 l 394 351 l 160 351 z "},"₹":{"ha":619,"x_min":69,"x_max":557,"o":"m 557 894 l 557 839 l 372 839 q 429 728 429 806 l 429 683 l 557 683 l 557 628 l 429 628 l 429 601 q 378 445 429 492 q 203 399 326 399 l 143 399 l 439 0 l 364 0 l 69 400 l 69 458 l 203 458 q 338 490 304 458 q 371 601 371 521 l 371 628 l 71 628 l 71 683 l 371 683 l 371 728 q 335 808 371 778 q 225 839 299 839 l 71 839 l 71 894 l 557 894 z "},"ℓ":{"ha":465,"x_min":19,"x_max":426,"o":"m 174 161 q 199 83 174 106 q 280 60 224 60 q 375 74 336 60 l 375 8 q 278 -4 333 -4 q 104 161 104 -4 l 104 199 q 19 129 65 164 l 19 221 q 104 294 65 258 l 104 808 q 147 949 104 901 q 267 996 190 996 q 385 942 344 996 q 426 790 426 889 q 174 265 426 528 l 174 161 m 174 808 l 174 368 q 357 790 357 579 q 265 928 357 928 q 174 808 174 928 z "},"™":{"ha":733,"x_min":97,"x_max":622,"o":"m 622 964 l 622 654 l 575 654 l 575 803 l 588 936 l 506 654 l 469 654 l 388 936 l 400 803 l 400 654 l 353 654 l 353 964 l 418 964 l 474 782 l 488 718 l 501 782 l 557 964 l 622 964 m 97 921 l 97 964 l 322 964 l 322 921 l 233 921 l 233 654 l 186 654 l 186 921 l 97 921 z "},"Ω":{"ha":622,"x_min":46,"x_max":576,"o":"m 90 726 q 146 880 90 821 q 311 939 201 939 q 476 880 421 939 q 532 726 532 821 l 532 199 q 469 63 532 99 l 576 63 l 576 0 l 365 0 l 365 64 q 463 199 463 75 l 463 726 q 311 876 463 876 q 160 726 160 876 l 160 199 q 257 64 160 75 l 257 0 l 46 0 l 46 63 l 153 63 q 90 199 90 99 l 90 726 z "},"℮":{"ha":918,"x_min":78,"x_max":844,"o":"m 668 660 q 467 714 585 714 q 264 651 349 714 l 264 403 l 668 403 l 668 660 m 844 381 l 843 354 l 264 354 l 264 96 q 468 33 357 33 q 658 74 579 33 q 778 189 738 115 l 819 167 q 683 33 771 79 q 479 -14 594 -14 q 188 93 299 -14 q 78 373 78 200 q 188 654 78 546 q 474 763 297 763 q 747 658 650 763 q 844 381 844 553 z "},"∂":{"ha":629,"x_min":97,"x_max":528,"o":"m 313 546 q 167 396 167 546 l 167 199 q 313 49 167 49 q 458 199 458 49 l 458 490 q 313 546 406 546 m 528 425 l 528 199 q 475 44 528 103 q 313 -14 422 -14 q 150 44 203 -14 q 97 199 97 103 l 97 396 q 150 550 97 492 q 313 608 203 608 q 440 569 392 608 q 357 772 414 676 q 238 925 300 867 l 333 925 q 463 720 399 857 q 528 425 528 583 z "},"∆":{"ha":646,"x_min":96,"x_max":550,"o":"m 363 925 l 550 0 l 96 0 l 283 925 l 363 925 m 322 828 l 169 63 l 475 63 l 322 828 z "},"∏":{"ha":646,"x_min":104,"x_max":542,"o":"m 104 925 l 542 925 l 542 0 l 471 0 l 471 863 l 174 863 l 174 0 l 104 0 l 104 925 z "},"∑":{"ha":515,"x_min":42,"x_max":465,"o":"m 42 925 l 465 925 l 465 863 l 115 863 l 294 463 l 115 63 l 465 63 l 465 0 l 42 0 l 42 63 l 221 463 l 42 863 l 42 925 z "},"−":{"ha":585,"x_min":56,"x_max":529,"o":"m 56 476 l 529 476 l 529 421 l 56 421 l 56 476 z "},"∕":{"ha":301,"x_min":-56,"x_max":357,"o":"m 299 925 l 357 925 l 3 0 l -56 0 l 299 925 z "},"∙":{"ha":175,"x_min":42,"x_max":133,"o":"m 88 411 q 65 411 88 411 q 42 463 42 411 q 88 514 42 514 q 133 463 133 514 q 88 411 133 411 z "},"√":{"ha":558,"x_min":53,"x_max":524,"o":"m 53 363 l 53 426 l 175 426 l 279 74 l 451 925 l 524 925 l 329 0 l 229 0 l 124 363 l 53 363 z "},"∞":{"ha":829,"x_min":69,"x_max":760,"o":"m 594 658 q 724 607 688 658 q 760 465 760 556 q 724 322 760 374 q 594 271 688 271 q 497 307 539 271 q 414 408 456 343 q 330 308 371 343 q 233 274 289 274 q 105 324 140 274 q 69 466 69 375 q 105 608 69 557 q 233 658 140 658 q 330 623 289 658 q 414 521 371 588 q 497 622 456 586 q 594 658 539 658 m 147 375 q 151 365 147 375 q 176 345 156 354 q 236 336 197 336 q 308 369 275 336 q 378 465 340 401 q 307 560 339 528 q 236 593 275 593 q 176 584 197 593 q 146 553 154 575 q 135 515 138 532 q 133 464 133 497 q 135 413 133 431 q 147 375 138 396 m 449 465 q 521 369 489 401 q 592 336 553 336 q 652 345 631 336 q 683 374 674 354 q 694 413 692 394 q 696 464 696 431 q 694 515 696 497 q 683 554 692 533 q 594 593 665 593 q 521 561 553 593 q 449 465 489 529 z "},"∫":{"ha":371,"x_min":26,"x_max":313,"o":"m 135 925 q 180 1056 135 1010 q 313 1101 225 1101 l 313 1039 q 204 925 204 1039 l 204 0 q 159 -131 204 -85 q 26 -176 114 -176 l 26 -114 q 135 0 135 -114 l 135 925 z "},"≈":{"ha":585,"x_min":65,"x_max":522,"o":"m 522 589 q 464 491 522 517 q 340 499 406 465 l 238 549 q 147 563 183 578 q 119 489 110 547 l 68 489 q 65 518 65 503 q 124 616 65 590 q 247 608 183 642 l 350 558 q 442 544 407 528 q 468 618 478 560 l 519 618 q 522 589 522 604 m 522 408 q 464 310 522 336 q 340 318 406 285 l 238 368 q 147 382 183 397 q 119 308 110 367 l 68 308 q 65 338 65 322 q 124 435 65 410 q 247 428 183 461 l 350 378 q 442 363 407 347 q 468 438 478 379 l 519 438 q 522 408 522 424 z "},"≠":{"ha":613,"x_min":69,"x_max":543,"o":"m 543 539 l 379 539 l 297 356 l 543 356 l 543 300 l 272 300 l 214 167 l 160 167 l 218 300 l 69 300 l 69 356 l 243 356 l 325 539 l 69 539 l 69 594 l 349 594 l 410 732 l 464 732 l 403 594 l 543 594 l 543 539 z "},"≤":{"ha":626,"x_min":69,"x_max":543,"o":"m 543 681 l 543 618 l 118 447 l 543 278 l 543 215 l 69 404 l 69 490 l 543 681 m 69 129 l 69 185 l 543 185 l 543 129 l 69 129 z "},"≥":{"ha":626,"x_min":83,"x_max":557,"o":"m 83 681 l 557 490 l 557 404 l 83 215 l 83 278 l 508 447 l 83 618 l 83 681 m 83 129 l 83 185 l 557 185 l 557 129 l 83 129 z "},"◊":{"ha":571,"x_min":56,"x_max":517,"o":"m 444 390 l 286 756 l 128 390 l 286 25 l 444 390 m 231 782 l 342 782 l 517 390 l 342 0 l 231 0 l 56 390 l 231 782 z "},"◌":{"ha":917,"x_min":61,"x_max":856,"o":"m 374 733 q 366 742 374 733 q 357 778 357 750 q 374 822 357 806 q 418 839 392 839 q 462 822 444 839 q 479 778 479 806 q 462 733 479 750 q 418 717 444 717 q 374 733 392 717 m 594 696 q 581 696 594 696 q 550 714 568 696 q 532 758 532 732 q 549 801 532 783 q 594 819 567 819 q 638 802 621 819 q 654 758 654 785 q 637 714 654 732 q 594 696 619 696 m 681 619 q 673 627 681 619 q 664 663 664 636 q 681 707 664 689 q 725 725 699 725 q 769 708 751 725 q 786 663 786 690 q 769 619 786 636 q 725 601 751 601 q 681 619 699 601 m 750 455 q 742 464 750 455 q 733 499 733 472 q 750 542 733 525 q 794 560 767 560 q 838 542 821 560 q 856 499 856 525 q 838 455 856 472 q 794 438 821 438 q 750 455 767 438 m 738 269 q 728 277 738 269 q 719 313 719 286 q 738 357 719 339 q 781 375 756 375 q 824 357 807 375 q 842 313 842 339 q 824 269 842 286 q 781 251 807 251 q 738 269 756 251 m 635 133 q 627 141 635 133 q 618 176 618 150 q 635 220 618 203 q 679 238 653 238 q 724 220 706 238 q 742 176 742 203 q 724 133 742 150 q 679 115 706 115 q 635 133 653 115 m 467 58 q 458 67 467 58 q 450 103 450 75 q 467 147 450 131 q 511 164 483 164 q 556 147 539 164 q 574 103 574 129 q 556 59 574 76 q 511 42 539 42 q 467 58 483 42 m 336 61 q 323 61 336 61 q 292 79 310 61 q 274 124 274 97 q 292 168 274 150 q 336 186 310 186 q 380 168 363 186 q 397 124 397 150 q 380 79 397 97 q 336 61 363 61 m 150 185 q 142 194 150 185 q 133 229 133 203 q 151 273 133 256 q 194 290 168 290 q 238 273 221 290 q 256 229 256 256 q 238 185 256 203 q 194 168 221 168 q 150 185 167 168 m 78 347 q 70 356 78 347 q 61 390 61 364 q 78 435 61 417 q 122 453 96 453 q 166 435 149 453 q 183 391 183 418 q 166 347 183 364 q 122 331 149 331 q 78 347 96 331 m 97 522 q 88 530 97 522 q 79 565 79 539 q 97 609 79 592 q 142 626 115 626 q 186 609 168 626 q 204 565 204 592 q 186 522 204 539 q 142 504 168 504 q 97 522 115 504 m 254 656 q 241 656 254 656 q 210 673 228 656 q 193 717 193 690 q 210 762 193 744 q 254 779 228 779 q 298 762 281 779 q 315 717 315 744 q 298 673 315 690 q 254 656 281 656 z "},"":{"ha":486,"x_min":190,"x_max":294,"o":"m 260 -85 q 294 -116 294 -85 q 233 -242 294 -147 l 190 -242 l 228 -85 l 260 -85 z "},"ﬁ":{"ha":660,"x_min":56,"x_max":556,"o":"m 556 782 l 556 0 l 486 0 l 486 719 l 204 719 l 204 0 l 135 0 l 135 719 l 56 719 l 56 782 l 135 782 l 135 828 q 358 1010 135 1010 q 532 990 450 1010 l 532 925 q 363 947 451 947 q 240 919 275 947 q 204 828 204 890 l 204 782 l 556 782 z "},"ﬂ":{"ha":660,"x_min":56,"x_max":556,"o":"m 556 990 l 556 0 l 486 0 l 486 933 q 350 947 426 947 q 239 919 274 947 q 204 828 204 892 l 204 782 l 360 782 l 360 719 l 204 719 l 204 0 l 135 0 l 135 719 l 56 719 l 56 782 l 135 782 l 135 828 q 356 1010 135 1010 q 517 990 436 1010 l 556 990 z "}}}
